<?xml version="1.0" encoding="utf-8"?>
<!-- Generator: Adobe Illustrator 22.1.0, SVG Export Plug-In . SVG Version: 6.00 Build 0)  -->
<svg version="1.1" id="Layer_1" xmlns="http://www.w3.org/2000/svg" xmlns:xlink="http://www.w3.org/1999/xlink" x="0px" y="0px"
	 viewBox="0 0 950 305.3" style="enable-background:new 0 0 950 305.3;" xml:space="preserve">
<style type="text/css">
	.st0{fill:#FFB900;}
</style>
<title>Untitled-4</title>
<path class="st0" d="M676.9,20.4v62.7h-37.6V159h37.6v141.2h88.7V158.4h25.7V83.1h-25.7V20.4H676.9z M824.3,20.4v62.7h-22.6V159
	h22.6v141.2H913V158.4h37V83.1h-37V20.4H824.3z M245.8,300.2h89.3v-81c0-13,1.2-23.6,3.7-32.1c5-17.5,17.9-26.4,39.9-26.6
	c6.8,0,13.6,1.1,20.1,3.1v-84c-3-0.7-6-1.1-9.1-1.1c-24.1,0-40.8,4.5-56.7,30.2V83.1h-87.1V300.2z M540.2,83.1V107
	c-11.6-18.2-36.1-29.2-56.8-29.2c-48.6,0-83.1,43.3-83.1,114.8c0,69,34.2,112.6,82.5,112.6c23.5,0,45.4-8.5,57.4-31v26h88.5V83.1
	H540.2z M0,300.2h95.3v-87.6l28.4-0.3c14.1,0,36.4-1.5,47.5-4.4c39.6-10.4,68-44.2,68-99.1c0-38-12.7-68.4-33.2-86.2
	C187.4,6.4,162,0,112,0H0V300.2z M104.1,78.4h7.6c19.1,0,31,6.5,31,27.2c0,19.5-10.6,28.5-31.4,28.5H94.7V78.4H104.1z M487.1,191.5
	c0-15.3,12.4-27.7,27.7-27.7s27.7,12.4,27.7,27.7c0,15.3-12.4,27.7-27.7,27.7C499.5,219.2,487.1,206.8,487.1,191.5
	C487.1,191.5,487.1,191.5,487.1,191.5"/>
</svg>
