<?xml version="1.0" encoding="utf-8"?>
<!-- Generator: Adobe Illustrator 27.0.0, SVG Export Plug-In . SVG Version: 6.00 Build 0)  -->
<svg version="1.1" id="Layer_1" xmlns="http://www.w3.org/2000/svg" xmlns:xlink="http://www.w3.org/1999/xlink" x="0px" y="0px"
	 viewBox="0 0 240 240" style="enable-background:new 0 0 240 240;" xml:space="preserve">
<style type="text/css">
	.st0{fill:none;}
</style>
<polygon points="101,122.9 114.3,122.9 107.7,101.2 "/>
<path d="M120,0.5C54,0.5,0.5,54,0.5,120S54,239.5,120,239.5S239.5,186,239.5,120S186,0.5,120,0.5 M62.7,142.8
	c-13.7,0-20-6.4-20.7-16.5h10.9c0.5,4.5,2.4,8.2,9.8,8.2c5,0,8.3-2.7,8.3-6.7c0-4-2.1-5.4-9.5-6.5c-12.8-1.7-18.1-5.5-18.1-15.2
	c0-8.5,7.1-14.9,18.2-14.9c11.3,0,17.9,5,18.8,15H70c-0.7-4.6-3.4-6.6-8.3-6.6c-5,0-7.5,2.3-7.5,5.7c0,3.6,1.6,5.3,9.3,6.4
	c12.1,1.5,18.3,4.8,18.3,15.2C81.9,135.7,74.6,142.8,62.7,142.8 M120.1,142l-3.4-11.1H98.6L95.2,142H84.5L101,92h14.8L132,142H120.1
	z M159.4,142h-13L129.7,92h12l11.9,38.4L165.4,92h10.6L159.4,142z M194.5,142h-11.4V92h11.4V142z"/>
<rect class="st0" width="240" height="240"/>
</svg>
