<?xml version="1.0" encoding="utf-8"?>
<!-- Generator: Adobe Illustrator 27.0.0, SVG Export Plug-In . SVG Version: 6.00 Build 0)  -->
<svg version="1.1" id="Layer_3" xmlns="http://www.w3.org/2000/svg" xmlns:xlink="http://www.w3.org/1999/xlink" x="0px" y="0px"
	 viewBox="0 0 100 100" style="enable-background:new 0 0 100 100;" xml:space="preserve">
<style type="text/css">
	.st0{fill:none;stroke:#000000;}
	.st1{fill:none;stroke:#1A1818;stroke-miterlimit:10;}
	.st2{fill:none;stroke:#1A1818;stroke-linejoin:round;stroke-miterlimit:10;}
	.st3{fill:none;stroke:#1A1818;stroke-width:0.9815;stroke-miterlimit:10;}
	.st4{fill:none;stroke:#1A1818;stroke-linecap:round;stroke-linejoin:round;}
	.st5{fill:#1A1818;}
</style>
<path class="st0" d="M44.2,38.5h12c3,0,5.5,2.5,5.5,5.5v12c0,3-2.5,5.5-5.5,5.5h-12c-3,0-5.5-2.5-5.5-5.5V44
	C38.7,41,41.2,38.5,44.2,38.5z"/>
<g id="Group_690_00000145745843160409402920000008460519073181857945_" transform="translate(-562 -12)">
	<g id="Group_685_00000014600417202831922020000017243969648596598418_" transform="translate(561.084 10.919)">
		<g id="Group_686_00000111880295928786537360000000974800053943300525_" transform="translate(3.031 2.794)">
			<path id="Path_1242_00000138545700486319673270000009782237354550480307_" class="st1" d="M48.1,38.2c0.4,0,1.3,0.3,1.6,0.5
				c1.5,0.6,2.5,1,3,1.2c0.5,0.3,0.9,0.4,1.1,0.9c0.1,0.9,0.1,1.9,0.2,2.7c0,0.9-0.4,1.4-1.4,1.4s-8.6,0-9.2,0c-0.6,0-0.8-0.2-0.9-1
				c-0.1-0.8,0-2.1,0-2.6s0.2-0.6,0.8-1c1.1-0.6,2.1-1,3.3-1.5C46.8,38.7,47.8,38.3,48.1,38.2z"/>
			<path id="Path_1247_00000151519905411942213990000001231662637036083856_" class="st2" d="M57.2,43.9c0-0.4,0.2-0.6,0.2-0.6
				l0.5,0c0,0,0.2,0.1,0.3,0.9c0.1,0.5,0.1,1,0,1.8c0,0.7-0.1,1.1-0.5,1.2c-0.2,0-0.3,0-0.4,0c-0.1,0-0.1-0.1-0.2-0.1"/>
			<path id="Path_1250_00000091693444424636650230000017122494390354091432_" class="st3" d="M48.2,38.1"/>
			<path id="Path_1250_00000165950535291745197190000004779414491120543932_" class="st3" d="M55.4,44.9c0,3.8-3.4,6.8-7.3,6.8
				c-3.7,0-6.9-3-6.9-6.8c0,0,0-0.9,0.1-1.5c0.3-1.4,0.8-3.1,0.9-3.5c0.2-0.5,0.6-1,0.9-1.1c1.4-0.3,3.4-0.7,4.9-0.8
				c1.4,0.2,4.8,0.7,5.3,0.8c0.5,0.1,0.8,0.7,1.1,1.6c0.3,0.6,0.5,1.9,0.8,3.1C55.4,44.2,55.4,44.9,55.4,44.9z"/>
			<path id="Path_1253_00000119087484295151321380000004351166324792172174_" class="st4" d="M38.7,43.4h-0.5c0,0-0.3,0.4-0.4,1.4
				c0,1,0.1,1.4,0.3,1.9c0.2,0,0.3,0,0.5,0c0.1-0.1,0.2-0.1,0.4-0.1c0.1,0,0.3,0,0.4,0c0.1,1,0.3,1.8,0.5,3c0.3,1.6,1.3,3.6,2,4.7
				c1.5,2.4,3.1,3.5,3.6,4.4c0.1,0.3,0.2,0.3,0.2,1l4.8,0c0,0,0-0.2,0-0.7c0-0.4,0.2-0.7,0.7-1.3c1.2-1.2,2.1-2.5,2.8-3.4
				c1.5-2.2,2.4-4.8,2.7-5.9c0.3-1.5,0.4-2.4,0.4-3.4c0-0.4,0-0.9-0.1-1.3c-0.1-0.2-0.4-0.2-0.4-0.2l-1.3,0c0.1,0.8,0.1,1.5,0,2.3
				c-0.3,1.9-1,4.1-2,5.7c-1.1,1.8-4.4,4.7-5.3,4.7c-0.9,0-2.9-1.8-4.3-3.7c-1.3-1.9-2-3.7-2.3-5.5c-0.2-1.1-0.3-1.9-0.3-2.5
				c0-0.6,0-0.7-0.1-1h-1.8c-0.1,0.2-0.3,0.8-0.3,1.9c0,0.7,0.2,0.8,0.3,1.1"/>
		</g>
	</g>
</g>
<circle class="st5" cx="48.1" cy="43.7" r="1.4"/>
<circle class="st5" cx="52.2" cy="43.6" r="1.4"/>
</svg>
