<?xml version="1.0" encoding="utf-8"?>
<!-- Generator: Adobe Illustrator 27.2.0, SVG Export Plug-In . SVG Version: 6.00 Build 0)  -->
<svg version="1.1" id="home_white" xmlns="http://www.w3.org/2000/svg" xmlns:xlink="http://www.w3.org/1999/xlink" x="0px" y="0px"
	 viewBox="0 0 24 24" style="enable-background:new 0 0 24 24;" xml:space="preserve">
<style type="text/css">
	.st0{fill:none;stroke:#000000;}
	.st1{fill:none;stroke:#1A1818;stroke-miterlimit:10;}
	.st2{fill:none;stroke:#1A1818;stroke-width:0.75;stroke-miterlimit:10;}
	.st3{fill:#1A1818;}
	.st4{fill:none;stroke:#1A1818;stroke-width:0.56;stroke-miterlimit:10;}
	.st5{fill:none;stroke:#1A1818;stroke-linecap:round;stroke-linejoin:round;}
	.st6{fill:none;stroke:#1A1818;stroke-width:0.75;stroke-linecap:round;stroke-linejoin:round;}
</style>
<path class="st0" d="M6,0.5h12c3,0,5.5,2.5,5.5,5.5v12c0,3-2.5,5.5-5.5,5.5H6c-3,0-5.5-2.5-5.5-5.5V6C0.5,3,3,0.5,6,0.5z"/>
<g id="Group_685_00000040573417491633910020000017888779996977186981_" transform="translate(561.084 10.919)">
	<g id="Group_686_00000087378306655997892350000001387088886016160949_" transform="translate(3.031 2.794)">
		<path id="Path_1242_00000085954393186421295200000004422778456213799358_" class="st1" d="M-552.2-12.5c1,0,4.1,1.5,4.6,1.7
			c0.5,0.2,0.8,0.3,1,0.8c0.3,0.8,0.4,1.6,0.3,2.5c-0.1,0.8-0.3,1.9-1.3,1.9c-1,0-8.4,0-9,0s-0.9-0.5-1-1.3s-0.1-1.9-0.1-2.4
			s0.5-1.2,1.1-1.6C-555.2-11.6-553.7-12.2-552.2-12.5z"/>
		<path id="Path_1243_00000098925756554232709080000010713879286309023673_" class="st2" d="M-556.9-11.8c0.3-0.1,0.6-0.2,0.9-0.3
			c1.4-0.3,2.8-0.5,4.2-0.6c0.7,0.1,1.5,0.2,2.2,0.3c0.9,0.1,1.8,0.4,2.7,0.7c0.2,0.1,0.2,0.2,0.4,0.4c0.7,1.3,1.2,2.6,1.5,4.1
			c0.2,1.1,0.2,2.1,0.1,3.2c-0.4,2.2-1.4,4.3-2.8,6.1c-0.9,1.4-2.2,2.5-3.6,3.3c-0.6,0.3-1.2,0.2-2-0.3c-0.7-0.4-1.3-1-1.9-1.5
			c-0.7-0.7-1.3-1.5-1.8-2.4c-0.9-1.4-1.6-3-1.9-4.6c-0.1-0.9-0.2-1.8-0.2-2.7c0.1-0.7,0.2-1.4,0.4-2.1c0.3-1.1,0.8-2.1,1.3-3.1
			C-557.3-11.5-557.1-11.6-556.9-11.8z"/>
		<path id="Path_1244_00000032611856411441197790000009941141638634835617_" class="st3" d="M-551.4-8.9c0.2-0.9,1-1.5,1.9-1.3
			c0.9,0.1,1.5,0.9,1.3,1.8l0,0c-0.2,0.9-1,1.5-1.9,1.3C-550.9-7.2-551.5-8-551.4-8.9C-551.4-8.8-551.4-8.9-551.4-8.9"/>
		<path id="Path_1245_00000029019046030584992970000004733917000542983331_" class="st4" d="M-551.4-8.9c0.2-0.9,1-1.5,1.9-1.3
			c0.9,0.1,1.5,0.9,1.3,1.8l0,0c-0.2,0.9-1,1.5-1.9,1.3C-550.9-7.2-551.5-8-551.4-8.9C-551.4-8.8-551.4-8.9-551.4-8.9z"/>
		<path id="Path_1246_00000010286785076194421360000012133233798028899484_" class="st5" d="M-561.3-7.2h-0.5c0,0-0.3,0.3-0.3,1.7
			c-0.1,0.5,0,1.1,0.2,1.6c0.2,0,0.3,0,0.5,0C-561.3-4-561.2-4-561-4c0.1,0,0.3,0,0.4,0c0.1,1,0.3,2,0.5,3c0.4,1.3,0.9,2.5,1.5,3.7
			s1.5,2.3,2.4,3.2c0.8,0.7,1.4,1.5,1.9,2.4c0.1,0.3,0.1,0.6,0,0.9h4.6c0,0,0-0.4,0-0.9s1.3-1.6,2.4-3.1c1-1.1,1.8-2.3,2.5-3.6
			c0.7-1.4,1.2-2.8,1.5-4.3c0.2-0.9,0.3-1.8,0.3-2.8c0-0.4,0-0.9-0.1-1.3c-0.1-0.2-0.5-0.2-0.5-0.2h-1.2c0.1,0.8,0.1,1.5,0,2.3
			c-0.3,1.9-1,3.8-2,5.4c-1.1,1.8-3.9,4.8-4.8,4.8c-0.9,0-3-1.5-4.3-3.4c-1.3-1.9-2.2-3.9-2.6-6.1c-0.2-0.7-0.2-1.3-0.3-2
			c0-0.3,0-0.7-0.1-1h-1.8c-0.1,0.2-0.2,0.3-0.2,0.4"/>
		<path id="Path_1247_00000065043198408962865980000017295229491362158779_" class="st1" d="M-543.3-6.5c0-0.5,0.4-0.4,0.8-0.2
			c0.3,0.2,0.5,0.5,0.4,1.5c-0.1,1-0.1,1.6-0.4,1.6c-0.2,0.1-0.5,0-0.8,0"/>
		<path id="Path_1248_00000122699915272330443400000006811791041879986619_" class="st3" d="M-554-10.2c0.9,0,1.6,0.7,1.6,1.6
			S-553.1-7-554-7c-0.9,0-1.6-0.7-1.6-1.6S-554.9-10.2-554-10.2L-554-10.2"/>
		<path id="Path_1249_00000034805428652634624070000011585940557838039471_" class="st4" d="M-554-10.2c0.9,0,1.6,0.7,1.6,1.6
			S-553.1-7-554-7c-0.9,0-1.6-0.7-1.6-1.6S-554.9-10.2-554-10.2L-554-10.2z"/>
		<path id="Path_1250_00000183938862266682380550000010993977203510467773_" class="st1" d="M-552.1-12.5c1.7,0.1,3.3,0.6,4.5,1.6
			c1.7,1.2,2.6,3.3,2.5,5.4c0,3.9-3.2,7-7,7s-7-3.1-7-7S-556-12.5-552.1-12.5L-552.1-12.5z"/>
		<path id="Path_1252_00000087389761252649666810000002334094209422613383_" class="st3" d="M-550.2-1.2h-3.9
			c-0.1,0-0.2-0.1-0.2-0.2l0,0v-2.1c0-0.1,0.1-0.2,0.2-0.2l4-0.1c0.1,0,0.2,0.1,0.2,0.2l0,0v2.1C-550-1.3-550.1-1.2-550.2-1.2
			L-550.2-1.2"/>
		<path id="Path_1253_00000146496477843080623750000001556782647941034120_" class="st6" d="M-561-6.5c-0.1,0.5-0.1,0.9-0.1,1.4
			c0,0.4,0,0.8,0.2,1.2"/>
	</g>
</g>
</svg>
