<?xml version="1.0" encoding="utf-8"?>
<!-- Generator: Adobe Illustrator 27.0.0, SVG Export Plug-In . SVG Version: 6.00 Build 0)  -->
<svg version="1.1" xmlns="http://www.w3.org/2000/svg" xmlns:xlink="http://www.w3.org/1999/xlink" x="0px" y="0px"
	 viewBox="0 0 100 100" style="enable-background:new 0 0 100 100;" xml:space="preserve">
<style type="text/css">
	.st0{display:none;}
	.st1{display:inline;fill:none;stroke:#000000;stroke-linecap:round;stroke-linejoin:round;}
	.st2{display:inline;}
	.st3{fill:none;stroke:#000000;stroke-linecap:round;stroke-linejoin:round;}
	.st4{fill:none;stroke:#0D0D0D;stroke-linecap:round;}
	.st5{fill:#0D0D0D;}
	.st6{fill:none;stroke:#FFFFFF;stroke-linecap:round;stroke-linejoin:round;}
	.st7{fill:none;stroke:#000000;}
	.st8{fill:none;stroke:#1A1818;stroke-miterlimit:10;}
	.st9{fill:none;stroke:#1A1818;stroke-linejoin:round;stroke-miterlimit:10;}
	.st10{fill:none;stroke:#1A1818;stroke-width:0.9815;stroke-miterlimit:10;}
	.st11{fill:none;stroke:#1A1818;stroke-linecap:round;stroke-linejoin:round;}
	.st12{fill:#1A1818;}
</style>
<g id="Layer_1" class="st0">
	<path class="st1" d="M44.3,38.5h12c3,0,5.5,2.5,5.5,5.5v12c0,3-2.5,5.5-5.5,5.5h-12c-3,0-5.5-2.5-5.5-5.5V44
		C38.8,41,41.3,38.5,44.3,38.5z"/>
	<g id="Group_682" transform="translate(-577 -4156)" class="st2">
		<path id="Path_1238" class="st3" d="M633.9,4204.9l-6.8-6.7l-6.7,6.7"/>
		<path id="Path_1239" class="st3" d="M632.5,4203.7v8.6h-10.7v-8.6"/>
	</g>
</g>
<g id="Layer_4" class="st0">
	<g id="Component_36_12" transform="translate(0.707 0.707)" class="st2">
		<g id="Component_35_2">
			<path id="Path_137" class="st4" d="M44.4,44.7l10.8,10.8"/>
		</g>
		<path id="Path_138" class="st4" d="M55.2,44.7L44.4,55.5"/>
	</g>
</g>
<g id="Layer_5" class="st0">
	<g id="Group_658" class="st2">
		<path id="Rectangle_69" class="st5" d="M44.5,38.1h24.9l0.2,24H44.5c-3.3,0-6-2.7-6-6v-12C38.5,40.8,41.2,38.1,44.5,38.1z"/>
		<path id="Path_159" class="st6" d="M51.5,42.2l-7.6,8l7.8,7.8"/>
	</g>
</g>
<g id="Layer_6" class="st0">
	<path id="Path_159_00000034083982769043757540000017694164417383338647_" class="st1" d="M51.5,42.2l-7.6,8l7.8,7.8"/>
</g>
<g id="Layer_7" class="st0">
	<path id="Path_159_00000106848283228107268390000005928015756737274540_" class="st1" d="M42.5,46.4l8,7.6l7.8-7.8"/>
</g>
<g id="Layer_8" class="st0">
	<path id="Path_159_00000037663722711205841030000007231616532126549424_" class="st1" d="M46.6,58l7.6-8l-7.8-7.8"/>
</g>
<g id="Layer_9" class="st0">
	<path id="Path_159_00000109016437539426353890000005212011896397562029_" class="st1" d="M58.3,53.8l-8-7.6L42.5,54"/>
</g>
<g id="Layer_3">
	<path class="st7" d="M44.2,38.5h12c3,0,5.5,2.5,5.5,5.5v12c0,3-2.5,5.5-5.5,5.5h-12c-3,0-5.5-2.5-5.5-5.5V44
		C38.7,41,41.2,38.5,44.2,38.5z"/>
	<g id="Group_690_00000145745843160409402920000008460519073181857945_" transform="translate(-562 -12)">
		<g id="Group_685_00000014600417202831922020000017243969648596598418_" transform="translate(561.084 10.919)">
			<g id="Group_686_00000111880295928786537360000000974800053943300525_" transform="translate(3.031 2.794)">
				<path id="Path_1242_00000138545700486319673270000009782237354550480307_" class="st8" d="M48.1,38.2c0.4,0,1.3,0.3,1.6,0.5
					c1.5,0.6,2.5,1,3,1.2c0.5,0.3,0.9,0.4,1.1,0.9c0.1,0.9,0.1,1.9,0.2,2.7c0,0.9-0.4,1.4-1.4,1.4s-8.6,0-9.2,0
					c-0.6,0-0.8-0.2-0.9-1c-0.1-0.8,0-2.1,0-2.6s0.2-0.6,0.8-1c1.1-0.6,2.1-1,3.3-1.5C46.8,38.7,47.8,38.3,48.1,38.2z"/>
				<path id="Path_1247_00000151519905411942213990000001231662637036083856_" class="st9" d="M57.2,43.9c0-0.4,0.2-0.6,0.2-0.6
					l0.5,0c0,0,0.2,0.1,0.3,0.9c0.1,0.5,0.1,1,0,1.8c0,0.7-0.1,1.1-0.5,1.2c-0.2,0-0.3,0-0.4,0c-0.1,0-0.1-0.1-0.2-0.1"/>
				<path id="Path_1250_00000091693444424636650230000017122494390354091432_" class="st10" d="M48.2,38.1"/>
				<path id="Path_1250_00000165950535291745197190000004779414491120543932_" class="st10" d="M55.4,44.9c0,3.8-3.4,6.8-7.3,6.8
					c-3.7,0-6.9-3-6.9-6.8c0,0,0-0.9,0.1-1.5c0.3-1.4,0.8-3.1,0.9-3.5c0.2-0.5,0.6-1,0.9-1.1c1.4-0.3,3.4-0.7,4.9-0.8
					c1.4,0.2,4.8,0.7,5.3,0.8c0.5,0.1,0.8,0.7,1.1,1.6c0.3,0.6,0.5,1.9,0.8,3.1C55.4,44.2,55.4,44.9,55.4,44.9z"/>
				<path id="Path_1253_00000119087484295151321380000004351166324792172174_" class="st11" d="M38.7,43.4h-0.5c0,0-0.3,0.4-0.4,1.4
					c0,1,0.1,1.4,0.3,1.9c0.2,0,0.3,0,0.5,0c0.1-0.1,0.2-0.1,0.4-0.1c0.1,0,0.3,0,0.4,0c0.1,1,0.3,1.8,0.5,3c0.3,1.6,1.3,3.6,2,4.7
					c1.5,2.4,3.1,3.5,3.6,4.4c0.1,0.3,0.2,0.3,0.2,1l4.8,0c0,0,0-0.2,0-0.7c0-0.4,0.2-0.7,0.7-1.3c1.2-1.2,2.1-2.5,2.8-3.4
					c1.5-2.2,2.4-4.8,2.7-5.9c0.3-1.5,0.4-2.4,0.4-3.4c0-0.4,0-0.9-0.1-1.3c-0.1-0.2-0.4-0.2-0.4-0.2l-1.3,0c0.1,0.8,0.1,1.5,0,2.3
					c-0.3,1.9-1,4.1-2,5.7c-1.1,1.8-4.4,4.7-5.3,4.7c-0.9,0-2.9-1.8-4.3-3.7c-1.3-1.9-2-3.7-2.3-5.5c-0.2-1.1-0.3-1.9-0.3-2.5
					c0-0.6,0-0.7-0.1-1h-1.8c-0.1,0.2-0.3,0.8-0.3,1.9c0,0.7,0.2,0.8,0.3,1.1"/>
			</g>
		</g>
	</g>
	<circle class="st12" cx="48.1" cy="43.7" r="1.4"/>
	<circle class="st12" cx="52.8" cy="43.6" r="1.4"/>
</g>
</svg>
