<?xml version="1.0" encoding="utf-8"?>
<!-- Generator: Adobe Illustrator 27.0.0, SVG Export Plug-In . SVG Version: 6.00 Build 0)  -->
<svg version="1.1" id="Layer_1" xmlns="http://www.w3.org/2000/svg" xmlns:xlink="http://www.w3.org/1999/xlink" x="0px" y="0px"
	 viewBox="0 0 1407.9 940.1" style="enable-background:new 0 0 1407.9 940.1;" xml:space="preserve">
<style type="text/css">
	.st0{fill:none;stroke:#231F20;stroke-width:1.8308;stroke-miterlimit:10;}
	.st1{fill:none;stroke:#231F20;stroke-width:1.3731;stroke-miterlimit:10;}
	.st2{fill:none;stroke:#231F20;stroke-width:0.9154;stroke-miterlimit:10;}
	.st3{fill:none;stroke:#231F20;stroke-width:0.9154;stroke-miterlimit:10.0002;}
	.st4{fill:none;stroke:#231F20;stroke-width:0.8952;stroke-miterlimit:10;}
	.st5{fill:none;stroke:#231F20;stroke-width:0.9154;stroke-linecap:round;stroke-linejoin:round;stroke-miterlimit:10;}
	.st6{fill:none;stroke:#231F20;stroke-width:1.1707;stroke-linecap:round;stroke-linejoin:round;stroke-miterlimit:10;}
	.st7{fill:none;stroke:#231F20;stroke-width:0.8389;stroke-miterlimit:10;}
	.st8{fill:none;stroke:#231F20;stroke-width:0.9975;stroke-miterlimit:10;}
	.st9{fill:none;stroke:#231F20;stroke-width:0.691;stroke-miterlimit:10;}
	.st10{fill:none;stroke:#231F20;stroke-miterlimit:10;}
	.st11{fill:none;stroke:#231F20;stroke-width:1.21;stroke-miterlimit:10;}
	.st12{fill:none;stroke:#231F20;stroke-width:0.9075;stroke-miterlimit:10;}
	.st13{fill:none;stroke:#231F20;stroke-width:0.605;stroke-miterlimit:10;}
	.st14{fill:none;stroke:#231F20;stroke-width:0.605;stroke-miterlimit:10.0002;}
	.st15{fill:none;stroke:#231F20;stroke-width:0.5917;stroke-miterlimit:10;}
	.st16{fill:none;stroke:#231F20;stroke-linecap:round;stroke-linejoin:round;stroke-miterlimit:10;}
	.st17{fill:none;stroke:#231F20;stroke-width:0.605;stroke-linecap:round;stroke-linejoin:round;stroke-miterlimit:10;}
	.st18{fill:none;stroke:#231F20;stroke-width:0.7738;stroke-linecap:round;stroke-linejoin:round;stroke-miterlimit:10;}
	.st19{fill:none;stroke:#231F20;stroke-width:0.5545;stroke-miterlimit:10;}
	.st20{fill:none;stroke:#231F20;stroke-width:0.6593;stroke-miterlimit:10;}
	.st21{fill:none;stroke:#231F20;stroke-width:0.4567;stroke-miterlimit:10;}
</style>
<path class="st0" d="M490.1-504.2"/>
<path class="st0" d="M1331,575.8"/>
<g>
	<path class="st1" d="M936.8,324.9"/>
	<path class="st2" d="M968,305.5c24.4-6.9,58.3-17.2,108.3-16.5c15.3,0.2,35.1,1.7,49.1,3.9c31.9,4.9,52.8,12.9,57.1,14.8
		c4.1,1.8,5.1,4.3,7.5,7.9c10.9,16.5,27.1,56,32.7,87.4c2.1,11.9,6.1,46,2.8,68.1c-7.2,48.6-34.8,99.2-59,131.1
		c-35.2,46.4-73.8,69.3-77.6,70.8c-3.8,1.5-12.9,10.1-31.4-1.6c-9.9-6.3-30.5-20.5-49.6-38.5c-15.9-15-30.2-32.7-41.1-50.4
		c-23.8-38.9-37.9-76.9-41.7-98.4c-2-11.6-4.9-36-3.6-57.8c1.1-18.6,6.2-34.8,8.6-45.5c4.1-18.2,19-48.9,27.3-65.7
		C959.7,310.5,968,305.5,968,305.5z"/>
	<circle class="st2" cx="1074" cy="442.9" r="145.5"/>
	
		<ellipse transform="matrix(0.1602 -0.9871 0.9871 0.1602 508.6744 1342.6752)" class="st2" cx="1043.4" cy="372.4" rx="26.2" ry="26.2"/>
	<circle class="st2" cx="1077.7" cy="326.9" r="15.9"/>
	<circle class="st2" cx="1044.5" cy="370.6" r="20.5"/>
	
		<ellipse transform="matrix(0.1602 -0.9871 0.9871 0.1602 565.6307 1409.7351)" class="st3" cx="1111.3" cy="372.5" rx="26.2" ry="26.2"/>
	<circle class="st2" cx="1114.1" cy="369.9" r="20.5"/>
	<circle class="st2" cx="1044.5" cy="370.7" r="17.3"/>
	<ellipse class="st4" cx="1114.1" cy="369.9" rx="17.3" ry="16.5"/>
	<circle class="st2" cx="1043.1" cy="371.8" r="9.9"/>
	<circle class="st2" cx="1112" cy="371.8" r="9.9"/>
	<circle class="st2" cx="1079.4" cy="471.2" r="12.6"/>
	<circle class="st2" cx="1050.3" cy="446" r="12.6"/>
	<ellipse class="st2" cx="1046" cy="374.2" rx="14.4" ry="13.7"/>
	<path class="st2" d="M1077.7,373.1c2.4-0.3,3.6,0.7,5.9,7.1c2.3,6.5,10.2,25.2,11.3,27.3c1.1,2.1,2.3,3.2,5.2,3.7
		c2.8,0.5,18.3-2.5,23.6-4.1c5.3-1.7,13.5-5.5,18-11.5c3.1-4.2,9-17.3,7-29.9s-8.1-18.9-13-22.8s-18.6-3.9-23.7-7.3
		c-5.1-3.3-10.6-9-11.4-10.5s-1.3-5-1.3-5l-15.8-14.6l-18.4,2.7l-5.4,6.5c0,0-6.6,16.3-10.8,17.8c-4.2,1.5-24.4,5.3-32.9,12.3
		s-13.8,23.3-11.6,32.3c2.9,11.9,8.6,19.7,16.2,24.6c8.9,5.7,19,10.8,26.6,9.9c7.6-0.8,11.5-2,14.6-6.3c3-4.3,8.5-18.6,9.5-23.6
		C1072.3,376.6,1074.5,373.5,1077.7,373.1z"/>
	<path class="st2" d="M1046,309c4.8-2.5,28.8-9.1,35.8-6.9c6.9,2.2,28,2.5,29.5,6.9s-0.6,11.2,3.9,12c4.5,0.7,20.7-1,27.7,3.2
		s20.2,5.2,21.7,17.5s4.5,33.2,4.5,36.2s-3.2,16.7-9,20.8c-5.7,4.1-19.2,10-26.9,13.1c-7.7,3.2-30.2,1.4-32.9,1.2
		c-2.7-0.2-35.7,0-36.3,0s-30.6-0.2-30.6-0.2s-5.7-0.2-12.5-1.1c-7-0.9-10.1-1.4-15.6-3.2c-5.5-1.8-11.4-4.8-16.2-14.2
		c-2-3.8-1.7-33.2-2-42.1c-0.2-9,7.2-15.7,16.6-22.7c9.4-7,27.8-6.2,34-7.7C1043.8,320.2,1044.8,312,1046,309"/>
	<path class="st2" d="M1120.7,546.3l-86.4,3.2c-2.3,0.1-4.2-1.7-4.2-4l-0.1-48.9c0-1.9,1.5-3.5,3.5-3.6l87.9-3.2
		c2.1-0.1,3.9,1.6,3.9,3.7l0.1,48C1125.4,544.1,1123.3,546.2,1120.7,546.3z"/>
	<g>
		<path class="st2" d="M1126.9,451.4c4.3-3,6.7-8.5,6.7-8.5c2-4.9,3.5-17.1,1.9-20.1s-7.6-1.1-7.6-1.1c-0.2,1.1-0.6,3-1.2,5.2"/>
		<path class="st2" d="M1108.7,466.8c-8.2,6.5-9.7,8.2-10.5,8.7c-0.7,0.5-9.5,9.5-23.2,12s-22.8-3-25.6-8.9
			c-3.4-7.2-2.4-13.8-2.1-15.3s10.7,4.3,16.6-1.4c3.8-3.7,7.8-8.7,17.3-8c7.4,0.6,10.7,5.2,11.3,4.7c0.6-0.5,12.1-4.5,21.5-9.7
			c5.2-2.9,7.5-4.9,9.2-9.9c1.1-3.2,2.5-8.1,3.5-12l-0.1-5.3c0-1.6-1.3-2.9-2.9-2.8l-96,1.6c-2.1-0.2-2.8,0.4-2.8,1.4V551
			c0,1.1,0.9,2,2,2l98.9-2.2c1.2,0,2.1-1,2.1-2.1l-0.9-97.1c-0.1,0.1-0.2,0.2-0.3,0.2C1122.2,454.6,1116.9,460.3,1108.7,466.8z"/>
		<path class="st2" d="M1126.7,426.9c-1,3.9-2.4,8.8-3.5,12c-1.7,5-4,7-9.2,9.9c-9.4,5.2-20.9,9.2-21.5,9.7s-3.9-4.1-11.3-4.7
			c-9.5-0.8-13.5,4.3-17.3,8c-5.8,5.7-16.3,0-16.6,1.4c-0.3,1.6-1.3,8.2,2.1,15.3c2.8,5.9,11.9,11.4,25.6,8.9s22.4-11.5,23.2-12
			c0.7-0.5,2.2-2.2,10.5-8.7c8.2-6.5,13.5-12.2,18-15.2c0.1-0.1,0.2-0.1,0.3-0.2"/>
	</g>
	<circle class="st2" cx="1050.3" cy="445" r="14.8"/>
	<path class="st5" d="M874.5,406.5h-8.7c0,0-7.4,5.2-8.5,35.3c-0.8,21,1.9,34.6,3.8,36.9l10.1-0.2c0,0-2.6-6.6-3.5-26.8
		C867.1,438,868.1,414.8,874.5,406.5z"/>
	<path class="st5" d="M916.7,412.5h-31.8c0,0-3.4,1.3-4.1,6.2c-0.3,2.2-0.7,6-0.9,11.5c-0.3,6.2-0.3,31.7-0.3,31.7s0.1,7.8,2.7,10.2
		c2.6,2.4,4.8,3.9,4.8,3.9s3.3,35.1,10.7,65.3c4.2,17.2,14.5,47.6,32.8,84c16.9,33.5,37.5,57.9,53.5,77.1
		c22.9,27.6,41.7,34.4,40.7,43.9s-2.5,49.4-2.5,49.4s-4.2,11.5,7.7,17.5c11.8,6,49.7,12,70.2,6s22.4-15.5,22.4-15.5v-63.8
		c0,0,46.6-46,53.9-55.5c11.5-15.1,27.4-35.8,43-69.7c22.5-49,34.1-102.4,37.8-130.9c1.5-11.9-1.1-6.6,5-12.6
		c2.1-2.1,4.4-8.4,4.9-16.8c0.5-8.5,0.5-14.3,0.1-20.3c-0.2-4.2-2.4-13.9-5.4-17.8c-2.7-3.7-10.3-3.4-10.3-3.4l-26.4,0.7
		c0,0,5.4,5.3,5.7,19.9c0.1,5.8,1,26.3-1,34.7c-2,8.5,1,13,1,13s-5.7,31-9.6,46.9c-5.5,22.6-33.6,77.5-57.3,109.2
		c-14.8,19.8-48.1,51.4-62,59.9c-13.8,8.5-15.6,10.2-28.4,11c-16.8,1-29.5-6-40.4-14.5S980,646,962,614.9
		c-21.8-37.6-47.4-103.7-46.9-131.5c0.1-3.4,2.4-6.8,2.4-6.8l-0.2-4.2c0,0-1.8-25.4-1.7-36C915.8,421.3,916.7,412.5,916.7,412.5z"/>
	<path class="st2" d="M871.2,478.5c0.6,0,2.1-2,2.7-4.7c0.8-3.6,1.3-9.1,1.3-9.1s-3.4-6.4-3.2-20.2c0.2-13.8,1.6-22.9,2.3-23.1
		s0.9-1,0.9-1l-0.8-14.1"/>
	<line class="st5" x1="874.3" y1="421.6" x2="879.6" y2="421.8"/>
	<line class="st5" x1="875.1" y1="464.5" x2="880.5" y2="464.7"/>
	<path class="st6" d="M916.7,412.5c0,0,1,5.5,2,5.3s2.5,0,2.5,0"/>
	<path class="st5" d="M917.2,470.5l6.1,8.1l-4.4-11c0,0-0.5-22.1-1-28.4s1-17.6,1-17.6"/>
	<path class="st5" d="M1013.2,479.4h-65.7l0.1-11c0,0,3.9-0.7,4-6.1c0.1-4.4-4-6-4-6l-0.1-11.4h65.7l0.1,11.1c0,0-4.7,0.9-4.4,6.6
		c0.2,3.4,4.4,4.7,4.4,4.7L1013.2,479.4z"/>
	<path class="st5" d="M1204.5,479.4h-65.7l0.1-11c0,0,3.9-0.7,4-6.1c0.1-4.4-4-6-4-6l-0.1-11.4h65.7l0.1,11.1c0,0-4.7,0.9-4.4,6.6
		c0.2,3.4,4.4,4.7,4.4,4.7L1204.5,479.4z"/>
	<circle class="st7" cx="1078" cy="327.3" r="14.6"/>
	<path class="st2" d="M1005.9,327.3c0,0-8.8,1.7-16.5,7.2c-7.7,5.6-14.3,15-14.4,15.6c-0.2,1.2-3.6,11.2-3.6,19.8s3.4,37.5,4.8,39.3
		c2,2.4,14,8.8,17,8.6c3-0.2,20,0.4,24,0s24.2,0.7,24.9,0s84.5-1.4,84.5-1.4s25.5-0.4,31.3-1.6c5.7-1.3,15.1-9.9,16.9-13.2
		c2.9-5.4,5.8-23.4,5.8-23.4s0.9-16.6-4.1-23.6s-5.7-10.5-7.4-12.7c-1.7-2.2-6-5.3-6-5.3"/>
	<polyline class="st2" points="1059.6,314.6 1056.8,334.4 1069.6,349.4 1093.6,344.1 1099.2,320.1 	"/>
	<circle class="st8" cx="1074" cy="442.9" r="152.7"/>
	<path class="st6" d="M1272.7,409l10.4-0.5c0,0,3.2,2.1,5,8.2c1.5,5,2,9.1,2.6,20.6s-0.7,22.4-1.7,27.4s-2.5,10.4-5.2,13.4
		c-0.7,0.3-10.7,0-10.7,0"/>
	<path class="st6" d="M1266.2,422.4"/>
	<line class="st6" x1="1266.2" y1="422.4" x2="1268.2" y2="422.4"/>
	<line class="st6" x1="1266.3" y1="465.3" x2="1268.5" y2="465.4"/>
	<path class="st5" d="M1073.6,467.2c-0.9,0.2-0.9-2.2,1.3-2.2c1.9,0,2.9,2.7,1.2,4.2c-2.4,2.1-3,2.6-3.2,3.8
		c-0.2,1.1-0.1,1.2-0.1,1.2h4.4"/>
	<path class="st5" d="M1081.9,465.7h-3.5v3.8h0.4c0,0,0.9-1.3,2.4-0.7c1.5,0.7,1.6,2.7,1.4,3.6c-0.3,1.1-1,2-2.3,2.1s-2-1-2-1.6
		s0.4-1.1,0.9-0.9s0.3,0.7,0.3,0.7"/>
	<path class="st5" d="M1087.2,468.5c0,0,0.4-0.1-0.2-0.7s-1.6-0.6-2.1-0.1s-0.8,1.3-0.7,2.5c0.1,1.2,0.9,1.8,1.7,1.8
		c0.9,0,1.3-0.8,1.3-1.2"/>
	<line class="st5" x1="1085.8" y1="465.5" x2="1085.8" y2="467.3"/>
	<path class="st5" d="M1073.6,477.6c0,0,2.9,2.8,6.4,2.6c3.5-0.2,5-1.8,5.8-2.6"/>
	<path class="st5" d="M1073.8,462.6c0,0,2.6-1.9,5.3-1.9c2.5,0,5.4,1,6.2,1.9"/>
	<line class="st5" x1="1085.8" y1="474.3" x2="1085.8" y2="472"/>
	<path class="st5" d="M1011.4,796.4c-17.8,6.7-28.6,16.8-31,22.3c-3.2,7.4-2.2,13.2,2.5,17.5c8.5,7.8,25.8,16.6,52.3,21.3
		c24.4,4.3,42.5,4.2,65.2,1.8c27.1-2.9,42.8-10.6,48.6-14.4c5.8-3.8,18.9-12.4,12.9-26.5c-4.5-10.5-12.8-15-24.5-19.9
		c-3.5-1.5-12-3.7-12-3.7s9.2,5.8,7.8,15c-1.2,7.6-9.6,15.1-26.2,19.1c-19.3,4.6-43,4.6-60.6,0.9c-16.7-3.5-31.7-11-33.6-19.3
		c-1.5-6.9,1.2-10.4,3.2-12.4s6.4-3.6,6.4-3.6l0.1-2.2L1011.4,796.4z"/>
	<path class="st5" d="M1014.4,800.1c-9.2,2.9-16.5,10.1-18.1,12.9c-1.8,3-6,10.3,5.6,18.2c11.1,7.6,32.3,15.7,57.2,17.7
		c31.8,2.5,55.2-5,65.8-9c13.5-5.1,23.7-14.5,24.7-20.2c1-5.9-2-9.5-7.7-13.2"/>
	<path class="st5" d="M1009.6,797.1c-17.8,6.7-24.3,14.8-29.2,21.6c-4.7,6.6-1.9,14.9,2.5,19.4s16.5,14.6,50.8,21.3
		c25.3,4.9,43.2,4.8,65.9,2.3c27.1-2.9,43.6-11.1,49.5-14.9s18.9-14.3,12.9-28.5c-4.5-10.5-10.2-13.9-21.9-18.8
		c-3.5-1.5-14.6-4.8-14.6-4.8s12,5.7,8.1,20.3c-2,7.4-9.7,14.8-26.3,18.8c-19.3,4.6-43.6,6-61.2,2.3c-16.7-3.5-32.6-10.9-33.8-19.3
		c-1.7-12.4,1.3-15.7,2.5-17.5c1.7-2.6,7.7-5,7.7-5l0.1-2.2L1009.6,797.1z"/>
	<line class="st2" x1="989.7" y1="342.8" x2="974.1" y2="353.4"/>
	<line class="st2" x1="989" y1="394.3" x2="976.3" y2="409.2"/>
	<line class="st2" x1="1160.1" y1="398.6" x2="1164.3" y2="411.6"/>
	<circle class="st9" cx="951.3" cy="383.6" r="2"/>
	<circle class="st9" cx="955.2" cy="391" r="2"/>
	<circle class="st9" cx="958.3" cy="383.6" r="2"/>
	<circle class="st9" cx="968.3" cy="378.9" r="2"/>
	<circle class="st9" cx="965" cy="384.9" r="2"/>
	<circle class="st9" cx="962.5" cy="376.9" r="2"/>
	<circle class="st9" cx="954.3" cy="376.9" r="2"/>
	<circle class="st9" cx="958.3" cy="370.7" r="2"/>
	<circle class="st9" cx="966.3" cy="369.7" r="2"/>
	<circle class="st9" cx="963.8" cy="364.5" r="2"/>
	<circle class="st9" cx="947.5" cy="391.1" r="2"/>
	<circle class="st9" cx="947.5" cy="398.6" r="2"/>
	<circle class="st9" cx="961.8" cy="391" r="2"/>
	<circle class="st9" cx="967.6" cy="394.3" r="2"/>
	<circle class="st9" cx="954.3" cy="398.6" r="2"/>
	<circle class="st9" cx="952.3" cy="412.5" r="2"/>
	<circle class="st9" cx="958.3" cy="405.3" r="2"/>
	<circle class="st9" cx="967" cy="400.6" r="2"/>
	<circle class="st9" cx="960.6" cy="398.6" r="2"/>
	<circle class="st9" cx="951.3" cy="404.6" r="2"/>
	<circle class="st9" cx="946.5" cy="417.9" r="2"/>
	<circle class="st9" cx="940.1" cy="422.8" r="2"/>
	<circle class="st9" cx="954.3" cy="420.5" r="2"/>
	<circle class="st9" cx="959.8" cy="413.7" r="2"/>
	<circle class="st9" cx="965.9" cy="407.6" r="2"/>
	<circle class="st9" cx="947.1" cy="426.2" r="2"/>
	<circle class="st9" cx="940" cy="432" r="2"/>
	<circle class="st9" cx="945.5" cy="409.2" r="2"/>
	<circle class="st9" cx="942.1" cy="403.3" r="2"/>
	<circle class="st9" cx="939.5" cy="413.7" r="2"/>
	<path class="st10" d="M982.9,838.1c0,0,9.9,7.5,9.9,24.6c0,5.8,0.2,18.3,0.2,43.7c0,19.3-0.5,37.9-0.5,37.9h155.2
		c0,0,0.4-70.2,0.4-80.2c0-13,7.9-22.9,7.9-22.9"/>
	<circle class="st9" cx="1002.7" cy="512.7" r="2"/>
	<circle class="st9" cx="1006.7" cy="520.1" r="2"/>
	<circle class="st9" cx="1009.8" cy="512.7" r="2"/>
	<circle class="st9" cx="1019.7" cy="507.9" r="2"/>
	<circle class="st9" cx="1016.5" cy="514" r="2"/>
	<circle class="st9" cx="1014" cy="505.9" r="2"/>
	<circle class="st9" cx="1005.8" cy="505.9" r="2"/>
	<circle class="st9" cx="1009.8" cy="499.7" r="2"/>
	<circle class="st9" cx="1019.3" cy="499.7" r="2"/>
	<circle class="st9" cx="1015.2" cy="493.6" r="2"/>
	<circle class="st9" cx="1021.3" cy="491.6" r="2"/>
	<circle class="st9" cx="1020.2" cy="545.6" r="2"/>
	<circle class="st9" cx="1020.9" cy="552.5" r="2"/>
	<circle class="st9" cx="1019.1" cy="483.8" r="2"/>
	<circle class="st9" cx="1021.3" cy="477" r="2"/>
	<circle class="st9" cx="1022.1" cy="517.1" r="2"/>
	<circle class="st9" cx="999" cy="520.1" r="2"/>
	<circle class="st9" cx="999" cy="527.7" r="2"/>
	<circle class="st9" cx="1013.2" cy="520.1" r="2"/>
	<circle class="st9" cx="1020.2" cy="523.3" r="2"/>
	<circle class="st9" cx="1005.8" cy="527.7" r="2"/>
	<circle class="st9" cx="1003.8" cy="541.6" r="2"/>
	<circle class="st9" cx="1013.4" cy="536.3" r="2"/>
	<circle class="st9" cx="1020.2" cy="530.9" r="2"/>
	<circle class="st9" cx="1013.4" cy="528.8" r="2"/>
	<circle class="st9" cx="1005.8" cy="534.6" r="2"/>
	<circle class="st9" cx="998" cy="546.9" r="2"/>
	<circle class="st9" cx="991.6" cy="551.9" r="2"/>
	<circle class="st9" cx="1005.8" cy="549.5" r="2"/>
	<circle class="st9" cx="1011.3" cy="542.7" r="2"/>
	<circle class="st9" cx="1019.7" cy="538.3" r="2"/>
	<circle class="st9" cx="998.5" cy="555.2" r="2"/>
	<circle class="st9" cx="1054.7" cy="565.3" r="2"/>
	<circle class="st9" cx="1048.9" cy="570.6" r="2"/>
	<circle class="st9" cx="1056.7" cy="573.2" r="2"/>
	<circle class="st9" cx="1045.8" cy="556" r="2"/>
	<circle class="st9" cx="1041" cy="560.6" r="2"/>
	<circle class="st9" cx="1048.7" cy="563.2" r="2"/>
	<circle class="st9" cx="1062.2" cy="566.4" r="2"/>
	<circle class="st9" cx="1049.4" cy="578.9" r="2"/>
	<circle class="st9" cx="1079.7" cy="570.6" r="2"/>
	<circle class="st9" cx="1085.5" cy="564.2" r="2"/>
	<circle class="st9" cx="1090.2" cy="559.2" r="2"/>
	<circle class="st9" cx="1086.1" cy="574.6" r="2"/>
	<circle class="st9" cx="1091" cy="568.5" r="2"/>
	<circle class="st9" cx="1099.1" cy="561.8" r="2"/>
	<circle class="st9" cx="1096.9" cy="555" r="2"/>
	<circle class="st9" cx="1079.1" cy="579.2" r="2"/>
	<circle class="st9" cx="1069.6" cy="564.9" r="2"/>
	<circle class="st9" cx="1071.6" cy="557.2" r="2"/>
	<circle class="st9" cx="1062.2" cy="558" r="2"/>
	<circle class="st9" cx="1054.4" cy="558" r="2"/>
	<circle class="st9" cx="1072.2" cy="572.1" r="2"/>
	<circle class="st9" cx="1070.2" cy="579.2" r="2"/>
	<circle class="st9" cx="1077.1" cy="563.3" r="2"/>
	<circle class="st9" cx="1081.4" cy="556" r="2"/>
	<circle class="st9" cx="1106.9" cy="566" r="2"/>
	<circle class="st9" cx="1124.4" cy="570.2" r="2"/>
	<circle class="st9" cx="1130.3" cy="563.8" r="2"/>
	<circle class="st9" cx="1135.9" cy="556.8" r="2"/>
	<circle class="st9" cx="1137.7" cy="564.9" r="2"/>
	<circle class="st9" cx="1143.8" cy="558.8" r="2"/>
	<circle class="st9" cx="1114.4" cy="560.6" r="2"/>
	<circle class="st9" cx="1106.9" cy="557.6" r="2"/>
	<circle class="st9" cx="1116.4" cy="568.5" r="2"/>
	<circle class="st9" cx="1121.9" cy="561.7" r="2"/>
	<circle class="st9" cx="1128" cy="555.6" r="2"/>
	<circle class="st9" cx="1134.9" cy="547.6" r="2"/>
	<circle class="st9" cx="1140.6" cy="540.7" r="2"/>
	<circle class="st9" cx="1142.4" cy="551" r="2"/>
	<circle class="st9" cx="1149.1" cy="545.6" r="2"/>
	<circle class="st9" cx="1132.7" cy="539.4" r="2"/>
	<circle class="st9" cx="1136.7" cy="532.9" r="2"/>
	<circle class="st9" cx="1142.4" cy="526" r="2"/>
	<circle class="st9" cx="1145.8" cy="535.2" r="2"/>
	<circle class="st9" cx="1150.3" cy="528" r="2"/>
	<circle class="st9" cx="1132.5" cy="526" r="2"/>
	<circle class="st9" cx="1140.9" cy="520" r="2"/>
	<circle class="st9" cx="1147.2" cy="512.4" r="2"/>
	<circle class="st9" cx="1131.6" cy="509.2" r="2"/>
	<circle class="st9" cx="1148.3" cy="521.2" r="2"/>
	<circle class="st9" cx="1154.4" cy="515.1" r="2"/>
	<path class="st9" d="M1139.9,509.1c1.1,0,2,0.9,2,2s-0.9,2-2,2s-2-0.9-2-2S1138.8,509.1,1139.9,509.1z"/>
	<circle class="st9" cx="1089.2" cy="580.9" r="2"/>
	<circle class="st9" cx="1150" cy="554.5" r="2"/>
	<circle class="st9" cx="1156.9" cy="523.1" r="2"/>
	<circle class="st9" cx="1162.5" cy="516.1" r="2"/>
	<circle class="st9" cx="1164.3" cy="524.2" r="2"/>
	<circle class="st9" cx="1170.4" cy="518.1" r="2"/>
	<circle class="st9" cx="1158.7" cy="508.4" r="2"/>
	<circle class="st9" cx="1164.3" cy="501.5" r="2"/>
	<circle class="st9" cx="1166.2" cy="509.6" r="2"/>
	<circle class="st9" cx="1172.3" cy="503.4" r="2"/>
	<circle class="st9" cx="1156.4" cy="500.2" r="2"/>
	<circle class="st9" cx="1162.8" cy="495.5" r="2"/>
	<circle class="st9" cx="1168.5" cy="488.6" r="2"/>
	<circle class="st9" cx="1170.3" cy="496.6" r="2"/>
	<circle class="st9" cx="1176.4" cy="490.5" r="2"/>
	<circle class="st9" cx="1172.5" cy="485" r="2"/>
	<circle class="st9" cx="1160.5" cy="487.3" r="2"/>
	<circle class="st9" cx="1152" cy="485.7" r="2"/>
	<circle class="st9" cx="1149.8" cy="504.2" r="2"/>
	<circle class="st9" cx="1141.9" cy="503" r="2"/>
	<circle class="st9" cx="1148.2" cy="498.3" r="2"/>
	<circle class="st9" cx="1146" cy="490.1" r="2"/>
	<circle class="st9" cx="1172.4" cy="527.5" r="2"/>
	<circle class="st9" cx="1178.4" cy="497.1" r="2"/>
	<path class="st9" d="M1181.6,509.6c1.1,0,2,0.9,2,2s-0.9,2-2,2s-2-0.9-2-2S1180.5,509.6,1181.6,509.6z"/>
	<path class="st9" d="M1174.5,509.1c1.1,0,2,0.9,2,2s-0.9,2-2,2s-2-0.9-2-2S1173.4,509.1,1174.5,509.1z"/>
	<circle class="st9" cx="1183.4" cy="519.7" r="2"/>
	<circle class="st9" cx="1180.6" cy="528.8" r="2"/>
	<circle class="st9" cx="1178.1" cy="522" r="2"/>
	<circle class="st9" cx="1189.5" cy="513.6" r="2"/>
	<circle class="st9" cx="1180.1" cy="505.6" r="2"/>
	<circle class="st9" cx="1187.6" cy="506.8" r="2"/>
	<circle class="st9" cx="1195.7" cy="507.2" r="2"/>
	<circle class="st9" cx="1184.1" cy="490.2" r="2"/>
	<circle class="st9" cx="1180.6" cy="483.7" r="2"/>
	<circle class="st9" cx="1185.9" cy="498.2" r="2"/>
	<circle class="st9" cx="1192" cy="492.1" r="2"/>
	<circle class="st9" cx="1188.6" cy="486.2" r="2"/>
	<circle class="st9" cx="1196.3" cy="485.8" r="2"/>
	<circle class="st9" cx="1204.3" cy="487.8" r="2"/>
	<circle class="st9" cx="1177.8" cy="439.6" r="2"/>
	<circle class="st9" cx="1178.4" cy="432.6" r="2"/>
	<circle class="st9" cx="1184.8" cy="437.2" r="2"/>
	<circle class="st9" cx="1185.6" cy="429.2" r="2"/>
	<circle class="st9" cx="1192.3" cy="438.3" r="2"/>
	<circle class="st9" cx="1207.6" cy="438.6" r="2"/>
	<circle class="st9" cx="1211.7" cy="453.6" r="2"/>
	<circle class="st9" cx="1211.7" cy="444.7" r="2"/>
	<circle class="st9" cx="1200.4" cy="438.8" r="2"/>
	<circle class="st9" cx="1193.7" cy="431.6" r="2"/>
	<circle class="st9" cx="1209.6" cy="462.6" r="2"/>
	<circle class="st9" cx="1201.2" cy="431.9" r="2"/>
	<circle class="st9" cx="1150.7" cy="437.2" r="2"/>
	<path class="st9" d="M1023.7,317.1c1.1,0,2,0.9,2,2s-0.9,2-2,2s-2-0.9-2-2S1022.6,317.1,1023.7,317.1z"/>
	<circle class="st9" cx="1156.1" cy="430.9" r="2"/>
	<circle class="st9" cx="1162.8" cy="436.7" r="2"/>
	<circle class="st9" cx="1016" cy="320.7" r="2"/>
	<circle class="st9" cx="1163.3" cy="429.7" r="2"/>
	<circle class="st9" cx="1169" cy="438.3" r="2"/>
	<circle class="st9" cx="1135.8" cy="461.6" r="2"/>
	<circle class="st9" cx="1141.1" cy="420.5" r="2"/>
	<circle class="st9" cx="1028.1" cy="313.1" r="2"/>
	<circle class="st9" cx="1141.1" cy="427.1" r="2"/>
	<circle class="st9" cx="1150.7" cy="420.2" r="2"/>
	<circle class="st9" cx="1148.7" cy="426.8" r="2"/>
	<circle class="st9" cx="1130" cy="456.6" r="2"/>
	<circle class="st9" cx="1139.7" cy="438.6" r="2"/>
	<circle class="st9" cx="1156.5" cy="439.6" r="2"/>
	<circle class="st9" cx="1144.9" cy="433.5" r="2"/>
	<g>
		<path class="st5" d="M1143.8,442.9h-7.1v14.8c0,0,3.7,1.2,3.8,4.7c0.1,3.6-3.8,4.2-3.8,4.2v15h70.1v-16.3c0,0-4.1,0.1-4.1-3.5
			c0-3.8,4.1-3.8,4.1-3.8v-15.1h-59.1"/>
		<path class="st9" d="M1147.7,442.7c0-1.1-0.9-2-2-2s-2,0.9-2,2c0,0.1,0,0.1,0,0.2h3.9C1147.7,442.8,1147.7,442.7,1147.7,442.7z"/>
	</g>
	<circle class="st9" cx="1190" cy="423.2" r="2"/>
	<circle class="st9" cx="1184.1" cy="416.1" r="2"/>
	<circle class="st9" cx="1193.1" cy="416.1" r="2"/>
	<circle class="st9" cx="1198.2" cy="423.7" r="2"/>
	<circle class="st9" cx="1201.4" cy="416.6" r="2"/>
	<circle class="st9" cx="1207.6" cy="412.5" r="2"/>
	<circle class="st9" cx="1205.6" cy="424.8" r="2"/>
	<circle class="st9" cx="1209.6" cy="431.1" r="2"/>
	<circle class="st9" cx="1183.7" cy="409" r="2"/>
	<circle class="st9" cx="1189.8" cy="402.9" r="2"/>
	<circle class="st9" cx="1191.9" cy="409.5" r="2"/>
	<circle class="st9" cx="1197.5" cy="402.5" r="2"/>
	<circle class="st9" cx="1199.3" cy="410.6" r="2"/>
	<circle class="st9" cx="1205.6" cy="404.6" r="2"/>
	<circle class="st9" cx="1191.7" cy="389.3" r="2"/>
	<circle class="st9" cx="1193.7" cy="395.9" r="2"/>
	<circle class="st9" cx="1199.4" cy="389" r="2"/>
	<circle class="st9" cx="1201.2" cy="397.1" r="2"/>
	<circle class="st9" cx="1209.6" cy="420.2" r="2"/>
	<circle class="st9" cx="1167" cy="423.2" r="2"/>
	<circle class="st9" cx="1008.8" cy="323.4" r="2"/>
	<circle class="st9" cx="1158.1" cy="424.5" r="2"/>
	<circle class="st9" cx="1161.3" cy="418.6" r="2"/>
	<circle class="st9" cx="1169" cy="415.1" r="2"/>
	<circle class="st9" cx="1174.4" cy="425.7" r="2"/>
	<circle class="st9" cx="1034.7" cy="317.1" r="2"/>
	<circle class="st9" cx="1176.5" cy="416.6" r="2"/>
	<circle class="st9" cx="1186.9" cy="385.2" r="2"/>
	<circle class="st9" cx="1182.6" cy="400.6" r="2"/>
	<circle class="st9" cx="1183" cy="378.6" r="2"/>
	<circle class="st9" cx="1189.1" cy="372.5" r="2"/>
	<circle class="st9" cx="1185.4" cy="365.9" r="2"/>
	<circle class="st9" cx="1041" cy="311.7" r="2"/>
	<circle class="st9" cx="1181" cy="356.6" r="2"/>
	<circle class="st9" cx="1124.4" cy="317.2" r="2"/>
	<circle class="st9" cx="1117.5" cy="316.2" r="2"/>
	<circle class="st9" cx="1191.2" cy="379.1" r="2"/>
	<circle class="st9" cx="1196.4" cy="381.6" r="2"/>
	<circle class="st9" cx="1185" cy="393" r="2"/>
	<circle class="st9" cx="1176.4" cy="408.5" r="2"/>
	<circle class="st9" cx="1133.5" cy="318.7" r="2"/>
	<circle class="st9" cx="1180.9" cy="423.1" r="2"/>
	<circle class="st9" cx="1171" cy="431.9" r="2"/>
	<circle class="st9" cx="1158.8" cy="553" r="2"/>
	<circle class="st9" cx="1164.4" cy="546.1" r="2"/>
	<circle class="st9" cx="1134.5" cy="518.1" r="2"/>
	<circle class="st9" cx="1152.5" cy="537.4" r="2"/>
	<circle class="st9" cx="1156.5" cy="544.9" r="2"/>
	<circle class="st9" cx="1162.9" cy="540.1" r="2"/>
	<circle class="st9" cx="1168.5" cy="533.2" r="2"/>
	<circle class="st9" cx="1170.4" cy="541.3" r="2"/>
	<circle class="st9" cx="1176.5" cy="535.2" r="2"/>
	<circle class="st9" cx="1160.6" cy="532" r="2"/>
	<circle class="st9" cx="1194" cy="501.6" r="2"/>
	<circle class="st9" cx="1198.4" cy="495.1" r="2"/>
	<circle class="st9" cx="1131.1" cy="494.1" r="2"/>
	<circle class="st9" cx="1117.5" cy="554" r="2"/>
	<circle class="st9" cx="1134.6" cy="502.3" r="2"/>
	<circle class="st9" cx="1138.6" cy="495.2" r="2"/>
	<circle class="st9" cx="1133.5" cy="450.1" r="2"/>
	<circle class="st9" cx="1132" cy="486.8" r="2"/>
	<circle class="st9" cx="1139.5" cy="487.9" r="2"/>
	<circle class="st9" cx="1131.5" cy="469.6" r="2"/>
	<circle class="st9" cx="1130.9" cy="477.6" r="2"/>
	<circle class="st9" cx="1154.9" cy="492.2" r="2"/>
	<circle class="st9" cx="1095" cy="575.2" r="2"/>
	<circle class="st9" cx="1099.1" cy="569.4" r="2"/>
	<g>
		<path class="st2" d="M1215.1,442.9c0-77.9-63.2-141.1-141.1-141.1S932.9,365,932.9,442.9S996.1,584,1074,584
			c14.5,0,28.6-2.2,41.8-6.3c-0.2-0.3-0.3-0.7-0.3-1.1c0-1.1,0.9-2,2-2s1.9,0.8,2,1.9c3.7-1.3,7.3-2.7,10.9-4.2
			c0-0.2-0.1-0.3-0.1-0.5c0-1.1,0.9-2,2-2c0.7,0,1.3,0.4,1.7,0.9C1181.9,548.1,1215.1,499.4,1215.1,442.9z"/>
		<path class="st2" d="M1133.9,570.6c-1.2,0.6-2.4,1.1-3.6,1.6"/>
		<path class="st2" d="M1132.2,569.7c-1.1,0-2,0.9-2,2c0,0.2,0,0.3,0.1,0.5c1.2-0.5,2.4-1.1,3.6-1.6
			C1133.5,570.1,1132.9,569.7,1132.2,569.7z"/>
		<path class="st2" d="M1119.4,576.6L1119.4,576.6c-1.2,0.3-2.4,0.7-3.6,1.1"/>
		<path class="st2" d="M1117.5,574.6c-1.1,0-2,0.9-2,2c0,0.4,0.1,0.8,0.3,1.1c1.2-0.4,2.4-0.8,3.6-1.2
			C1119.4,575.4,1118.5,574.6,1117.5,574.6z"/>
	</g>
	<circle class="st9" cx="1102.6" cy="577.2" r="2"/>
	<circle class="st9" cx="1109.7" cy="572.1" r="2"/>
	<circle class="st9" cx="1064.4" cy="574.6" r="2"/>
	<circle class="st9" cx="1060.2" cy="578.9" r="2"/>
	<circle class="st9" cx="979.7" cy="494.5" r="2"/>
	<circle class="st9" cx="997" cy="538.3" r="2"/>
	<circle class="st9" cx="993.6" cy="532.3" r="2"/>
	<circle class="st9" cx="986.8" cy="537.5" r="2"/>
	<circle class="st9" cx="991" cy="542.7" r="2"/>
	<circle class="st9" cx="1018.7" cy="558.3" r="2"/>
	<circle class="st9" cx="1012.9" cy="563.7" r="2"/>
	<circle class="st9" cx="1027.7" cy="572.3" r="2"/>
	<circle class="st9" cx="1019.3" cy="569" r="2"/>
	<circle class="st9" cx="1024.1" cy="563.2" r="2"/>
	<circle class="st9" cx="1038.2" cy="567.4" r="2"/>
	<circle class="st9" cx="1041.8" cy="574.1" r="2"/>
	<circle class="st9" cx="1031.1" cy="565.1" r="2"/>
	<circle class="st9" cx="1034.7" cy="558.6" r="2"/>
	<circle class="st9" cx="1027.7" cy="556.8" r="2"/>
	<circle class="st9" cx="1009.8" cy="556.3" r="2"/>
	<circle class="st9" cx="1014.9" cy="550.5" r="2"/>
	<circle class="st9" cx="1034.7" cy="574.3" r="2"/>
	<circle class="st9" cx="1004.7" cy="560.9" r="2"/>
	<circle class="st9" cx="977.7" cy="501.2" r="2"/>
	<circle class="st9" cx="981.7" cy="508.6" r="2"/>
	<circle class="st9" cx="984.8" cy="501.2" r="2"/>
	<circle class="st9" cx="987.2" cy="494.5" r="2"/>
	<circle class="st9" cx="994.8" cy="496.5" r="2"/>
	<circle class="st9" cx="991.5" cy="502.5" r="2"/>
	<circle class="st9" cx="1002.1" cy="490.9" r="2"/>
	<circle class="st9" cx="1002" cy="497.9" r="2"/>
	<circle class="st9" cx="993.5" cy="490.2" r="2"/>
	<circle class="st9" cx="990.2" cy="484.6" r="2"/>
	<circle class="st9" cx="998.5" cy="503.9" r="2"/>
	<circle class="st9" cx="998.5" cy="484.8" r="2"/>
	<circle class="st9" cx="1012.9" cy="486.8" r="2"/>
	<circle class="st9" cx="1008.8" cy="492.2" r="2"/>
	<circle class="st9" cx="940.1" cy="471.2" r="2"/>
	<circle class="st9" cx="938" cy="464.6" r="2"/>
	<circle class="st9" cx="940.2" cy="455.6" r="2"/>
	<circle class="st9" cx="944.6" cy="462.6" r="2"/>
	<circle class="st9" cx="976.3" cy="486.6" r="2"/>
	<circle class="st9" cx="938.1" cy="439.3" r="2"/>
	<circle class="st9" cx="938.2" cy="446.7" r="2"/>
	<circle class="st9" cx="974" cy="508.7" r="2"/>
	<circle class="st9" cx="974" cy="516.2" r="2"/>
	<circle class="st9" cx="988.3" cy="508.6" r="2"/>
	<path class="st9" d="M995.6,509.1c1.1,0,2,0.9,2,2s-0.9,2-2,2s-2-0.9-2-2S994.5,509.1,995.6,509.1z"/>
	<circle class="st9" cx="984.3" cy="488.5" r="2"/>
	<circle class="st9" cx="980.8" cy="516.2" r="2"/>
	<circle class="st9" cx="978.8" cy="530.1" r="2"/>
	<circle class="st9" cx="984.8" cy="522.8" r="2"/>
	<circle class="st9" cx="993.5" cy="518.2" r="2"/>
	<circle class="st9" cx="987" cy="516.2" r="2"/>
	<circle class="st9" cx="977.7" cy="522.2" r="2"/>
	<circle class="st9" cx="973" cy="535.5" r="2"/>
	<circle class="st9" cx="985.3" cy="529.6" r="2"/>
	<circle class="st9" cx="979.7" cy="538.6" r="2"/>
	<circle class="st9" cx="984.3" cy="545.6" r="2"/>
	<circle class="st9" cx="992.4" cy="525.2" r="2"/>
	<circle class="st9" cx="971.6" cy="528.8" r="2"/>
	<circle class="st9" cx="969.2" cy="521.4" r="2"/>
	<circle class="st9" cx="965.2" cy="526.1" r="2"/>
	<circle class="st9" cx="952.6" cy="488.5" r="2"/>
	<g>
		<path class="st5" d="M956.5,481.5h59v-16.3c0,0-4.1,0.1-4.1-3.5c0-3.8,4.1-3.8,4.1-3.8v-15.1h-70.1v14.8c0,0,3.7,1.2,3.8,4.7
			c0.1,3.6-3.8,4.2-3.8,4.2v15h7.4"/>
		<path class="st2" d="M952.6,482.2c0,1.1,0.9,2,2,2s2-0.9,2-2c0-0.2,0-0.4-0.1-0.6h-3.8C952.6,481.7,952.6,481.9,952.6,482.2z"/>
		<path class="st5" d="M952.7,481.5h3.8"/>
	</g>
	<circle class="st9" cx="956.6" cy="495.9" r="2"/>
	<circle class="st9" cx="959.7" cy="488.5" r="2"/>
	<circle class="st9" cx="969.6" cy="483.7" r="2"/>
	<circle class="st9" cx="941.5" cy="478.5" r="2"/>
	<circle class="st9" cx="966.3" cy="489.8" r="2"/>
	<circle class="st9" cx="948.8" cy="495.9" r="2"/>
	<circle class="st9" cx="945.5" cy="488.5" r="2"/>
	<circle class="st9" cx="963.1" cy="495.9" r="2"/>
	<circle class="st9" cx="968.9" cy="499.1" r="2"/>
	<circle class="st9" cx="955.6" cy="503.5" r="2"/>
	<circle class="st9" cx="972.6" cy="493.6" r="2"/>
	<path class="st9" d="M959.7,508.1c1.1,0,2,0.9,2,2s-0.9,2-2,2s-2-0.9-2-2S958.6,508.1,959.7,508.1z"/>
	<circle class="st9" cx="968.3" cy="505.4" r="2"/>
	<circle class="st9" cx="961.9" cy="503.5" r="2"/>
	<circle class="st9" cx="952.6" cy="509.4" r="2"/>
	<circle class="st9" cx="982.3" cy="433.4" r="2"/>
	<circle class="st9" cx="959.9" cy="518.2" r="2"/>
	<circle class="st9" cx="967.2" cy="512.4" r="2"/>
	<circle class="st9" cx="981.3" cy="424.7" r="2"/>
	<circle class="st9" cx="985.1" cy="419.2" r="2"/>
	<circle class="st9" cx="977.9" cy="418.7" r="2"/>
	<circle class="st9" cx="969.6" cy="387.9" r="2"/>
	<circle class="st9" cx="975.3" cy="429.1" r="2"/>
	<circle class="st9" cx="996.1" cy="428.3" r="2"/>
	<circle class="st9" cx="992" cy="436.3" r="2"/>
	<circle class="st9" cx="988.6" cy="430.3" r="2"/>
	<circle class="st9" cx="986" cy="440.7" r="2"/>
	<circle class="st9" cx="977.9" cy="438.8" r="2"/>
	<circle class="st9" cx="1003.2" cy="428.1" r="2"/>
	<circle class="st9" cx="1007.1" cy="435.5" r="2"/>
	<circle class="st9" cx="1003.8" cy="440.2" r="2"/>
	<circle class="st9" cx="1010.2" cy="428.1" r="2"/>
	<circle class="st9" cx="1020.2" cy="423.4" r="2"/>
	<circle class="st9" cx="1016.9" cy="429.5" r="2"/>
	<circle class="st9" cx="999.4" cy="435.6" r="2"/>
	<circle class="st9" cx="967.8" cy="416.6" r="2"/>
	<circle class="st9" cx="972.6" cy="412.5" r="2"/>
	<circle class="st9" cx="971" cy="405.3" r="2"/>
	<circle class="st9" cx="967.9" cy="358.6" r="2"/>
	<circle class="st9" cx="1013.7" cy="435.5" r="2"/>
	<circle class="st9" cx="1022.1" cy="432.3" r="2"/>
	<circle class="st9" cx="1011.3" cy="441.2" r="2"/>
	<circle class="st9" cx="1019.5" cy="438.8" r="2"/>
	<circle class="st9" cx="991.5" cy="423.4" r="2"/>
	<circle class="st9" cx="1000" cy="421.7" r="2"/>
	<circle class="st9" cx="1007.8" cy="421.4" r="2"/>
	<circle class="st9" cx="1018.9" cy="445.1" r="2"/>
	<path class="st9" d="M1024.9,446.9c-1.1,0-2-0.9-2-2s0.9-2,2-2"/>
	<circle class="st9" cx="1014.4" cy="422.8" r="2"/>
	<circle class="st9" cx="971.6" cy="422.5" r="2"/>
	<circle class="st9" cx="970.6" cy="433.6" r="2"/>
	<circle class="st9" cx="965" cy="436.8" r="2"/>
	<circle class="st9" cx="956.3" cy="438.2" r="2"/>
	<circle class="st9" cx="945.3" cy="438.2" r="2"/>
	<circle class="st9" cx="1022.1" cy="457.6" r="2"/>
	<circle class="st9" cx="1021.7" cy="466.4" r="2"/>
	<circle class="st9" cx="1015.6" cy="461.6" r="2"/>
	<circle class="st9" cx="1020.2" cy="451.3" r="2"/>
	<circle class="st9" cx="1018.5" cy="471.2" r="2"/>
	<circle class="st9" cx="965.9" cy="427.2" r="2"/>
	<circle class="st9" cx="962.5" cy="421.2" r="2"/>
	<circle class="st9" cx="959.9" cy="431.6" r="2"/>
	<circle class="st9" cx="955.2" cy="427.2" r="2"/>
	<circle class="st9" cx="949.3" cy="433.3" r="2"/>
	<path class="st2" d="M1267.3,421.7c0-4.5,1.7-10.2,3.8-11.8c0.6-0.4,1.2-0.5,1.8-0.3c2,0.7,4.2,4.4,5.2,12.8
		c1.3,11.1,2.6,25.8,1.4,38c-0.9,9.1-2.3,16-5.2,17.4c-2.9,1.3-3.8-0.4-4.9-2.9c-1-2.4-1-9.4-1-9.4s0,0,1.7-1.7s3.8-5.2,4.3-14.2
		s-0.1-18.5-2-22.7C1269.5,420.7,1267.3,421.7,1267.3,421.7z"/>
</g>
<path class="st11" d="M844.6,705.5"/>
<g>
	<path class="st12" d="M635,466.5"/>
	<path class="st10" d="M655.6,453.6c16.1-4.6,38.5-11.4,71.6-10.9c10.1,0.1,23.2,1.1,32.5,2.6c21.1,3.2,34.9,8.5,37.7,9.8
		c2.7,1.2,3.4,2.8,5,5.2c7.2,10.9,17.9,37,21.6,57.8c1.4,7.9,4,30.4,1.9,45c-4.8,32.1-23,65.6-39,86.6
		c-23.3,30.7-48.8,45.8-51.3,46.8s-8.5,6.7-20.8-1.1c-6.5-4.2-20.2-13.5-32.8-25.4c-10.5-9.9-20-21.6-27.2-33.3
		c-15.7-25.7-25-50.8-27.6-65c-1.3-7.7-3.2-23.8-2.4-38.2c0.7-12.3,4.1-23,5.7-30.1c2.7-12,12.6-32.3,18-43.4
		C650.2,456.9,655.6,453.6,655.6,453.6z"/>
	<circle class="st10" cx="725.7" cy="544.5" r="96.2"/>
	<circle class="st13" cx="705.5" cy="497.9" r="17.3"/>
	<circle class="st13" cx="728.2" cy="467.8" r="10.5"/>
	<circle class="st13" cx="706.2" cy="496.7" r="13.5"/>
	
		<ellipse transform="matrix(0.1602 -0.9871 0.9871 0.1602 138.8157 1158.8103)" class="st14" cx="750.4" cy="497.8" rx="17.3" ry="17.3"/>
	<circle class="st13" cx="752.2" cy="496.2" r="13.5"/>
	<circle class="st13" cx="706.2" cy="496.7" r="11.4"/>
	<ellipse class="st15" cx="752.2" cy="496.2" rx="11.4" ry="10.9"/>
	<circle class="st13" cx="705.3" cy="497.5" r="6.5"/>
	<circle class="st13" cx="750.8" cy="497.5" r="6.5"/>
	<circle class="st13" cx="729.3" cy="563.2" r="8.3"/>
	<circle class="st13" cx="710" cy="546.5" r="8.3"/>
	<ellipse class="st13" cx="707.2" cy="499" rx="9.5" ry="9.1"/>
	<path class="st13" d="M728.2,498.3c1.6-0.2,2.4,0.5,3.9,4.7c1.5,4.3,6.7,16.7,7.5,18c0.7,1.4,1.5,2.1,3.4,2.4
		c1.9,0.3,12.1-1.7,15.6-2.7c3.5-1.1,8.9-3.6,11.9-7.6c2-2.8,5.9-11.4,4.6-19.8c-1.3-8.3-5.4-12.5-8.6-15.1
		c-3.2-2.6-12.3-2.6-15.7-4.8c-3.4-2.2-7-5.9-7.5-6.9s-0.9-3.3-0.9-3.3l-10.4-9.6l-12.2,1.8l-3.6,4.3c0,0-4.4,10.8-7.1,11.8
		c-2.8,1-16.1,3.5-21.7,8.1s-9.1,15.4-7.7,21.3c1.9,7.9,5.7,13,10.7,16.3c5.9,3.8,12.6,7.1,17.6,6.5c5-0.5,7.6-1.3,9.6-4.2
		c2-2.8,5.6-12.3,6.3-15.6C724.6,500.6,726,498.6,728.2,498.3z"/>
	<path class="st13" d="M707.2,456c3.2-1.7,19-6,23.7-4.6c4.6,1.5,18.5,1.7,19.5,4.6s-0.4,7.4,2.6,7.9s13.7-0.7,18.3,2.1
		s13.4,3.4,14.3,11.6c1,8.1,3,21.9,3,23.9s-2.1,11-5.9,13.7c-3.8,2.7-12.7,6.6-17.8,8.7c-5.1,2.1-20,0.9-21.7,0.8
		c-1.8-0.1-23.6,0-24,0s-20.2-0.1-20.2-0.1s-3.8-0.1-8.3-0.7c-4.6-0.6-6.7-0.9-10.3-2.1c-3.6-1.2-7.5-3.2-10.7-9.4
		c-1.3-2.5-1.1-21.9-1.3-27.8c-0.1-5.9,4.8-10.4,11-15s18.4-4.1,22.5-5.1C705.7,463.4,706.4,457.9,707.2,456"/>
	<path class="st13" d="M756.1,612.9l-56.3,0.1c-1.5,0.1-2.8-1.1-2.8-2.6l-0.4-30.5c0-1.3,1-2.3,2.3-2.4l57.5-0.9
		c1.4-0.1,2.6,1.1,2.6,2.4l0.3,30.6C759.2,611.5,757.9,612.9,756.1,612.9z"/>
	<g>
		<path class="st13" d="M760.7,550.1c2.8-2,4.4-5.6,4.4-5.6c1.3-3.2,2.3-11.3,1.3-13.3c-1.1-2-5-0.7-5-0.7c-0.1,0.7-0.4,2-0.8,3.4"
			/>
		<path class="st13" d="M748.6,560.3c-5.4,4.3-6.4,5.4-6.9,5.8c-0.5,0.3-6.3,6.3-15.3,7.9s-15.1-2-16.9-5.9
			c-2.2-4.8-1.6-9.1-1.4-10.1c0.2-1,7.1,2.8,11-0.9c2.5-2.4,5.2-5.8,11.4-5.3c4.9,0.4,7.1,3.4,7.5,3.1c0.4-0.3,8-3,14.2-6.4
			c3.4-1.9,5-3.2,6.1-6.5c0.7-2.1,1.7-5.4,2.3-7.9l-0.1-3.5c0-1.1-0.9-1.9-1.9-1.9l-63.5,1.1c-1.4-0.1-1.9,0.3-1.9,0.9V616
			c0,0.7,0.6,1.3,1.3,1.3l65.4-1.5c0.8,0,1.4-0.7,1.4-1.4l-0.6-64.2c-0.1,0.1-0.1,0.1-0.2,0.1C757.6,552.2,754.1,556,748.6,560.3z"
			/>
		<path class="st13" d="M760.5,533.9c-0.7,2.6-1.6,5.8-2.3,7.9c-1.1,3.3-2.6,4.6-6.1,6.5c-6.2,3.4-13.8,6.1-14.2,6.4
			c-0.4,0.3-2.6-2.7-7.5-3.1c-6.3-0.5-8.9,2.8-11.4,5.3c-3.8,3.8-10.8,0-11,0.9c-0.2,1.1-0.9,5.4,1.4,10.1c1.9,3.9,7.9,7.5,16.9,5.9
			c9.1-1.7,14.8-7.6,15.3-7.9c0.5-0.3,1.5-1.5,6.9-5.8s8.9-8.1,11.9-10c0.1-0.1,0.1-0.1,0.2-0.1"/>
	</g>
	<circle class="st13" cx="710" cy="545.8" r="9.8"/>
	<path class="st16" d="M593.9,520.4h-5.8c0,0-4.9,3.4-5.6,23.3c-0.5,13.9,1.3,22.9,2.5,24.4l6.7-0.1c0,0-1.7-4.4-2.3-17.7
		C589,541.2,589.6,525.9,593.9,520.4z"/>
	<path class="st16" d="M621.7,524.4h-21c0,0-2.2,0.9-2.7,4.1c-0.2,1.5-0.5,4-0.6,7.6c-0.2,4.1-0.2,21-0.2,21s0.1,5.2,1.8,6.7
		s3.2,2.6,3.2,2.6s2.2,23.2,7.1,43.2c2.8,11.4,9.6,31.5,21.7,55.5c11.2,22.1,24.8,38.3,35.4,51c15.1,18.2,27.6,22.7,26.9,29
		c-0.7,6.3-1.7,32.7-1.7,32.7s-2.8,7.6,5.1,11.6c7.8,4,32.8,7.9,46.4,4c13.5-4,14.8-10.2,14.8-10.2V741c0,0,30.8-30.4,35.6-36.7
		c7.6-10,18.1-23.7,28.4-46.1c14.9-32.4,22.5-67.7,25-86.5c1-7.9-0.7-4.4,3.3-8.3c1.4-1.4,2.9-5.6,3.2-11.1
		c0.3-5.6,0.3-9.5,0.1-13.4c-0.1-2.8-1.6-9.2-3.6-11.8c-1.8-2.4-6.8-2.2-6.8-2.2l-17.4,0.5c0,0,3.6,3.5,3.8,13.2
		c0.1,3.8,0.7,17.4-0.7,22.9c-1.3,5.6,0.7,8.6,0.7,8.6s-3.8,20.5-6.3,31c-3.6,14.9-22.2,51.2-37.9,72.2c-9.8,13.1-31.8,34-41,39.6
		c-9.1,5.6-10.3,6.7-18.8,7.3c-11.1,0.7-19.5-4-26.7-9.6s-35.2-31.5-47.1-52.1c-14.4-24.9-31.3-68.5-31-86.9
		c0.1-2.2,1.6-4.5,1.6-4.5l-0.1-2.8c0,0-1.2-16.8-1.1-23.8C621.1,530.2,621.7,524.4,621.7,524.4z"/>
	<path class="st13" d="M591.7,568c0.4,0,1.4-1.3,1.8-3.1c0.5-2.4,0.9-6,0.9-6s-2.2-4.2-2.1-13.4c0.1-9.1,1.1-15.1,1.5-15.3
		c0.5-0.1,0.6-0.7,0.6-0.7l-0.5-9.3"/>
	<line class="st17" x1="593.7" y1="530.4" x2="597.2" y2="530.5"/>
	<line class="st17" x1="594.2" y1="558.7" x2="597.8" y2="558.9"/>
	<path class="st18" d="M621.7,524.4c0,0,0.7,3.6,1.3,3.5c0.7-0.1,1.7,0,1.7,0"/>
	<path class="st17" d="M622.1,562.7l4,5.4l-2.9-7.3c0,0-0.3-14.6-0.7-18.8c-0.3-4.2,0.7-11.6,0.7-11.6"/>
	<path class="st17" d="M685.5,568.6h-43.4l0.1-7.3c0,0,2.6-0.5,2.6-4c0.1-2.9-2.6-4-2.6-4l-0.1-7.5h43.4l0.1,7.3
		c0,0-3.1,0.6-2.9,4.4c0.1,2.2,2.9,3.1,2.9,3.1L685.5,568.6z"/>
	<path class="st17" d="M812,568.6h-43.4l0.1-7.3c0,0,2.6-0.5,2.6-4c0.1-2.9-2.6-4-2.6-4l-0.1-7.5H812l0.1,7.3c0,0-3.1,0.6-2.9,4.4
		c0.1,2.2,2.9,3.1,2.9,3.1L812,568.6z"/>
	<circle class="st19" cx="728.4" cy="468" r="9.6"/>
	<path class="st10" d="M680.7,468c0,0-5.8,1.1-10.9,4.8c-5.1,3.7-9.5,9.9-9.5,10.3c-0.1,0.8-2.4,7.4-2.4,13.1s2.2,24.8,3.2,26
		c1.3,1.6,9.3,5.8,11.2,5.7c2-0.1,13.2,0.3,15.9,0c2.6-0.3,16,0.5,16.5,0s55.8-0.9,55.8-0.9s16.9-0.3,20.7-1.1
		c3.8-0.9,10-6.5,11.2-8.7c1.9-3.6,3.8-15.5,3.8-15.5s0.6-11-2.7-15.6s-3.8-6.9-4.9-8.4s-4-3.5-4-3.5"/>
	<polyline class="st13" points="716.2,459.7 714.3,472.7 722.8,482.7 738.7,479.2 742.4,463.3 	"/>
	<circle class="st20" cx="725.7" cy="544.5" r="100.9"/>
	<path class="st18" d="M857,522l6.9-0.3c0,0,2.1,1.4,3.3,5.4c1,3.3,1.3,6,1.7,13.6s-0.5,14.8-1.1,18.1s-1.7,6.9-3.4,8.9
		c-0.5,0.2-7.1,0-7.1,0"/>
	<path class="st18" d="M852.7,530.9"/>
	<line class="st18" x1="852.7" y1="530.9" x2="854.1" y2="530.9"/>
	<line class="st18" x1="852.8" y1="559.3" x2="854.3" y2="559.3"/>
	<path class="st17" d="M725.4,560.5c-0.6,0.1-0.6-1.5,0.9-1.5c1.3,0,1.9,1.8,0.8,2.8c-1.6,1.4-2,1.7-2.1,2.5
		c-0.1,0.7-0.1,0.8-0.1,0.8h2.9"/>
	<path class="st17" d="M730.9,559.5h-2.3v2.5h0.3c0,0,0.6-0.9,1.6-0.5c1,0.5,1.1,1.8,0.9,2.4c-0.2,0.7-0.7,1.3-1.5,1.4
		c-0.9,0.1-1.3-0.7-1.3-1.1c0-0.4,0.3-0.7,0.6-0.6c0.3,0.1,0.2,0.5,0.2,0.5"/>
	<path class="st17" d="M734.4,561.4c0,0,0.3-0.1-0.1-0.5c-0.4-0.4-1.1-0.4-1.4-0.1c-0.3,0.3-0.5,0.9-0.5,1.7
		c0.1,0.8,0.6,1.2,1.1,1.2c0.6,0,0.9-0.5,0.9-0.8"/>
	<line class="st17" x1="733.5" y1="559.4" x2="733.5" y2="560.6"/>
	<path class="st17" d="M725.4,567.4c0,0,1.9,1.9,4.2,1.7s3.3-1.2,3.8-1.7"/>
	<path class="st17" d="M725.6,557.5c0,0,1.7-1.3,3.5-1.3c1.7,0,3.6,0.7,4.1,1.3"/>
	<line class="st17" x1="733.5" y1="565.2" x2="733.5" y2="563.7"/>
	<path class="st16" d="M684.3,778.1c-11.8,4.4-18.9,11.1-20.5,14.7c-2.1,4.9-1.5,8.7,1.7,11.6c5.6,5.2,17.1,11,34.6,14.1
		c16.1,2.8,28.1,2.8,43.1,1.2c17.9-1.9,28.3-7,32.1-9.5s12.5-8.2,8.5-17.5c-3-6.9-8.5-9.9-16.2-13.2c-2.3-1-7.9-2.4-7.9-2.4
		s6.1,3.8,5.2,9.9c-0.8,5-6.3,10-17.3,12.6c-12.8,3-28.4,3-40.1,0.6c-11-2.3-21-7.3-22.2-12.8c-1-4.6,0.8-6.9,2.1-8.2
		s4.2-2.4,4.2-2.4l0.1-1.5L684.3,778.1z"/>
	<path class="st16" d="M686.3,780.5c-6.1,1.9-10.9,6.7-12,8.5c-1.2,2-4,6.8,3.7,12c7.3,5,21.3,10.4,37.8,11.7
		c21,1.7,36.5-3.3,43.5-5.9c8.9-3.4,15.7-9.6,16.3-13.4c0.7-3.9-1.3-6.3-5.1-8.7"/>
	<path class="st16" d="M683.1,778.6c-11.8,4.4-16.1,9.8-19.3,14.3c-3.1,4.4-1.3,9.8,1.7,12.8c2.9,3,10.9,9.6,33.6,14.1
		c16.7,3.2,28.6,3.2,43.6,1.5c17.9-1.9,28.8-7.3,32.7-9.8s12.5-9.5,8.5-18.8c-3-6.9-6.7-9.2-14.5-12.4c-2.3-1-9.6-3.2-9.6-3.2
		s7.9,3.8,5.4,13.4c-1.3,4.9-6.4,9.8-17.4,12.4c-12.8,3-28.8,4-40.4,1.5c-11-2.3-21.5-7.2-22.3-12.8c-1.1-8.2,0.9-10.4,1.7-11.6
		c1.1-1.7,5.1-3.3,5.1-3.3l0.1-1.5L683.1,778.6z"/>
	<line class="st13" x1="670" y1="478.3" x2="659.7" y2="485.3"/>
	<line class="st13" x1="669.5" y1="512.3" x2="661.1" y2="522.2"/>
	<line class="st13" x1="782.6" y1="515.2" x2="785.4" y2="523.8"/>
	<circle class="st21" cx="644.6" cy="505.3" r="1.3"/>
	<circle class="st21" cx="647.2" cy="510.2" r="1.3"/>
	<circle class="st21" cx="649.2" cy="505.3" r="1.3"/>
	<circle class="st21" cx="655.8" cy="502.2" r="1.3"/>
	<circle class="st21" cx="653.7" cy="506.1" r="1.3"/>
	<circle class="st21" cx="652" cy="500.8" r="1.3"/>
	<circle class="st21" cx="646.6" cy="500.8" r="1.3"/>
	<circle class="st21" cx="649.2" cy="496.7" r="1.3"/>
	<circle class="st21" cx="654.5" cy="496.1" r="1.3"/>
	<circle class="st21" cx="652.9" cy="492.6" r="1.3"/>
	<circle class="st21" cx="642.1" cy="510.2" r="1.3"/>
	<circle class="st21" cx="642.1" cy="515.2" r="1.3"/>
	<circle class="st21" cx="651.5" cy="510.2" r="1.3"/>
	<circle class="st21" cx="655.4" cy="512.3" r="1.3"/>
	<circle class="st21" cx="646.6" cy="515.2" r="1.3"/>
	<circle class="st21" cx="645.3" cy="524.4" r="1.3"/>
	<circle class="st21" cx="649.2" cy="519.6" r="1.3"/>
	<circle class="st21" cx="655" cy="516.5" r="1.3"/>
	<circle class="st21" cx="650.8" cy="515.2" r="1.3"/>
	<circle class="st21" cx="644.6" cy="519.1" r="1.3"/>
	<circle class="st21" cx="641.4" cy="527.9" r="1.3"/>
	<circle class="st21" cx="637.2" cy="531.2" r="1.3"/>
	<circle class="st21" cx="646.6" cy="529.6" r="1.3"/>
	<circle class="st21" cx="650.2" cy="525.2" r="1.3"/>
	<circle class="st21" cx="654.3" cy="521.1" r="1.3"/>
	<circle class="st21" cx="641.8" cy="533.4" r="1.3"/>
	<circle class="st21" cx="637.1" cy="537.2" r="1.3"/>
	<circle class="st21" cx="640.8" cy="522.2" r="1.3"/>
	<circle class="st21" cx="638.5" cy="518.3" r="1.3"/>
	<circle class="st21" cx="636.8" cy="525.2" r="1.3"/>
	<path class="st10" d="M665.5,805.7c0,0,6.5,5,6.5,16.3c0,3.8,0.1,12.1,0.1,28.9c0,12.8-0.3,89.3-0.3,89.3h102.6
		c0,0,0.3-110.7,0.3-117.3c0-8.6,5.2-15.1,5.2-15.1"/>
	<circle class="st21" cx="678.6" cy="590.6" r="1.3"/>
	<circle class="st21" cx="681.2" cy="595.5" r="1.3"/>
	<circle class="st21" cx="683.3" cy="590.6" r="1.3"/>
	<circle class="st21" cx="689.8" cy="587.4" r="1.3"/>
	<circle class="st21" cx="687.7" cy="591.4" r="1.3"/>
	<circle class="st21" cx="686.1" cy="586.1" r="1.3"/>
	<circle class="st21" cx="680.6" cy="586.1" r="1.3"/>
	<circle class="st21" cx="683.3" cy="582" r="1.3"/>
	<circle class="st21" cx="689.6" cy="582" r="1.3"/>
	<circle class="st21" cx="686.8" cy="578" r="1.3"/>
	<circle class="st21" cx="690.9" cy="576.6" r="1.3"/>
	<circle class="st21" cx="690.1" cy="612.3" r="1.3"/>
	<circle class="st21" cx="690.6" cy="616.9" r="1.3"/>
	<circle class="st21" cx="689.4" cy="571.5" r="1.3"/>
	<circle class="st21" cx="690.9" cy="567" r="1.3"/>
	<circle class="st21" cx="691.4" cy="593.5" r="1.3"/>
	<circle class="st21" cx="676.1" cy="595.5" r="1.3"/>
	<circle class="st21" cx="676.1" cy="600.5" r="1.3"/>
	<circle class="st21" cx="685.5" cy="595.5" r="1.3"/>
	<circle class="st21" cx="690.1" cy="597.6" r="1.3"/>
	<circle class="st21" cx="680.6" cy="600.5" r="1.3"/>
	<circle class="st21" cx="679.3" cy="609.7" r="1.3"/>
	<circle class="st21" cx="685.7" cy="606.2" r="1.3"/>
	<circle class="st21" cx="690.1" cy="602.6" r="1.3"/>
	<circle class="st21" cx="685.7" cy="601.2" r="1.3"/>
	<circle class="st21" cx="680.6" cy="605.1" r="1.3"/>
	<circle class="st21" cx="675.5" cy="613.2" r="1.3"/>
	<circle class="st21" cx="671.2" cy="616.5" r="1.3"/>
	<circle class="st21" cx="680.6" cy="614.9" r="1.3"/>
	<circle class="st21" cx="684.3" cy="610.4" r="1.3"/>
	<circle class="st21" cx="689.8" cy="607.5" r="1.3"/>
	<circle class="st21" cx="675.8" cy="618.7" r="1.3"/>
	<circle class="st21" cx="713" cy="625.4" r="1.3"/>
	<circle class="st21" cx="709.1" cy="628.9" r="1.3"/>
	<circle class="st21" cx="714.3" cy="630.6" r="1.3"/>
	<circle class="st21" cx="707.1" cy="619.2" r="1.3"/>
	<circle class="st21" cx="703.9" cy="622.2" r="1.3"/>
	<circle class="st21" cx="709" cy="624" r="1.3"/>
	<circle class="st21" cx="717.9" cy="626.1" r="1.3"/>
	<circle class="st21" cx="709.4" cy="634.3" r="1.3"/>
	<circle class="st21" cx="729.5" cy="628.9" r="1.3"/>
	<circle class="st21" cx="733.3" cy="624.6" r="1.3"/>
	<circle class="st21" cx="736.4" cy="621.3" r="1.3"/>
	<circle class="st21" cx="733.7" cy="631.5" r="1.3"/>
	<circle class="st21" cx="736.9" cy="627.5" r="1.3"/>
	<circle class="st21" cx="742.3" cy="623" r="1.3"/>
	<circle class="st21" cx="740.8" cy="618.5" r="1.3"/>
	<circle class="st21" cx="729.1" cy="634.5" r="1.3"/>
	<circle class="st21" cx="722.8" cy="625.1" r="1.3"/>
	<circle class="st21" cx="724.1" cy="620" r="1.3"/>
	<circle class="st21" cx="717.9" cy="620.5" r="1.3"/>
	<circle class="st21" cx="712.8" cy="620.5" r="1.3"/>
	<circle class="st21" cx="724.5" cy="629.8" r="1.3"/>
	<circle class="st21" cx="723.2" cy="634.5" r="1.3"/>
	<circle class="st21" cx="727.8" cy="624" r="1.3"/>
	<circle class="st21" cx="730.6" cy="619.2" r="1.3"/>
	<circle class="st21" cx="747.5" cy="625.8" r="1.3"/>
	<circle class="st21" cx="759" cy="628.6" r="1.3"/>
	<circle class="st21" cx="762.9" cy="624.4" r="1.3"/>
	<circle class="st21" cx="766.6" cy="619.7" r="1.3"/>
	<circle class="st21" cx="767.8" cy="625.1" r="1.3"/>
	<circle class="st21" cx="771.8" cy="621.1" r="1.3"/>
	<circle class="st21" cx="752.4" cy="622.2" r="1.3"/>
	<circle class="st21" cx="747.5" cy="620.3" r="1.3"/>
	<circle class="st21" cx="753.7" cy="627.5" r="1.3"/>
	<circle class="st21" cx="757.4" cy="623" r="1.3"/>
	<circle class="st21" cx="761.4" cy="618.9" r="1.3"/>
	<circle class="st21" cx="766" cy="613.7" r="1.3"/>
	<circle class="st21" cx="769.7" cy="609.1" r="1.3"/>
	<circle class="st21" cx="770.9" cy="615.9" r="1.3"/>
	<circle class="st21" cx="775.3" cy="612.3" r="1.3"/>
	<circle class="st21" cx="764.5" cy="608.2" r="1.3"/>
	<circle class="st21" cx="767.1" cy="603.9" r="1.3"/>
	<circle class="st21" cx="770.9" cy="599.4" r="1.3"/>
	<circle class="st21" cx="773.2" cy="605.5" r="1.3"/>
	<circle class="st21" cx="776.1" cy="600.7" r="1.3"/>
	<circle class="st21" cx="764.4" cy="599.4" r="1.3"/>
	<circle class="st21" cx="769.9" cy="595.4" r="1.3"/>
	<circle class="st21" cx="774.1" cy="590.4" r="1.3"/>
	<circle class="st21" cx="763.8" cy="588.3" r="1.3"/>
	<circle class="st21" cx="774.8" cy="596.2" r="1.3"/>
	<circle class="st21" cx="778.8" cy="592.2" r="1.3"/>
	<circle class="st21" cx="769.3" cy="589.5" r="1.3"/>
	<circle class="st21" cx="735.8" cy="635.7" r="1.3"/>
	<circle class="st21" cx="775.9" cy="618.2" r="1.3"/>
	<circle class="st21" cx="780.5" cy="597.5" r="1.3"/>
	<circle class="st21" cx="784.2" cy="592.8" r="1.3"/>
	<circle class="st21" cx="785.4" cy="598.2" r="1.3"/>
	<circle class="st21" cx="789.4" cy="594.2" r="1.3"/>
	<circle class="st21" cx="781.7" cy="587.7" r="1.3"/>
	<circle class="st21" cx="785.4" cy="583.2" r="1.3"/>
	<circle class="st21" cx="786.6" cy="588.5" r="1.3"/>
	<circle class="st21" cx="790.7" cy="584.4" r="1.3"/>
	<circle class="st21" cx="780.2" cy="582.3" r="1.3"/>
	<circle class="st21" cx="784.4" cy="579.2" r="1.3"/>
	<circle class="st21" cx="788.2" cy="574.7" r="1.3"/>
	<circle class="st21" cx="789.4" cy="579.9" r="1.3"/>
	<circle class="st21" cx="793.4" cy="575.9" r="1.3"/>
	<circle class="st21" cx="790.8" cy="572.3" r="1.3"/>
	<circle class="st21" cx="782.9" cy="573.8" r="1.3"/>
	<circle class="st21" cx="777.3" cy="572.7" r="1.3"/>
	<circle class="st21" cx="775.8" cy="585" r="1.3"/>
	<circle class="st21" cx="770.6" cy="584.2" r="1.3"/>
	<circle class="st21" cx="774.7" cy="581.1" r="1.3"/>
	<circle class="st21" cx="773.3" cy="575.7" r="1.3"/>
	<circle class="st21" cx="790.7" cy="600.4" r="1.3"/>
	<circle class="st21" cx="794.7" cy="580.3" r="1.3"/>
	<circle class="st21" cx="796.8" cy="589.9" r="1.3"/>
	<circle class="st21" cx="792.1" cy="589.5" r="1.3"/>
	<circle class="st21" cx="798" cy="595.2" r="1.3"/>
	<circle class="st21" cx="796.2" cy="601.2" r="1.3"/>
	<circle class="st21" cx="794.5" cy="596.7" r="1.3"/>
	<circle class="st21" cx="802" cy="591.2" r="1.3"/>
	<circle class="st21" cx="795.8" cy="585.9" r="1.3"/>
	<circle class="st21" cx="800.8" cy="586.7" r="1.3"/>
	<circle class="st21" cx="806.1" cy="587" r="1.3"/>
	<circle class="st21" cx="798.5" cy="575.7" r="1.3"/>
	<circle class="st21" cx="796.2" cy="571.4" r="1.3"/>
	<circle class="st21" cx="799.7" cy="581" r="1.3"/>
	<circle class="st21" cx="803.7" cy="577" r="1.3"/>
	<circle class="st21" cx="801.5" cy="573.1" r="1.3"/>
	<circle class="st21" cx="806.5" cy="572.8" r="1.3"/>
	<circle class="st21" cx="811.8" cy="574.1" r="1.3"/>
	<circle class="st21" cx="794.3" cy="542.3" r="1.3"/>
	<circle class="st21" cx="794.7" cy="537.6" r="1.3"/>
	<circle class="st21" cx="798.9" cy="540.7" r="1.3"/>
	<circle class="st21" cx="799.5" cy="535.4" r="1.3"/>
	<circle class="st21" cx="803.9" cy="541.4" r="1.3"/>
	<circle class="st21" cx="814" cy="541.6" r="1.3"/>
	<circle class="st21" cx="816.7" cy="551.5" r="1.3"/>
	<circle class="st21" cx="816.7" cy="545.6" r="1.3"/>
	<circle class="st21" cx="809.2" cy="541.7" r="1.3"/>
	<circle class="st21" cx="804.8" cy="537" r="1.3"/>
	<circle class="st21" cx="815.3" cy="557.5" r="1.3"/>
	<circle class="st21" cx="809.8" cy="537.2" r="1.3"/>
	<circle class="st21" cx="776.4" cy="540.7" r="1.3"/>
	<circle class="st21" cx="692.5" cy="462.6" r="1.3"/>
	<circle class="st21" cx="780" cy="536.5" r="1.3"/>
	<circle class="st21" cx="784.4" cy="540.4" r="1.3"/>
	<circle class="st21" cx="687.4" cy="463.7" r="1.3"/>
	<circle class="st21" cx="784.7" cy="535.7" r="1.3"/>
	<circle class="st21" cx="788.5" cy="541.4" r="1.3"/>
	<circle class="st21" cx="766.6" cy="556.8" r="1.3"/>
	<circle class="st21" cx="770.1" cy="529.6" r="1.3"/>
	<circle class="st21" cx="695.4" cy="458.7" r="1.3"/>
	<circle class="st21" cx="770.1" cy="534" r="1.3"/>
	<circle class="st21" cx="776.4" cy="529.5" r="1.3"/>
	<circle class="st21" cx="775.1" cy="533.8" r="1.3"/>
	<circle class="st21" cx="762.7" cy="553.5" r="1.3"/>
	<circle class="st21" cx="769.1" cy="541.6" r="1.3"/>
	<circle class="st21" cx="780.2" cy="542.3" r="1.3"/>
	<circle class="st21" cx="772.6" cy="538.2" r="1.3"/>
	<g>
		<path class="st17" d="M771.8,544.5h-4.7v9.8c0,0,2.4,0.8,2.5,3.1c0.1,2.4-2.5,2.8-2.5,2.8v9.9h46.3v-10.8c0,0-2.7,0.1-2.7-2.3
			c0-2.5,2.7-2.5,2.7-2.5v-10h-39.1"/>
		<path class="st21" d="M774.4,544.3c0-0.7-0.6-1.3-1.3-1.3s-1.3,0.6-1.3,1.3c0,0.1,0,0.1,0,0.1L774.4,544.3
			C774.4,544.4,774.4,544.3,774.4,544.3z"/>
	</g>
	<circle class="st21" cx="802.4" cy="531.4" r="1.3"/>
	<circle class="st21" cx="798.5" cy="526.7" r="1.3"/>
	<circle class="st21" cx="804.4" cy="526.7" r="1.3"/>
	<circle class="st21" cx="807.8" cy="531.8" r="1.3"/>
	<circle class="st21" cx="809.9" cy="527.1" r="1.3"/>
	<circle class="st21" cx="814" cy="524.4" r="1.3"/>
	<circle class="st21" cx="812.7" cy="532.5" r="1.3"/>
	<circle class="st21" cx="815.3" cy="536.7" r="1.3"/>
	<circle class="st21" cx="798.2" cy="522" r="1.3"/>
	<circle class="st21" cx="802.2" cy="518" r="1.3"/>
	<circle class="st21" cx="803.6" cy="522.4" r="1.3"/>
	<circle class="st21" cx="807.3" cy="517.8" r="1.3"/>
	<circle class="st21" cx="808.5" cy="523.1" r="1.3"/>
	<circle class="st21" cx="812.7" cy="519.1" r="1.3"/>
	<circle class="st21" cx="803.5" cy="509" r="1.3"/>
	<circle class="st21" cx="804.8" cy="513.4" r="1.3"/>
	<circle class="st21" cx="808.6" cy="508.8" r="1.3"/>
	<circle class="st21" cx="809.8" cy="514.2" r="1.3"/>
	<circle class="st21" cx="815.3" cy="529.5" r="1.3"/>
	<circle class="st21" cx="787.2" cy="531.4" r="1.3"/>
	<circle class="st21" cx="682.6" cy="465.5" r="1.3"/>
	<circle class="st21" cx="781.3" cy="532.3" r="1.3"/>
	<circle class="st21" cx="783.4" cy="528.4" r="1.3"/>
	<circle class="st21" cx="788.5" cy="526.1" r="1.3"/>
	<circle class="st21" cx="792.1" cy="533.1" r="1.3"/>
	<circle class="st21" cx="699.7" cy="461.3" r="1.3"/>
	<circle class="st21" cx="793.5" cy="527.1" r="1.3"/>
	<circle class="st21" cx="800.3" cy="506.3" r="1.3"/>
	<circle class="st21" cx="797.5" cy="516.5" r="1.3"/>
	<circle class="st21" cx="797.7" cy="502" r="1.3"/>
	<circle class="st21" cx="801.8" cy="497.9" r="1.3"/>
	<circle class="st21" cx="799.3" cy="493.6" r="1.3"/>
	<circle class="st21" cx="703.9" cy="457.7" r="1.3"/>
	<circle class="st21" cx="796.4" cy="487.4" r="1.3"/>
	<circle class="st21" cx="759" cy="461.4" r="1.3"/>
	<circle class="st21" cx="754.5" cy="460.7" r="1.3"/>
	<circle class="st21" cx="803.2" cy="502.3" r="1.3"/>
	<circle class="st21" cx="806.6" cy="503.9" r="1.3"/>
	<circle class="st21" cx="799.1" cy="511.5" r="1.3"/>
	<circle class="st21" cx="793.4" cy="521.7" r="1.3"/>
	<circle class="st21" cx="765" cy="462.4" r="1.3"/>
	<circle class="st21" cx="796.4" cy="531.4" r="1.3"/>
	<circle class="st21" cx="789.8" cy="537.2" r="1.3"/>
	<circle class="st21" cx="781.8" cy="617.2" r="1.3"/>
	<circle class="st21" cx="785.5" cy="612.7" r="1.3"/>
	<circle class="st21" cx="765.7" cy="594.2" r="1.3"/>
	<circle class="st21" cx="777.6" cy="606.9" r="1.3"/>
	<circle class="st21" cx="780.2" cy="611.9" r="1.3"/>
	<circle class="st21" cx="784.5" cy="608.7" r="1.3"/>
	<circle class="st21" cx="788.2" cy="604.1" r="1.3"/>
	<circle class="st21" cx="789.4" cy="609.5" r="1.3"/>
	<circle class="st21" cx="793.5" cy="605.5" r="1.3"/>
	<circle class="st21" cx="782.9" cy="603.3" r="1.3"/>
	<circle class="st21" cx="805" cy="583.3" r="1.3"/>
	<circle class="st21" cx="807.9" cy="579" r="1.3"/>
	<circle class="st21" cx="763.4" cy="578.3" r="1.3"/>
	<circle class="st21" cx="754.5" cy="617.9" r="1.3"/>
	<circle class="st21" cx="765.8" cy="583.7" r="1.3"/>
	<circle class="st21" cx="768.4" cy="579" r="1.3"/>
	<circle class="st21" cx="765" cy="549.2" r="1.3"/>
	<circle class="st21" cx="764" cy="573.5" r="1.3"/>
	<circle class="st21" cx="769" cy="574.2" r="1.3"/>
	<circle class="st21" cx="763.7" cy="562.1" r="1.3"/>
	<circle class="st21" cx="763.3" cy="567.4" r="1.3"/>
	<circle class="st21" cx="779.2" cy="577" r="1.3"/>
	<circle class="st21" cx="739.6" cy="631.9" r="1.3"/>
	<circle class="st21" cx="742.3" cy="628.1" r="1.3"/>
	<g>
		<path class="st10" d="M819,544.5c0-51.5-41.8-93.3-93.3-93.3s-93.3,41.8-93.3,93.3s41.8,93.3,93.3,93.3c9.6,0,18.9-1.5,27.6-4.2
			c-0.1-0.2-0.2-0.5-0.2-0.7c0-0.7,0.6-1.3,1.3-1.3s1.3,0.5,1.3,1.3c2.4-0.9,4.8-1.8,7.2-2.8c0-0.1-0.1-0.2-0.1-0.3
			c0-0.7,0.6-1.3,1.3-1.3c0.5,0,0.9,0.3,1.1,0.6C797,614,819,581.8,819,544.5z"/>
		<path class="st13" d="M765.3,628.9c-0.8,0.4-1.6,0.7-2.4,1.1"/>
		<path class="st13" d="M764.2,628.3c-0.7,0-1.3,0.6-1.3,1.3c0,0.1,0,0.2,0.1,0.3c0.8-0.3,1.6-0.7,2.4-1.1
			C765,628.5,764.6,628.3,764.2,628.3z"/>
		<path class="st13" d="M755.7,632.8L755.7,632.8c-0.8,0.2-1.6,0.5-2.4,0.7"/>
		<path class="st13" d="M754.5,631.5c-0.7,0-1.3,0.6-1.3,1.3c0,0.3,0.1,0.5,0.2,0.7c0.8-0.3,1.6-0.5,2.4-0.8
			C755.7,632,755.1,631.5,754.5,631.5z"/>
	</g>
	<circle class="st21" cx="744.6" cy="633.2" r="1.3"/>
	<circle class="st21" cx="749.3" cy="629.8" r="1.3"/>
	<circle class="st21" cx="719.4" cy="631.5" r="1.3"/>
	<circle class="st21" cx="716.6" cy="634.3" r="1.3"/>
	<circle class="st21" cx="663.4" cy="578.6" r="1.3"/>
	<circle class="st21" cx="674.8" cy="607.5" r="1.3"/>
	<circle class="st21" cx="672.6" cy="603.5" r="1.3"/>
	<circle class="st21" cx="668.1" cy="607" r="1.3"/>
	<circle class="st21" cx="670.8" cy="610.4" r="1.3"/>
	<circle class="st21" cx="689.2" cy="620.7" r="1.3"/>
	<circle class="st21" cx="685.3" cy="624.3" r="1.3"/>
	<circle class="st21" cx="695.1" cy="630" r="1.3"/>
	<circle class="st21" cx="689.6" cy="627.8" r="1.3"/>
	<circle class="st21" cx="692.7" cy="624" r="1.3"/>
	<circle class="st21" cx="702" cy="626.7" r="1.3"/>
	<circle class="st21" cx="704.4" cy="631.2" r="1.3"/>
	<circle class="st21" cx="697.4" cy="625.2" r="1.3"/>
	<circle class="st21" cx="699.7" cy="620.9" r="1.3"/>
	<circle class="st21" cx="695.1" cy="619.7" r="1.3"/>
	<circle class="st21" cx="683.3" cy="619.4" r="1.3"/>
	<circle class="st21" cx="686.6" cy="615.6" r="1.3"/>
	<circle class="st21" cx="699.7" cy="631.3" r="1.3"/>
	<circle class="st21" cx="679.9" cy="622.4" r="1.3"/>
	<circle class="st21" cx="662.1" cy="583" r="1.3"/>
	<circle class="st21" cx="664.7" cy="587.9" r="1.3"/>
	<circle class="st21" cx="666.8" cy="583" r="1.3"/>
	<circle class="st21" cx="668.3" cy="578.6" r="1.3"/>
	<circle class="st21" cx="673.4" cy="579.9" r="1.3"/>
	<circle class="st21" cx="671.2" cy="583.8" r="1.3"/>
	<circle class="st21" cx="678.2" cy="576.2" r="1.3"/>
	<circle class="st21" cx="678.1" cy="580.8" r="1.3"/>
	<circle class="st21" cx="672.5" cy="575.7" r="1.3"/>
	<circle class="st21" cx="670.3" cy="572" r="1.3"/>
	<circle class="st21" cx="675.8" cy="584.8" r="1.3"/>
	<circle class="st21" cx="675.8" cy="572.1" r="1.3"/>
	<circle class="st21" cx="685.3" cy="573.5" r="1.3"/>
	<circle class="st21" cx="682.6" cy="577" r="1.3"/>
	<circle class="st21" cx="637.2" cy="563.2" r="1.3"/>
	<circle class="st21" cx="635.8" cy="558.8" r="1.3"/>
	<circle class="st21" cx="637.3" cy="552.8" r="1.3"/>
	<circle class="st21" cx="640.2" cy="557.5" r="1.3"/>
	<circle class="st21" cx="661.1" cy="573.3" r="1.3"/>
	<circle class="st21" cx="635.9" cy="542.1" r="1.3"/>
	<circle class="st21" cx="636" cy="547" r="1.3"/>
	<circle class="st21" cx="659.6" cy="587.9" r="1.3"/>
	<circle class="st21" cx="659.6" cy="592.9" r="1.3"/>
	<circle class="st21" cx="669.1" cy="587.9" r="1.3"/>
	<circle class="st21" cx="673.9" cy="589.5" r="1.3"/>
	<circle class="st21" cx="666.4" cy="574.6" r="1.3"/>
	<circle class="st21" cx="664.1" cy="592.9" r="1.3"/>
	<circle class="st21" cx="662.8" cy="602.1" r="1.3"/>
	<circle class="st21" cx="666.8" cy="597.3" r="1.3"/>
	<circle class="st21" cx="672.5" cy="594.2" r="1.3"/>
	<circle class="st21" cx="668.2" cy="592.9" r="1.3"/>
	<circle class="st21" cx="662.1" cy="596.9" r="1.3"/>
	<circle class="st21" cx="659" cy="605.7" r="1.3"/>
	<circle class="st21" cx="667.1" cy="601.8" r="1.3"/>
	<circle class="st21" cx="663.4" cy="607.7" r="1.3"/>
	<circle class="st21" cx="666.4" cy="612.3" r="1.3"/>
	<circle class="st21" cx="671.8" cy="598.8" r="1.3"/>
	<circle class="st21" cx="658" cy="601.2" r="1.3"/>
	<circle class="st21" cx="656.4" cy="596.3" r="1.3"/>
	<circle class="st21" cx="653.8" cy="599.4" r="1.3"/>
	<circle class="st21" cx="645.5" cy="574.6" r="1.3"/>
	<g>
		<path class="st17" d="M648,570h39v-10.8c0,0-2.7,0.1-2.7-2.3c0-2.5,2.7-2.5,2.7-2.5v-10h-46.3v9.8c0,0,2.4,0.8,2.5,3.1
			c0.1,2.4-2.5,2.8-2.5,2.8v9.9h4.9"/>
		<path class="st13" d="M645.5,570.4c0,0.7,0.6,1.3,1.3,1.3s1.3-0.6,1.3-1.3c0-0.1,0-0.3-0.1-0.4h-2.5
			C645.5,570.1,645.5,570.2,645.5,570.4z"/>
		<path class="st17" d="M645.5,570h2.5"/>
	</g>
	<circle class="st21" cx="648.1" cy="579.5" r="1.3"/>
	<circle class="st21" cx="650.2" cy="574.6" r="1.3"/>
	<circle class="st21" cx="656.7" cy="571.4" r="1.3"/>
	<circle class="st21" cx="638.1" cy="568" r="1.3"/>
	<circle class="st21" cx="654.5" cy="575.5" r="1.3"/>
	<circle class="st21" cx="643" cy="579.5" r="1.3"/>
	<circle class="st21" cx="640.8" cy="574.6" r="1.3"/>
	<circle class="st21" cx="652.4" cy="579.5" r="1.3"/>
	<circle class="st21" cx="656.2" cy="581.6" r="1.3"/>
	<circle class="st21" cx="647.5" cy="584.5" r="1.3"/>
	<circle class="st21" cx="658.7" cy="578" r="1.3"/>
	<circle class="st21" cx="650.2" cy="588.9" r="1.3"/>
	<circle class="st21" cx="655.8" cy="585.8" r="1.3"/>
	<circle class="st21" cx="651.6" cy="584.5" r="1.3"/>
	<circle class="st21" cx="645.5" cy="588.4" r="1.3"/>
	<circle class="st21" cx="665.1" cy="538.2" r="1.3"/>
	<circle class="st21" cx="650.3" cy="594.2" r="1.3"/>
	<circle class="st21" cx="655.1" cy="590.4" r="1.3"/>
	<circle class="st21" cx="664.4" cy="532.4" r="1.3"/>
	<circle class="st21" cx="666.9" cy="528.8" r="1.3"/>
	<circle class="st21" cx="662.2" cy="528.5" r="1.3"/>
	<circle class="st21" cx="656.7" cy="508.1" r="1.3"/>
	<circle class="st21" cx="660.5" cy="535.3" r="1.3"/>
	<circle class="st21" cx="674.2" cy="534.8" r="1.3"/>
	<circle class="st21" cx="671.5" cy="540.1" r="1.3"/>
	<circle class="st21" cx="669.3" cy="536.1" r="1.3"/>
	<circle class="st21" cx="667.5" cy="543" r="1.3"/>
	<circle class="st21" cx="662.2" cy="541.7" r="1.3"/>
	<circle class="st21" cx="678.9" cy="534.7" r="1.3"/>
	<circle class="st21" cx="681.5" cy="539.6" r="1.3"/>
	<circle class="st21" cx="679.3" cy="542.7" r="1.3"/>
	<circle class="st21" cx="683.5" cy="534.7" r="1.3"/>
	<circle class="st21" cx="690.1" cy="531.6" r="1.3"/>
	<circle class="st21" cx="688" cy="535.6" r="1.3"/>
	<circle class="st21" cx="676.4" cy="539.6" r="1.3"/>
	<circle class="st21" cx="655.5" cy="527.1" r="1.3"/>
	<circle class="st21" cx="658.7" cy="524.4" r="1.3"/>
	<circle class="st21" cx="657.6" cy="519.6" r="1.3"/>
	<circle class="st21" cx="655.6" cy="488.7" r="1.3"/>
	<circle class="st21" cx="685.9" cy="539.6" r="1.3"/>
	<circle class="st21" cx="691.4" cy="537.4" r="1.3"/>
	<circle class="st21" cx="684.3" cy="543.3" r="1.3"/>
	<circle class="st21" cx="689.7" cy="541.7" r="1.3"/>
	<circle class="st21" cx="671.2" cy="531.6" r="1.3"/>
	<circle class="st21" cx="676.8" cy="530.4" r="1.3"/>
	<circle class="st21" cx="682" cy="530.2" r="1.3"/>
	<circle class="st21" cx="689.3" cy="545.9" r="1.3"/>
	<path class="st21" d="M693.3,547.1c-0.7,0-1.3-0.6-1.3-1.3s0.6-1.3,1.3-1.3"/>
	<circle class="st21" cx="686.3" cy="531.2" r="1.3"/>
	<circle class="st21" cx="658" cy="531" r="1.3"/>
	<circle class="st21" cx="657.4" cy="538.3" r="1.3"/>
	<circle class="st21" cx="653.7" cy="540.4" r="1.3"/>
	<circle class="st21" cx="647.9" cy="541.3" r="1.3"/>
	<circle class="st21" cx="640.6" cy="541.3" r="1.3"/>
	<circle class="st21" cx="691.4" cy="554.2" r="1.3"/>
	<circle class="st21" cx="691.1" cy="560" r="1.3"/>
	<circle class="st21" cx="687.1" cy="556.8" r="1.3"/>
	<circle class="st21" cx="690.1" cy="550" r="1.3"/>
	<circle class="st21" cx="689" cy="563.2" r="1.3"/>
	<circle class="st21" cx="654.3" cy="534.1" r="1.3"/>
	<circle class="st21" cx="652" cy="530.1" r="1.3"/>
	<circle class="st21" cx="650.3" cy="537" r="1.3"/>
	<circle class="st21" cx="647.2" cy="534.1" r="1.3"/>
	<circle class="st21" cx="643.3" cy="538.1" r="1.3"/>
	<path class="st10" d="M853.5,530.4c0-3,1.1-6.7,2.5-7.8c0.4-0.3,0.8-0.3,1.2-0.2c1.3,0.5,2.8,2.9,3.4,8.5
		c0.9,7.3,1.7,17.1,0.9,25.1c-0.6,6-1.5,10.6-3.4,11.5s-2.5-0.3-3.2-1.9c-0.7-1.6-0.7-6.2-0.7-6.2s0,0,1.1-1.1s2.5-3.4,2.8-9.4
		c0.3-5.9-0.1-12.2-1.3-15C854.9,529.8,853.5,530.4,853.5,530.4z"/>
</g>
</svg>
