<?xml version="1.0" encoding="utf-8"?>
<!-- Generator: Adobe Illustrator 27.0.0, SVG Export Plug-In . SVG Version: 6.00 Build 0)  -->
<svg version="1.1" id="helicopter" xmlns="http://www.w3.org/2000/svg" xmlns:xlink="http://www.w3.org/1999/xlink" x="0px" y="0px"
	 viewBox="0 0 783.7 274.6" style="enable-background:new 0 0 783.7 274.6;" xml:space="preserve">
<style type="text/css">
	.st0{clip-path:url(#SVGID_00000131344555646596001910000008253238079390841245_);}
	.st1{fill:none;stroke:#231F20;}
	.st2{fill:none;stroke:#231F20;stroke-linecap:round;stroke-linejoin:round;}
	.st3{fill:none;stroke:#231F20;stroke-width:0.959;}
	.st4{fill:none;stroke:#231F20;stroke-width:0.889;stroke-linecap:round;stroke-linejoin:round;}
	.st5{fill:none;stroke:#231F20;stroke-width:0.934;stroke-linecap:round;stroke-linejoin:round;}
</style>
<g>
	<defs>
		<rect id="SVGID_1_" x="149" y="36" width="422.7" height="197.6"/>
	</defs>
	<clipPath id="SVGID_00000072994213035073877460000001165606042094083735_">
		<use xlink:href="#SVGID_1_"  style="overflow:visible;"/>
	</clipPath>
	<g id="Group_679" style="clip-path:url(#SVGID_00000072994213035073877460000001165606042094083735_);">
		<path id="Path_1196" class="st1" d="M154.5,127.8c0,0,10.4,3.7,17.3,6.3c6.9,2.7,17.9,7,18.8,7.1c0.9,0.1,12.9,6.5,17,8
			c4.1,1.4,40.1,8.8,40.1,8.8l45.2,8c0,0,8.5,2.5,10.6,3.5c2.1,0.9,3.2,1.4,3.2,1.4"/>
		<path id="Path_1197" class="st2" d="M308.2,128.2l8.3-0.4c0,0,0.7,0-0.1,0.7c-1.4,1.7-2.5,3.7-2.9,5.8c-0.5,1.9-0.8,3.9-0.8,5.9
			c0,4.8,2.3,13.7,2.3,13.7s-89.1-4.6-95.8-4.6s-9.1-1.5-11.3-2.3c-2.3-0.8-5.6-5-7.2-8c-1.6-2.9-11.3-24.4-11.3-24.4
			s-8.5-17.3-10-19.5c-1.1-1.6-2.8-2.8-4.8-3.1c-0.6-0.1-15.1,30-16.4,32c0.7,1.4,1.5,2.8,2.5,4"/>
		<path id="Path_1198" class="st2" d="M318,129.4c0,0,22.2-3.3,26.9-3.6c3.1-0.2,7.9-0.5,10.5-0.7c3.7-0.2,5.9-0.2,6.5,0.1
			c0.4,0.2-3,0.3-4.8,1c-0.7,0.3-1.1,1-1,1.7v4c-1.4,0.4-2.6,1.3-3.3,2.5c-0.9,1.6-2.3,5.3-2.1,6.8c0.1,1.5,1.2,2.5,3.1,2.6
			c0.9,0.2,1.9-0.3,2.3-1.1c0.9,1,0.9,2.4,0,3.3c-1.1,1.3-2.2,2.7-3.1,4.1c-1.7,2.2-1.5,2.8-4.4,3.9c-2.9,1.1-9.1,1.5-12.6,2.8
			s-14.7,5.2-17.7,7.1c-3,1.8-6.1,2.3-8.7,4.6s-5.6,4.6-5.6,4.6"/>
		<path id="Path_1199" class="st2" d="M316.6,131c-1.1,1.9-1.8,4-2.1,6.1c-0.3,2.6-0.2,5.2,0.3,7.7c0.5,2.3,1.6,4.4,3,6.3
			c1.1,1.4,2.6,2.4,4.2,2.9l-1.4-2.2c-1.1-1-2-2.2-2.6-3.5c-1.4-2.8-2.1-6-2-9.1c0-2.3,0.5-4.6,1.5-6.8c0.6-1.2,1.4-2.3,2.3-3.3
			l-1.8,0.3C317.5,129.8,316.9,130.3,316.6,131z"/>
		<path id="Path_1200" class="st2" d="M385.1,97.1c-3.3,1.2-5.5,3.1-6.7,7.2s-0.7,5.7-0.7,5.7c1.4-1.4,3.1-2.7,4.9-3.6
			c2.6-1.2,2.3-1,2.6-2.9c0.2-1.2,0.2-3.1,1.1-4c0.6-0.6,1.4-1,2.3-1.2C390.6,98,388.5,95.9,385.1,97.1z"/>
		<path id="Path_1201" class="st2" d="M367.1,131.3c-1.2-0.1-2.4-0.1-3.5,0c-1.8,0.1-3.2,1.7-3.1,3.6c0,0,0,0,0,0
			c0.2,2.6,1.6,3.6,4,3.6c0.9,0,1.7,0,2.6,0.1V131.3z"/>
		<path id="Path_1202" class="st2" d="M320.9,131.8c-0.3-0.3-1.8-0.1-2.7,1.7c-0.8,1.9-1.3,4-1.4,6.1c-0.2,2.1,0.4,5.7,1.7,6.1
			c0.8,0.2,1.6-0.1,2-0.8c0,0,1.8-1.8,3-1.9c1.2-0.1,17.1-1.6,17.1-1.6s1-0.1,1.4-0.2c0.8-0.2-0.2-1-0.2-1c-1.1-1.2-1.8-2.8-2-4.4
			c-0.1-0.9,0-1.9,0.3-2.8c0.2-0.7,0.5-1.4,0.9-2l-19.1,1.5C321.6,132.3,321.2,132.1,320.9,131.8z"/>
		<path id="Path_1203" class="st2" d="M354.3,129.1h-5.7c-1.5,0.1-3,0.5-4.4,1.2c-1.5,1.3-2.4,3.2-2.5,5.2c0.1,3.1,2,4.6,4.4,7
			s6.8,2.9,6.8,2.9l-1.2,1.4l-8-0.3c0,0-2.7-0.1-2.7,0.8v3.8c0,0,4.7-1.1,4.1,0.8c-0.6,1.8-9.5,2.4-8.3,1.1c1.2-1.3,2.6-2.9,2.6-2.9
			l-0.1-2.6c0,0,1.6-2.1-1.2-1.6c-2.1,0.3-4.2,0.5-6.3,0.6c0,0-0.8,2.3-4.1,5.2c-1.5,1.5-3.5,2.3-5.7,2.3l-0.8-1.1"/>
		<path id="Path_1204" class="st2" d="M363.8,114.1c-1.9,1.2-3.6,3.2-1.8,3.5c1.5,0.2,3.1-0.5,4-1.7c0.8-1,1.1-1.5,0-1.7
			C365.3,114,364.5,114,363.8,114.1z"/>
		<path id="Path_1205" class="st2" d="M371.9,89.7c-0.5-0.1-3.2-0.8-3.8-1.7c-0.8-1.1,0.6-2.3,0.6-2.3c1.1-0.5,2.3-0.9,3.5-1.1
			c3.8-0.8,15.3-1.1,19.9-0.8c5.1,0.5,10.2,1.5,15.1,2.7c2.5,0.7,3.5,1.3,3.5,2.7c-0.9,0.7-1.8,1.5-2.7,2.4c-0.4,0.5-1,1-1.6,1.4
			l-2.5-1.3"/>
		<path id="Path_1206" class="st1" d="M369.2,137.3c-0.2,3.2-0.7,40.9-0.7,42.6c0,6.2,1.8,7.4,3.4,9.1c1.7,1.7,5.7,3.1,9.3,3.3
			c3.5,0.3,30.1,3.6,32,3.8c1.8,0.3,2-0.6,2-0.6c2.2-2.7,4-5.7,5.3-8.9c1.8-4.6,3.3-11.1,3.1-22c-0.3-12.5-8.9-23.6-13.2-27.3
			c-4.4-3.7-17.5-11.3-30-9.9C374.9,128.1,369.6,130.4,369.2,137.3z"/>
		<path id="Path_1207" class="st3" d="M370.3,138.3c-0.2,3.1-0.7,39.2-0.7,40.9c0,5.9,2,7.2,3.6,8.9c1.6,1.6,6.7,3.2,10.2,3.5
			c3.5,0.2,27.2,3.1,29.1,3.3c1.2,0.1,2.5-0.1,3.7-0.5c1.9-3,3.6-6.2,5-9.5c1.7-4.4,2.7-8.5,2.5-19c-0.2-12-9.7-24-13.8-27.5
			c-4.2-3.5-16.8-10.8-28.8-9.5C375.8,129.5,370.7,131.7,370.3,138.3z"/>
		<path id="Path_1208" class="st1" d="M379,117.6c5.5-3.1,11.5-5.3,17.7-6.6c5.7-1.4,10.1-3.3,13.4-3.3s17.1,0.8,27.4,3.8
			c10.8,3.1,26.4,11.5,34.9,24.3c6.9,10.3,8.1,16.3,8.4,17.9c0.2,1,0.2,2.1-0.1,3.1c-0.3,1.7-2.7,1.1-2.7,1.1
			c-5-0.5-9.9-0.7-14.9-0.6c-10.4,0.1-20.9,0.8-31.2,2.3c-2.6,0.3-4.4,0.9-5.4-1.4c-0.2-0.5-3.9-10-8.5-16.8
			c-3.9-5.7-7.8-8.9-14.3-12.4c-9.8-5.5-25.8-5.3-26.9-5.7c-1.1-0.3-3.1-1.5-1.6-3C376.3,119.3,377.6,118.4,379,117.6z"/>
		<path id="Path_1209" class="st1" d="M431.5,162.9c2-0.2,10.5-1,18.5-1.2c9.1-0.2,14.3-0.1,16.4-0.1c5.5-0.1,5.3,1.4,5.7,4.6
			c0.5,3.6,0.5,7.2,0,10.7c-0.5,5.4-1.6,12.3-3,15.1c-2.2,4.5-3.6,8-6.1,7.8s-16.4-1.2-20-1.6c-3.5-0.4-10.4-0.8-13.3-1
			c-1.9-0.1-8.5-0.3-8.9-1.1c-0.3-0.7-0.5-1.4,0.4-3.8c1.1-2.9,2.5-6.7,3.3-9.1c1.8-6.1,2.2-12.4,2.2-18.3
			C426.7,163,429.5,163,431.5,162.9z"/>
		<path id="Path_1210" class="st1" d="M476.7,162.4c3.2,0.1,6.3,0.4,9.5,1c1.1,0.2,1.2,1.3,1.2,2.5c0,1,0.3,6.7,0,11.5
			c-0.3,4.8-1.1,9.5-2.2,14.1c-1.1,3.5-3.2,8.5-3.8,8.5s-2-0.2-5.7-0.5c-1.9-0.1-3.7-0.1-5.6-0.1c-0.8,0-0.8-1.2-0.3-2
			c1.9-3.3,3.4-8.9,4.1-12.1c0.9-4.2,1.4-8.5,1.5-12.8c0-2.7-0.1-5.4-0.3-8.1C474.8,162.8,475.2,162.4,476.7,162.4z"/>
		<path id="Path_1211" class="st2" d="M491,163.9c0,0-1.8-1-1.6,1c0.3,5,0.2,10-0.1,14.9c-0.4,4.8-1.4,9.6-3,14.2
			c-0.6,1.8-2.5,5.3-2.5,5.8"/>
		<path id="Path_1212" class="st2" d="M490.2,160.4c-2.3-0.9-3.8-0.9-4.6-1.3c-0.9-0.3-1.6-1.6-1.9-3.7c-0.8-4.7-2.4-9.2-4.6-13.4
			c-2.7-5.1-6.1-9.9-10.1-14.1c-3.2-3.4-6.8-6.5-10.6-9.2c-3.3-2.2-9.3-5.3-9.3-5.3"/>
		<path id="Path_1213" class="st2" d="M425.1,109c3.5,2.5,3.5,8.6,3.3,10.4c-0.2,1.8-1.3,4.8-4.8,9.8c-1,1.4-2.5,3.3-2.5,3.3l-2,2.4
			c0,0,10.4-1.3,19,0c8.6,1.3,17.3,5.9,20.1,8.3c2,1.8,4,3.8,5.7,5.9c0,0,6.8,0.1,8.3,1.1c1.6,0.9,1.6,1.8,1.6,1.8v3.8l6.8,1.4"/>
		<path id="Path_1214" class="st1" d="M416.5,139.4c0,0,7.7-2.5,12.3-2.6c5.1-0.1,10.2,0.8,14.9,2.6c4.1,1.6,7.9,3.7,11.4,6.3
			c0.7,0.7,1.3,1.5,1.8,2.3h-5l-0.2,3.5l1,2.3l-1.1,3.9"/>
		<path id="Path_1215" class="st2" d="M405.3,79.2c7-0.8,38.1-4,53.1-6.8c17-3.1,75.4-14.9,88.5-18.5c12.7-3.5,18.1-4.4,21.3-5.5
			c1.4,1.2,2.4,2.8,2.8,4.6c1,3.5-0.9,8.5-0.9,8.5l-11.8,1.8c0,0-156.2,21.5-157.5,20.8c-0.8-0.5-0.7-1.8-0.2-3.2
			c0.5-0.8,1.2-1.3,2.1-1.6C403.6,79.1,404.5,79,405.3,79.2z"/>
		<path id="Path_1216" class="st2" d="M375.1,77.8c0.1-2.7,0.8-5.3,2.1-7.6c2.4-4.5,7.1-7.2,12.2-7c10.4,0.3,14.3,8.3,14.3,14.3
			l-0.9,1.6"/>
		<path id="Path_1217" class="st2" d="M376.3,78.1c-2.6-0.3-11.1-1.8-16.6-3c-10.1-2-52-11.1-82.2-18.6c-12-2.9-51.5-12.6-65.9-17.1
			c-11.6-3.5-15.6-4.4-23.8-0.3c-4.7,2.4-4.3,6.1-4.3,6.1s78.8,14.6,110.5,21.8c11.4,2.6,65.1,12.8,65.1,12.8s17.5,3.1,18.7,3.2
			c1.1,0.1,1.7-1.1,1.7-2.7s-0.8-2-0.8-2L376.3,78.1"/>
		<path id="Path_1218" class="st2" d="M316.7,203l1.7-1l19.8-12.5c0,0,2.3,0.3,2.8,1.3c0.3,0.6,0.3,1.3,0,1.8L320.6,204v1.7
			c0.5,0.7,1,1.3,1.4,2c0.4,0.8,0.5,0.8,0.5,0.8c-0.8-0.6-1.8-1-2.8-1.1c-1.3,0.1-2.5,0.5-3.7,1.1l-1.7-1.5l2.5-1.7L316.7,203z"/>
		<path id="Path_1219" class="st2" d="M453.2,216.4l7.4,6.3v4.6l2.3,0.1v-5.2l-9.2-8h-3.3L453.2,216.4z"/>
		<path id="Path_1220" class="st2" d="M521.2,219.4c0.7,0.5,1.1,1.2,1.2,2c0,0.4-0.3,1-0.8,0.9c-0.7-0.1-1.3-0.5-1.7-1
			c-0.3-0.4-1-1.2-0.8-1.8C519.2,218.5,520.6,219,521.2,219.4z"/>
		<path id="Path_1221" class="st4" d="M320.6,218.8c0,0,1.5,0.1,4.2,0.3c0.4-0.9,0.7-2,0.7-3c0-3.8-3.1-6.9-6.9-7l-0.3,8.4
			L320.6,218.8z"/>
		<path id="Path_1222" class="st4" d="M314.3,219.7c0.4-0.7,1-1.4,1.7-1.8l0.3-8.5c-3.7,1.2-5.7,5.1-4.5,8.7
			c0.9,2.9,3.6,4.8,6.6,4.8c0.7,0,1.5-0.1,2.2-0.3C320.6,222.7,313.6,221,314.3,219.7z"/>
		<path id="Path_1223" class="st4" d="M340.1,193.2l10.4,4.8c0,0,15.6,6.7,24.8,9.3c6.6,1.8,13.3,3.2,20.1,4.3l-5.3,3.5
			c-2.4,0.8-5,3-3.8,8.3l11,0.8c0.6-1,0.9-2.1,1-3.3c-0.1-2.3-1.4-4.4-3.4-5.5l5.3-3.4l31,2c0,0,21.9,0.8,31.2,0
			c9.3-0.8,14.1-4.4,15.6-5.6c1.5-1.1,7.1-7.8,10.4-14.5c3.3-6.7,4.2-16.4,3.7-22.5c-1.1-15.7-7.4-28-16.7-39.1
			c-9.3-11.2-25.2-19.4-37.8-23.1c-8.9-2.6-26.1-4.1-26.1-4.1h-4.1l-1.5-10.4c0,0,0.2-3.3-9.3-5.2c-5.3-1.1-14-1.4-20.6-1.2
			c-4.2,0.2-5.5,3.2-7.8,6.2c-2.3,3-4,5.3-4,5.3s-15.3,7.6-22.4,11.7c-6.5,3.8-20.3,12.8-20.3,12.8l-27.6,7.8l-69.1,7.8
			c-1.7,0.2-3.3-0.1-4.8-0.8c-2.6-1.1-18.7-31.9-21.8-37s-6.7-11.3-8.5-13.3c-2.4-2.2-5.6-3.4-8.9-3.1c-4.4,0.3-10.5,2.3-12.8,7.1
			c-0.2,0.5,0.8,0.9,2.7,0.4c0.7-0.1,1.2,0.5,0.9,1.3c-2.7,7.5-13.2,25.5-17,33.1c-1.1,0.5-3.5,0.3-4.4,0.6c-1,0.3-1,1.8-1,1.8
			s29.9,13.1,37.7,17.2c7.8,4.1,27.9,14.5,29,14.3c1.1-0.2,88,11.3,88,11.3l30.5,17.5l1.2,0.5"/>
		<path id="Path_1224" class="st4" d="M320.6,222.7c0,0,160,10.4,172.6,10.6c12.6,0.2,18.6-2.6,22.1-5.2c2.2-1.8,4.2-3.7,6.1-5.8
			c-1.5,0-2.8-2.6-2.8-2.6s-1.5,1.7-3.9,4.1c-3.7,3.4-8.4,5.4-13.4,5.6c-5.9,0.2-60.6-3.3-60.6-3.3c3.7-2.3,7.1-5.1,10.1-8.2
			c0-0.5-0.2-1-0.6-1.3c-0.6-0.5-2-1.4-2.7-0.9c-2.6,3-9.3,8.3-14.4,9.8c-5,1.5-12.5,0.2-16.7,0c-1.5-0.1-9-0.6-19.2-1.3l-10.9-0.8
			c-22.6-1.6-51.1-3.6-61.6-4.3"/>
		<path id="Path_1225" class="st4" d="M316.4,208.4v1.1"/>
		<path id="Path_1226" class="st4" d="M318.9,201.6l0.1-2.7h-2.3l-0.1,6.3"/>
		<line id="Line_49" class="st4" x1="318.5" y1="209.1" x2="318.6" y2="207.6"/>
		<path id="Path_1227" class="st5" d="M163.4,121.9l13.3-26.6c0,0,1.3-0.7,3.2,2.3c1,1.5,1.6,3.1,3.2,7.6
			c4.8,13.9,9.2,25.7,9.7,27.6c0.2,0.8,1.2,4.8,0.7,5.7c-0.8,1.1-1.8,2-2.9,2.7c0,0-31.7-11.4-30.3-13.8
			C162.1,124.4,163.4,121.9,163.4,121.9z"/>
		<path id="Path_1228" class="st2" d="M431.7,229.7c3.2-0.8,6.2-2,9-3.7"/>
		<path id="Path_1229" class="st2" d="M385.6,220.7l-33.8-2.8c-0.8,0.8-1.5,1.8-1.8,2.9"/>
		<line id="Line_50" class="st2" x1="433.9" y1="225" x2="398.1" y2="221.8"/>
		<path id="Path_1230" class="st4" d="M395.2,211.6c0.5-0.2,10.4-7,11.2-7.2c0.5-0.2,1.2-0.1,1.6,0.3c0.4,0.5,0.5,1.2,0.2,1.8
			l-8.1,5.5"/>
		<path id="Path_1231" class="st4" d="M447.6,215.8c-0.3,0.5,0.6,1.3,1.6,1.8c0.5,0.3,1.1,0.4,1.6,0.4"/>
		<path id="Path_1232" class="st1" d="M410.7,89.4c11.5,3.6,138.6,41.2,138.6,41.2s0.8,5.7-5.7,6.3C540.1,136.2,408,91.8,408,91.8
			L410.7,89.4z"/>
		<line id="Line_51" class="st2" x1="404.5" y1="86.1" x2="404.5" y2="84"/>
		<line id="Line_52" class="st2" x1="374.6" y1="83" x2="374.6" y2="84"/>
		<path id="Path_1233" class="st2" d="M487.3,165.6l-12.1,2c0,0,0.1,2.3,0.1,3.1c0.6,0,12.1-2.3,12.1-2.3L487.3,165.6z"/>
		<path id="Path_1234" class="st1" d="M413.5,142.3c0.3,0.3,1,11,1.2,12.1c0.5,2.5,0.3,8.3,1.7,10c1.7,2.1,7,3.8,7.1,3.2"/>
		<path id="Path_1235" class="st1" d="M348.6,132.2c0,2-2.6,3-4,2.7c-1.5-0.4-1.7-0.9-0.9-2.7c0.7-1.2,2.1-1.8,3.4-1.5
			C347.9,131,348.4,131.5,348.6,132.2z"/>
		<path id="Path_1236" class="st2" d="M356,133.8c-0.9,1-1.7,2-2.5,3.1c-0.8,1-1.2,2.2-1.1,3.5c0.1,0.9,0.8,1.6,1.6,1.6
			c0.8,0.2,1-0.6,2.3-1.1c1.4-0.5,10.8-0.5,10.8-0.5v-0.9c0,0-5.1-0.1-5.9-0.8c-0.9-0.6-1.6-1.4-2-2.3c-0.3-0.8-0.4-1.7-0.2-2.6
			c0.1-1,1.5-2.1,1.5-2.1l-2.9,0.4L356,133.8z"/>
	</g>
</g>
</svg>
