<svg id="helicopter" xmlns="http://www.w3.org/2000/svg" xmlns:xlink="http://www.w3.org/1999/xlink" width="422.655" height="197.595" viewBox="0 0 422.655 197.595">
  <defs>
    <clipPath id="clip-path">
      <rect id="Rectangle_422" data-name="Rectangle 422" width="422.655" height="197.595" fill="none"/>
    </clipPath>
  </defs>
  <g id="Group_679" data-name="Group 679" clip-path="url(#clip-path)">
    <path id="Path_1196" data-name="Path 1196" d="M8.044,134.577s10.434,3.683,17.322,6.274c6.888,2.66,17.936,7.024,18.823,7.093s12.889,6.547,16.981,7.979,40.1,8.8,40.1,8.8l45.215,7.979s8.525,2.523,10.639,3.478c2.114.887,3.205,1.364,3.205,1.364" transform="translate(-2.558 -42.798)" fill="none" stroke="#231f20" stroke-width="1"/>
    <path id="Path_1197" data-name="Path 1197" d="M163.48,118.354l8.32-.409s.682,0-.068.75a13.127,13.127,0,0,0-2.933,5.8,23.961,23.961,0,0,0-.818,5.933c0,4.842,2.319,13.708,2.319,13.708s-89.135-4.637-95.818-4.637-9.07-1.5-11.321-2.251-5.592-5.047-7.229-7.979S44.61,104.919,44.61,104.919s-8.525-17.254-10.025-19.5a7.386,7.386,0,0,0-4.774-3.137c-.614-.136-15.14,30.007-16.368,31.985a21.561,21.561,0,0,0,2.523,4.024" transform="translate(-4.275 -26.166)" fill="none" stroke="#231f20" stroke-linecap="round" stroke-linejoin="round" stroke-width="1"/>
    <path id="Path_1198" data-name="Path 1198" d="M241.229,134.905s22.233-3.342,26.87-3.614c3.137-.2,7.911-.546,10.5-.682,3.683-.2,5.865-.2,6.479.068.409.2-3,.273-4.842.955a1.661,1.661,0,0,0-1.023,1.7v4.024a5.192,5.192,0,0,0-3.273,2.523c-.887,1.637-2.251,5.251-2.114,6.82.136,1.5,1.228,2.455,3.069,2.592a2.135,2.135,0,0,0,2.319-1.091,2.5,2.5,0,0,1,0,3.342,48.442,48.442,0,0,0-3.137,4.092c-1.7,2.182-1.5,2.8-4.433,3.887s-9.07,1.5-12.617,2.8-14.663,5.183-17.663,7.093c-3,1.841-6.07,2.251-8.729,4.637s-5.592,4.637-5.592,4.637" transform="translate(-72.205 -41.49)" fill="none" stroke="#231f20" stroke-linecap="round" stroke-linejoin="round" stroke-width="1"/>
    <path id="Path_1199" data-name="Path 1199" d="M244.677,138.418a16.042,16.042,0,0,0-2.114,6.138,23.046,23.046,0,0,0,.341,7.706,16.219,16.219,0,0,0,3,6.274,8.636,8.636,0,0,0,4.228,2.864l-1.432-2.182a10.483,10.483,0,0,1-2.592-3.478,18.946,18.946,0,0,1-1.978-9.139,15.361,15.361,0,0,1,1.5-6.752,16.414,16.414,0,0,1,2.319-3.273l-1.773.273A4.135,4.135,0,0,0,244.677,138.418Z" transform="translate(-77.084 -43.434)" fill="none" stroke="#231f20" stroke-linecap="round" stroke-linejoin="round" stroke-width="1"/>
    <path id="Path_1200" data-name="Path 1200" d="M342.753,89.4c-3.342,1.159-5.456,3.069-6.683,7.229s-.682,5.729-.682,5.729a20.043,20.043,0,0,1,4.91-3.614c2.592-1.228,2.319-.955,2.592-2.933.2-1.228.2-3.069,1.091-4.024a3.969,3.969,0,0,1,2.251-1.159C348.209,90.287,346.163,88.172,342.753,89.4Z" transform="translate(-106.622 -28.31)" fill="none" stroke="#231f20" stroke-linecap="round" stroke-linejoin="round" stroke-width="1"/>
    <path id="Path_1201" data-name="Path 1201" d="M316.753,139.649a29.125,29.125,0,0,0-3.546,0,3.336,3.336,0,0,0-3.069,3.614c.2,2.592,1.637,3.614,4.024,3.614a18.706,18.706,0,0,1,2.591.068Z" transform="translate(-98.626 -44.392)" fill="none" stroke="#231f20" stroke-linecap="round" stroke-linejoin="round" stroke-width="1"/>
    <path id="Path_1202" data-name="Path 1202" d="M250.118,140.127c-.341-.273-1.841-.068-2.728,1.7a17.944,17.944,0,0,0-1.364,6.138c-.2,2.114.409,5.66,1.7,6.07a1.845,1.845,0,0,0,2.046-.75s1.773-1.773,3-1.91,17.118-1.569,17.118-1.569,1.023-.136,1.364-.2c.818-.2-.2-.955-.2-.955a7.387,7.387,0,0,1-1.978-4.433,6.678,6.678,0,0,1,.273-2.8,7.713,7.713,0,0,1,.887-2.046l-19.1,1.5A9.721,9.721,0,0,1,250.118,140.127Z" transform="translate(-78.229 -44.325)" fill="none" stroke="#231f20" stroke-linecap="round" stroke-linejoin="round" stroke-width="1"/>
    <path id="Path_1203" data-name="Path 1203" d="M285.588,136.577H279.86a10.338,10.338,0,0,0-4.365,1.228,7.011,7.011,0,0,0-2.455,5.183c.136,3.069,1.978,4.569,4.433,6.956s6.82,2.864,6.82,2.864l-1.228,1.364-8.047-.273s-2.728-.136-2.728.75v3.819s4.706-1.091,4.092.75-9.548,2.387-8.32,1.091,2.592-2.864,2.592-2.864l-.136-2.592s1.637-2.114-1.228-1.569a60.077,60.077,0,0,1-6.342.614s-.818,2.251-4.092,5.183a7.981,7.981,0,0,1-5.66,2.319l-.75-1.091" transform="translate(-80.282 -43.434)" fill="none" stroke="#231f20" stroke-linecap="round" stroke-linejoin="round" stroke-width="1"/>
    <path id="Path_1204" data-name="Path 1204" d="M313.738,114.529c-1.91,1.228-3.615,3.205-1.841,3.478a4.426,4.426,0,0,0,4.024-1.7c.75-.955,1.091-1.5,0-1.7A4.515,4.515,0,0,0,313.738,114.529Z" transform="translate(-98.952 -36.39)" fill="none" stroke="#231f20" stroke-linecap="round" stroke-linejoin="round" stroke-width="1"/>
    <path id="Path_1205" data-name="Path 1205" d="M324.945,76.012c-.477-.136-3.205-.818-3.819-1.7-.818-1.091.614-2.251.614-2.251a16.375,16.375,0,0,1,3.478-1.091c3.751-.75,15.345-1.091,19.914-.75a107.833,107.833,0,0,1,15.14,2.728c2.523.682,3.546,1.3,3.478,2.66a23.2,23.2,0,0,0-2.66,2.387,5.859,5.859,0,0,1-1.569,1.364l-2.455-1.3" transform="translate(-102.044 -22.288)" fill="none" stroke="#231f20" stroke-linecap="round" stroke-linejoin="round" stroke-width="1"/>
    <path id="Path_1206" data-name="Path 1206" d="M322.526,143.815c-.2,3.205-.682,40.851-.682,42.624,0,6.206,1.773,7.434,3.41,9.139,1.7,1.7,5.729,3.069,9.275,3.342s30.075,3.614,31.985,3.819c1.841.273,1.978-.614,1.978-.614a39.08,39.08,0,0,0,5.319-8.934c1.773-4.569,3.342-11.116,3.137-22.028-.273-12.548-8.934-23.6-13.23-27.279-4.365-3.683-17.459-11.321-30.007-9.889C328.255,134.677,323,137,322.526,143.815Z" transform="translate(-102.353 -42.557)" fill="none" stroke="#231f20" stroke-width="1"/>
    <path id="Path_1207" data-name="Path 1207" d="M324.126,145.51c-.2,3.069-.682,39.214-.682,40.851,0,5.933,2.046,7.229,3.615,8.934,1.637,1.637,6.683,3.205,10.161,3.478,3.478.2,27.211,3.069,29.052,3.273a9.466,9.466,0,0,0,3.683-.477,61.84,61.84,0,0,0,4.978-9.48c1.7-4.433,2.66-8.525,2.455-19.027-.2-12-9.684-24.006-13.844-27.484-4.16-3.546-16.777-10.843-28.78-9.48C329.65,136.713,324.6,138.963,324.126,145.51Z" transform="translate(-102.862 -43.229)" fill="none" stroke="#231f20" stroke-width="0.959"/>
    <path id="Path_1208" data-name="Path 1208" d="M335.184,115.066a63.472,63.472,0,0,1,17.663-6.615c5.66-1.364,10.093-3.274,13.435-3.274S383.332,106,393.7,109c10.843,3.137,26.393,11.525,34.917,24.347,6.888,10.3,8.116,16.3,8.388,17.936a8.133,8.133,0,0,1-.068,3.137c-.341,1.7-2.66,1.091-2.66,1.091a138.48,138.48,0,0,0-14.935-.614,238.743,238.743,0,0,0-31.235,2.251c-2.592.273-4.365.887-5.388-1.432-.2-.477-3.887-10.025-8.525-16.777-3.887-5.66-7.843-8.866-14.322-12.412-9.82-5.456-25.847-5.251-26.938-5.66-1.091-.341-3.137-1.5-1.637-3A21.2,21.2,0,0,1,335.184,115.066Z" transform="translate(-105.19 -33.448)" fill="none" stroke="#231f20" stroke-width="1"/>
    <path id="Path_1209" data-name="Path 1209" d="M409.129,185.484c1.978-.2,10.5-.955,18.482-1.159,9.138-.2,14.322-.068,16.436-.068,5.456-.068,5.251,1.432,5.729,4.569a42.266,42.266,0,0,1,0,10.707c-.546,5.388-1.637,12.276-3,15.072-2.182,4.5-3.615,7.979-6.138,7.775s-16.368-1.159-20.05-1.569c-3.546-.409-10.366-.818-13.3-.955-1.91-.068-8.457-.273-8.866-1.091-.341-.682-.477-1.432.409-3.751,1.091-2.864,2.523-6.683,3.273-9.139,1.841-6.138,2.182-12.412,2.25-18.277C404.355,185.552,407.151,185.62,409.129,185.484Z" transform="translate(-126.623 -58.583)" fill="none" stroke="#231f20" stroke-width="1"/>
    <path id="Path_1210" data-name="Path 1210" d="M477.149,185.374a68.31,68.31,0,0,1,9.48.955c1.091.2,1.228,1.3,1.228,2.455,0,1.023.273,6.683,0,11.457a83.181,83.181,0,0,1-2.182,14.117c-1.091,3.546-3.205,8.525-3.819,8.525s-1.978-.2-5.729-.477a53.53,53.53,0,0,0-5.592-.068c-.818,0-.818-1.159-.341-1.978,1.91-3.273,3.41-8.934,4.092-12.139a68.986,68.986,0,0,0,1.5-12.821,67.96,67.96,0,0,0-.341-8.116C475.24,185.783,475.649,185.374,477.149,185.374Z" transform="translate(-149.428 -58.951)" fill="none" stroke="#231f20" stroke-width="1"/>
    <path id="Path_1211" data-name="Path 1211" d="M498.041,187.454s-1.841-1.023-1.637.955a123.5,123.5,0,0,1-.136,14.935,58.245,58.245,0,0,1-3,14.185c-.614,1.841-2.523,5.319-2.523,5.8" transform="translate(-156.066 -59.53)" fill="none" stroke="#231f20" stroke-linecap="round" stroke-linejoin="round" stroke-width="1"/>
    <path id="Path_1212" data-name="Path 1212" d="M481.136,160.465c-2.251-.887-3.751-.887-4.637-1.3-.887-.341-1.569-1.569-1.91-3.683a45.725,45.725,0,0,0-4.637-13.435,66.86,66.86,0,0,0-10.093-14.117,68.283,68.283,0,0,0-10.639-9.207c-3.273-2.182-9.275-5.251-9.275-5.251" transform="translate(-139.911 -36.088)" fill="none" stroke="#231f20" stroke-linecap="round" stroke-linejoin="round" stroke-width="1"/>
    <path id="Path_1213" data-name="Path 1213" d="M402.109,107.077c3.546,2.523,3.478,8.593,3.342,10.366-.2,1.773-1.3,4.842-4.774,9.752-.955,1.364-2.455,3.342-2.455,3.342l-1.978,2.387s10.434-1.3,19.027,0,17.322,5.865,20.118,8.32a59.917,59.917,0,0,1,5.729,5.865s6.752.136,8.32,1.091c1.569.887,1.569,1.841,1.569,1.841v3.751l6.752,1.364" transform="translate(-126.014 -34.053)" fill="none" stroke="#231f20" stroke-linecap="round" stroke-linejoin="round" stroke-width="1"/>
    <path id="Path_1214" data-name="Path 1214" d="M392.244,150.467s7.706-2.523,12.344-2.592a40.356,40.356,0,0,1,14.935,2.592,48.98,48.98,0,0,1,11.389,6.342,11.559,11.559,0,0,1,1.841,2.319h-5.047l-.2,3.546.955,2.251-1.091,3.887" transform="translate(-124.742 -47.026)" fill="none" stroke="#231f20" stroke-width="1"/>
    <path id="Path_1215" data-name="Path 1215" d="M373.514,48.934c7.024-.818,38.123-4.024,53.126-6.752C443.621,39.046,502,27.247,515.093,23.7c12.685-3.478,18.141-4.433,21.346-5.524a8.474,8.474,0,0,1,2.8,4.569c.955,3.478-.887,8.457-.887,8.457l-11.8,1.841s-156.242,21.482-157.469,20.8c-.75-.477-.682-1.841-.2-3.205a3.539,3.539,0,0,1,2.114-1.569A6.664,6.664,0,0,1,373.514,48.934Z" transform="translate(-117.196 -5.781)" fill="none" stroke="#231f20" stroke-linecap="round" stroke-linejoin="round" stroke-width="1"/>
    <path id="Path_1216" data-name="Path 1216" d="M331.544,54.467a16.854,16.854,0,0,1,2.114-7.638,13,13,0,0,1,12.207-6.956c10.366.341,14.322,8.32,14.253,14.322l-.887,1.637" transform="translate(-105.438 -12.678)" fill="none" stroke="#231f20" stroke-linecap="round" stroke-linejoin="round" stroke-width="1"/>
    <path id="Path_1217" data-name="Path 1217" d="M243.272,42.222c-2.592-.273-11.116-1.841-16.64-3C216.538,37.175,174.6,28.1,144.385,20.671c-12-2.933-51.489-12.617-65.947-17.118C66.844.007,62.82-.88,54.636,3.212c-4.706,2.387-4.3,6.07-4.3,6.07s78.837,14.594,110.549,21.755C172.278,33.629,225.95,43.79,225.95,43.79S243.408,46.859,244.636,47c1.091.136,1.7-1.091,1.7-2.66s-.75-1.978-.75-1.978l-2.319-.136" transform="translate(-16.006 -0.159)" fill="none" stroke="#231f20" stroke-linecap="round" stroke-linejoin="round" stroke-width="1"/>
    <path id="Path_1218" data-name="Path 1218" d="M244.831,238.58l1.7-1.023,19.846-12.48s2.251.341,2.8,1.3a1.9,1.9,0,0,1,0,1.841l-20.459,11.321v1.7a20.488,20.488,0,0,1,1.432,2.046c.409.75.477.75.477.75a4.964,4.964,0,0,0-2.8-1.091,10.72,10.72,0,0,0-3.683,1.091l-1.7-1.5,2.455-1.7Z" transform="translate(-77.102 -71.579)" fill="none" stroke="#231f20" stroke-linecap="round" stroke-linejoin="round" stroke-width="1"/>
    <path id="Path_1219" data-name="Path 1219" d="M444.74,263.56l7.434,6.274V274.4l2.319.136v-5.183l-9.207-7.979h-3.342Z" transform="translate(-140.547 -83.123)" fill="none" stroke="#231f20" stroke-linecap="round" stroke-linejoin="round" stroke-width="1"/>
    <path id="Path_1220" data-name="Path 1220" d="M544.717,268.726a2.881,2.881,0,0,1,1.159,2.046c0,.409-.273,1.023-.818.887a3.125,3.125,0,0,1-1.7-1.023c-.341-.409-.955-1.159-.818-1.841C542.74,267.771,544.172,268.248,544.717,268.726Z" transform="translate(-172.531 -85.289)" fill="none" stroke="#231f20" stroke-linecap="round" stroke-linejoin="round" stroke-width="1"/>
    <path id="Path_1221" data-name="Path 1221" d="M250.531,263.461s1.5.136,4.16.273a7.182,7.182,0,0,0,.682-3,6.971,6.971,0,0,0-6.888-6.956l-.341,8.388Z" transform="translate(-78.915 -80.706)" fill="none" stroke="#231f20" stroke-linecap="round" stroke-linejoin="round" stroke-width="0.889"/>
    <path id="Path_1222" data-name="Path 1222" d="M241.14,264.575a5.241,5.241,0,0,1,1.7-1.841l.341-8.457a6.949,6.949,0,0,0,2.114,13.571,7.686,7.686,0,0,0,2.182-.341C247.414,267.576,240.39,265.871,241.14,264.575Z" transform="translate(-75.798 -80.865)" fill="none" stroke="#231f20" stroke-linecap="round" stroke-linejoin="round" stroke-width="0.889"/>
    <path id="Path_1223" data-name="Path 1223" d="M191.194,180.338l10.366,4.842s15.617,6.683,24.756,9.275a195.226,195.226,0,0,0,20.05,4.3l-5.251,3.478c-2.387.818-5.047,3-3.751,8.32l11.048.75a7.674,7.674,0,0,0,.955-3.274,6.488,6.488,0,0,0-3.41-5.524l5.251-3.41,31.03,1.978s21.892.75,31.235,0c9.275-.75,14.117-4.433,15.617-5.592,1.5-1.091,7.093-7.775,10.434-14.526,3.342-6.683,4.16-16.368,3.683-22.505-1.091-15.686-7.434-28.029-16.708-39.146-9.275-11.184-25.165-19.436-37.782-23.051-8.934-2.592-26.12-4.092-26.12-4.092h-4.092L257,81.724s.2-3.274-9.275-5.183c-5.319-1.091-13.981-1.432-20.6-1.159-4.228.2-5.524,3.205-7.775,6.206s-3.955,5.319-3.955,5.319-15.276,7.57-22.437,11.662c-6.479,3.751-20.255,12.821-20.255,12.821l-27.552,7.843-69.085,7.775a9.876,9.876,0,0,1-4.842-.75C68.642,125.166,52.479,94.34,49.41,89.294s-6.683-11.253-8.525-13.3a11.791,11.791,0,0,0-8.934-3.137c-4.433.341-10.5,2.251-12.821,7.093-.2.477.818.887,2.728.409.682-.136,1.228.477.887,1.3-2.66,7.5-13.162,25.506-16.981,33.076-1.091.546-3.546.341-4.365.614-.955.273-.955,1.841-.955,1.841s29.871,13.094,37.713,17.186c7.775,4.092,27.893,14.526,28.984,14.322s88.044,11.321,88.044,11.321l30.485,17.459,1.228.546" transform="translate(-0.141 -23.157)" fill="none" stroke="#231f20" stroke-linecap="round" stroke-linejoin="round" stroke-width="0.889"/>
    <path id="Path_1224" data-name="Path 1224" d="M251.644,270.434s159.992,10.434,172.609,10.571c12.617.2,18.618-2.592,22.1-5.183a56.194,56.194,0,0,0,6.138-5.8c-1.5,0-2.8-2.592-2.8-2.592s-1.5,1.7-3.887,4.092a21.019,21.019,0,0,1-13.367,5.592c-5.933.2-60.628-3.342-60.628-3.342a55.55,55.55,0,0,0,10.093-8.184,1.783,1.783,0,0,0-.614-1.3c-.614-.546-2.046-1.364-2.66-.887-2.592,3-9.343,8.252-14.39,9.752s-12.48.2-16.708,0c-1.5-.068-9-.614-19.232-1.3l-10.912-.75c-22.574-1.569-51.08-3.615-61.583-4.3" transform="translate(-80.028 -83.724)" fill="none" stroke="#231f20" stroke-linecap="round" stroke-linejoin="round" stroke-width="0.889"/>
    <path id="Path_1225" data-name="Path 1225" d="M245.444,252.777v1.091" transform="translate(-78.056 -80.388)" fill="none" stroke="#231f20" stroke-linecap="round" stroke-linejoin="round" stroke-width="0.889"/>
    <path id="Path_1226" data-name="Path 1226" d="M248.063,241.605l.068-2.728h-2.251l-.136,6.342" transform="translate(-78.152 -75.968)" fill="none" stroke="#231f20" stroke-linecap="round" stroke-linejoin="round" stroke-width="0.889"/>
    <line id="Line_49" data-name="Line 49" y1="1.5" x2="0.068" transform="translate(169.502 171.571)" fill="none" stroke="#231f20" stroke-linecap="round" stroke-linejoin="round" stroke-width="0.889"/>
    <path id="Path_1227" data-name="Path 1227" d="M19.691,113.542l13.3-26.6s1.3-.682,3.205,2.251c.955,1.5,1.569,3.069,3.205,7.638,4.842,13.912,9.207,25.711,9.684,27.62.2.75,1.159,4.774.682,5.66a10.82,10.82,0,0,1-2.864,2.66S15.19,121.385,16.622,118.93C18.4,116.065,19.691,113.542,19.691,113.542Z" transform="translate(-5.271 -27.628)" fill="none" stroke="#231f20" stroke-linecap="round" stroke-linejoin="round" stroke-width="0.934"/>
    <path id="Path_1228" data-name="Path 1228" d="M414.544,282.36a32.921,32.921,0,0,0,9-3.683" transform="translate(-131.833 -88.625)" fill="none" stroke="#231f20" stroke-linecap="round" stroke-linejoin="round" stroke-width="1"/>
    <path id="Path_1229" data-name="Path 1229" d="M330.343,269.573l-33.758-2.8a7.331,7.331,0,0,0-1.841,2.933" transform="translate(-93.735 -84.84)" fill="none" stroke="#231f20" stroke-linecap="round" stroke-linejoin="round" stroke-width="1"/>
    <line id="Line_50" data-name="Line 50" x1="35.804" y1="3.137" transform="translate(249.089 185.824)" fill="none" stroke="#231f20" stroke-linecap="round" stroke-linejoin="round" stroke-width="1"/>
    <path id="Path_1230" data-name="Path 1230" d="M360.944,254.062c.477-.2,10.434-7.024,11.184-7.229a1.455,1.455,0,0,1,1.569.341,1.848,1.848,0,0,1,.2,1.841l-8.116,5.524" transform="translate(-114.787 -78.468)" fill="none" stroke="#231f20" stroke-linecap="round" stroke-linejoin="round" stroke-width="0.889"/>
    <path id="Path_1231" data-name="Path 1231" d="M437.821,263.577c-.273.546.614,1.3,1.637,1.773a3.407,3.407,0,0,0,1.637.409" transform="translate(-139.22 -83.823)" fill="none" stroke="#231f20" stroke-linecap="round" stroke-linejoin="round" stroke-width="0.889"/>
    <path id="Path_1232" data-name="Path 1232" d="M382.5,78.277c11.525,3.614,138.578,41.192,138.578,41.192s.75,5.66-5.729,6.274c-3.41-.682-135.509-45.079-135.509-45.079Z" transform="translate(-120.798 -24.894)" fill="none" stroke="#231f20" stroke-width="1"/>
    <line id="Line_51" data-name="Line 51" y1="2.114" transform="translate(255.5 47.996)" fill="none" stroke="#231f20" stroke-linecap="round" stroke-linejoin="round" stroke-width="1"/>
    <line id="Line_52" data-name="Line 52" y2="1.023" transform="translate(225.561 46.973)" fill="none" stroke="#231f20" stroke-linecap="round" stroke-linejoin="round" stroke-width="1"/>
    <path id="Path_1233" data-name="Path 1233" d="M490.415,189.977l-12.071,1.978s.068,2.251.068,3.069c.614,0,12.071-2.319,12.071-2.319Z" transform="translate(-152.123 -60.417)" fill="none" stroke="#231f20" stroke-linecap="round" stroke-linejoin="round" stroke-width="1"/>
    <path id="Path_1234" data-name="Path 1234" d="M387.844,155.877c.273.341,1.023,10.98,1.228,12.139.546,2.455.341,8.252,1.7,9.957,1.7,2.114,6.956,3.819,7.093,3.205" transform="translate(-123.342 -49.572)" fill="none" stroke="#231f20" stroke-width="1"/>
    <path id="Path_1235" data-name="Path 1235" d="M290.265,140.316c0,2.046-2.591,3-3.955,2.66-1.5-.409-1.7-.887-.887-2.66a3.026,3.026,0,0,1,3.41-1.5A2.744,2.744,0,0,1,290.265,140.316Z" transform="translate(-90.619 -44.104)" fill="none" stroke="#231f20" stroke-width="1"/>
    <path id="Path_1236" data-name="Path 1236" d="M301.843,142.459a35.947,35.947,0,0,0-2.523,3.069,4.656,4.656,0,0,0-1.091,3.478,1.811,1.811,0,0,0,1.637,1.637c.818.2.955-.614,2.251-1.091,1.364-.477,10.775-.546,10.775-.546v-.887s-5.115-.068-5.933-.818a5.411,5.411,0,0,1-1.978-2.319,4.483,4.483,0,0,1-.2-2.592c.068-.955,1.5-2.114,1.5-2.114l-2.933.409Z" transform="translate(-94.832 -44.611)" fill="none" stroke="#231f20" stroke-linecap="round" stroke-linejoin="round" stroke-width="1"/>
  </g>
</svg>
