<?xml version="1.0" encoding="utf-8"?>
<svg viewBox="7.68 65.82 454.148 39.664" xmlns="http://www.w3.org/2000/svg">
  <polygon fill="#231F20" points="353.152 67.01 353.152 104.296 378.933 104.296 378.933 98.345 359.892 98.345 359.892 88.034 372.983 88.034 372.983 82.084 359.892 82.084 359.892 72.96 378.137 72.96 378.137 67.01" style=""/>
  <polygon fill="#231F20" points="451.913 67.01 441.601 93.189 431.686 67.01 421.373 67.01 421.373 104.296 427.719 104.296 427.719 73.357 427.719 73.357 439.22 104.296 443.98 104.296 455.484 73.357 455.484 73.357 455.484 104.296 461.828 104.296 461.828 67.01" style=""/>
  <polygon fill="#231F20" points="90.181 67.01 90.181 104.296 115.168 104.296 115.168 98.345 96.922 98.345 96.922 88.034 111.202 88.034 111.202 82.084 96.922 82.084 96.922 72.96 115.168 72.96 115.168 67.01" style=""/>
  <polygon fill="#231F20" points="121.515 67.01 121.515 104.296 146.503 104.296 146.503 98.345 128.257 98.345 128.257 88.034 142.537 88.034 142.537 82.084 128.257 82.084 128.257 72.96 146.503 72.96 146.503 67.01" style=""/>
  <polygon fill="#231F20" points="180.218 67.01 180.218 94.775 180.218 94.775 180.218 94.775 161.973 67.01 152.851 67.01 152.851 104.296 159.592 104.296 159.592 75.736 159.989 75.736 178.63 104.296 186.959 104.296 186.959 67.01" style=""/>
  <polygon fill="#231F20" points="267.872 67.01 257.56 93.189 247.645 67.01 237.332 67.01 237.332 104.296 243.677 104.296 243.677 73.357 244.076 73.357 255.577 104.296 259.94 104.296 271.443 73.357 271.841 73.357 271.841 104.296 278.186 104.296 278.186 67.01" style=""/>
  <g transform="matrix(3.966378, 0, 0, 3.966378, 7.68043, 65.82029)" style="">
    <path fill="#231F20" d="M48.7,2.8c0-0.9,0.8-1.2,1.5-1.2c0.7,0,1.2,0.2,1.3,0.7h1.6c0-0.7-0.4-1.2-0.5-1.4c-0.5-0.6-1.2-0.8-2.2-0.9 c-1.8,0-3.5,0.9-3.5,2.8c0.1,3.4,4.7,2.2,4.8,4.2c0,0.9-0.9,1.3-1.6,1.3c-0.8,0-1.6-0.3-1.9-1h-1.8c0,0.7,0.5,1.2,0.5,1.2 c0.8,0.9,2,1.3,3.1,1.3c1.9,0,3.5-1,3.4-3C53.4,3.6,48.7,4.7,48.7,2.8"/>
    <path fill="#231F20" d="M80.9,2.8c0-0.9,0.8-1.2,1.5-1.2c0.7,0,1.2,0.2,1.3,0.7h1.6c-0.1-0.7-0.4-1.2-0.5-1.4 c-0.5-0.6-1.2-0.8-2.2-0.9c-1.8,0-3.5,0.9-3.5,2.8c0.1,3.4,4.7,2.2,4.8,4.2c0,0.9-0.9,1.3-1.6,1.3c-0.8,0-1.6-0.3-1.9-1h-1.8 c0,0.7,0.5,1.2,0.5,1.2c0.8,0.9,2,1.3,3.1,1.3c1.9,0,3.5-1,3.4-3C85.6,3.6,81,4.7,80.9,2.8"/>
    <path fill="#231F20" d="M5.1,0C2.1,0,0,2,0,5C0,8,2.1,9.9,5.1,9.9c1,0,1.9-0.2,2.6-0.6L8.3,10l1.2-1.1L9,8.3c0.8-0.8,1.2-2,1.2-3.3 C10.2,1.9,8.1,0,5.1,0 M7.8,7L7.2,6.3L6,7.4l0.6,0.7c-0.4,0.2-1,0.3-1.5,0.3c-2,0-3.3-1.5-3.3-3.5c0-1.9,1.3-3.4,3.3-3.4 c2,0,3.3,1.5,3.3,3.4C8.4,5.7,8.2,6.4,7.8,7"/>
    <path fill="#231F20" d="M17.5,6.2c0,0.9-0.5,2.1-2.1,2.1c-1.6,0-2.1-1.2-2.1-2.1V0.3h-1.7v5.9c0,2.3,1.7,3.7,3.8,3.7 c2.2,0,3.8-1.4,3.8-3.7V0.3h-1.7V6.2z"/>
    <path fill="#231F20" d="M75.8,6.2c0,0.9-0.5,2.1-2.1,2.1c-1.6,0-2.1-1.2-2.1-2.1V0.3h-1.7v5.9c0,2.3,1.7,3.7,3.8,3.7 c2.2,0,3.8-1.4,3.8-3.7V0.3h-1.7V6.2z"/>
    <path fill="#231F20" d="M100.9,6.2c0,0.9-0.5,2.1-2.1,2.1c-1.6,0-2.1-1.2-2.1-2.1V0.3H95v5.9c0,2.3,1.7,3.7,3.8,3.7 c2.2,0,3.8-1.4,3.8-3.7V0.3h-1.7V6.2z"/>
  </g>
</svg>