<svg id="skyline" xmlns="http://www.w3.org/2000/svg" xmlns:xlink="http://www.w3.org/1999/xlink" width="648" height="432" viewBox="0 0 648 432">
  <defs>
    <clipPath id="clip-path">
      <path id="Path_681" data-name="Path 681" d="M0,0H648V432H0Z" fill="none"/>
    </clipPath>
  </defs>
  <g id="Mask_Group_2" data-name="Mask Group 2" clip-path="url(#clip-path)">
    <path id="Path_678" data-name="Path 678" d="M268.325,349.757l-36.3-1.163-1.729-7.082-6.711-8.668-1.22-36.784-6.406-7.188-17.184.317-4.271,6.448H184.033l-.813-6.871H164.408l-7.118,20.295.61,34.036H136.955l-.915-37.418-3.254-3.594V284.962l-6.609-4.757V270.27L121.7,267.1v-3.277l-5.592-4.334v-2.537l-4.372-3.277-.2-2.96-3.864-3.277V243.95l-3.559-2.325H85.606l-3.559,3.065v2.22l-4.881,3.382v2.643l-5.084,3.382v4.122L67.405,265.3v4.862l-6.1,6.659v8.033l-4.372,6.659v9.83l-2.44,4.228v10.465l-33.046,1.9L.5,345s0,64.189,0,66.409c0,9.607,5.123,16.535,14.681,16.535l616.745.062,6.446-.106c6.573,0,9.109-3.608,9.109-9.315,0-4.017-.084-37.874-.084-37.874L631.425,341.83l-69.142-.528-2.339,34.564V409.69l-10.575.634-3.355-8.879-8.541.74-4.067,4.545-.142,8.637-17.386-.151-.164-18.422-10.27-23.783H464.466l-8.236,9.83H415.355V348.383H382.817L374.581,359.9l-.407-19.343-6.813-.106-.61-51.371-10.473-4.545-.61-91.326-6.1-6.342H322.419l-2.237,10.676H304.625L300.558,207.8l.508,21.457H289.475l-1.22,14.481,1.322,53.7-6.2,13.636-1.322,21.035-5.389,3.7-8.338,13.953" transform="translate(0.008 3.993)" fill="none" stroke="#231f20" stroke-linecap="round" stroke-linejoin="round" stroke-width="1"/>
    <path id="Path_679" data-name="Path 679" d="M.5,292.966H7.211l7.423-10.929.305-5.209,5.694-6.945.2-7.354,8.541-11.746h9.66l.2,8.784,6.1.919v4.494H49.1l1.017-25.636,4.474-7.456H65.306l.778-89.267,11.388-11.95H133.8l9.049,10.52v58.422" transform="translate(0.008 2.792)" fill="none" stroke="#070707" stroke-linecap="round" stroke-linejoin="round" stroke-width="1"/>
    <path id="Path_680" data-name="Path 680" d="M.5,295.747C.5,213.63.576,23.737.576,18.12.576,7.191,7.109.5,17.786.5H638.438c6.171,0,9.04,2.606,9.04,9.633,0,3.779-.079,151.415-.079,151.415l-9.06-.007-7.321,10.112-.305,145.238L617.9,290.436l-4.169-6.945h-7.626V209.033l-3.355-15.32h-65.99l-5.186,13.278L529.541,370.92l-9.66-2.043V317.3l-9.863-10.724V218.43l-3.355-5.209H473.719l-1.729,9.09v134H456.433l.508-85.182L451.96,259.8H418.913l-1.525,19-8.338,15.831-2.237,37.382h-22.98l-.915-144.013L376.31,169.2H351.195l-.1-4.188V159.4l-3.254-.715-.305-4.6s-2.339-3.473-12.913-3.473c-11.287,0-11.388,3.677-11.388,3.677l-.61,3.473-3.66.715v11.235h-24.3l-7.016,15.423V216.9h-22.37l-2.034-4.7-.813-50.864-12.913-10.214h-52.06l-11.9,12.461v11.031l-6.508,7.252v21.347l-35.995-1.021" transform="translate(0.008 0.011)" fill="none" stroke="#000" stroke-linecap="round" stroke-linejoin="round" stroke-width="1"/>
  </g>
</svg>
