<?xml version="1.0" encoding="utf-8"?>
<!-- Generator: Adobe Illustrator 27.0.0, SVG Export Plug-In . SVG Version: 6.00 Build 0)  -->
<svg version="1.1" id="skyline" xmlns="http://www.w3.org/2000/svg" xmlns:xlink="http://www.w3.org/1999/xlink" x="0px" y="0px"
	 viewBox="0 0 648 432" style="enable-background:new 0 0 648 432;" xml:space="preserve">
<style type="text/css">
	.st0{clip-path:url(#SVGID_00000170984122322217083380000001258677432836405399_);}
	.st1{fill:none;stroke:#231F20;stroke-linecap:round;stroke-linejoin:round;}
	.st2{fill:none;stroke:#070707;stroke-linecap:round;stroke-linejoin:round;}
	.st3{fill:none;stroke:#000000;stroke-linecap:round;stroke-linejoin:round;}
</style>
<g>
	<defs>
		<rect id="SVGID_1_" width="648" height="432"/>
	</defs>
	<clipPath id="SVGID_00000176027170759418130570000005926882557132962491_">
		<use xlink:href="#SVGID_1_"  style="overflow:visible;"/>
	</clipPath>
	<g id="Mask_Group_2" style="clip-path:url(#SVGID_00000176027170759418130570000005926882557132962491_);">
		<path id="Path_678_00000085966199226225854520000005052352078059700893_" class="st1" d="M15.2,431.9"/>
		<path id="Path_678_00000017512148530669343360000004666318350710685348_" class="st2" d="M268.3,353.8l-36.3-1.2l-1.7-7.1
			l-6.7-8.7l-1.2-36.8l-6.4-7.2l-17.2,0.3l-4.3,6.4H184l-0.8-6.9h-18.8l-7.1,20.3l0.6,34H137l-0.9-37.4l-3.3-3.6V289l-6.6-4.8v-9.9
			l-4.5-3.2v-3.3l-5.6-4.3v-2.5l-4.4-3.3l-0.2-3l-3.9-3.3v-3.5l-3.6-2.3H85.6l-3.6,3.1v2.2l-4.9,3.4v2.6l-5.1,3.4v4.1l-4.7,4.9v4.9
			l-6.1,6.7v8l-4.4,6.7v9.8l-2.4,4.2V320l-33,1.9L0.5,349c0,0,0-53.3,0-53.2h6.7l7.4-10.9l0.3-5.2l5.7-6.9l0.2-7.4l8.5-11.7H39
			l0.2,8.8l6.1,0.9v4.5h3.8l1-25.6l4.5-7.5h10.7l0.8-89.3l11.4-11.9h56.3l9,10.5v58.4"/>
		<path id="Path_680_00000125599675436072960890000008651904722763960254_" class="st3" d="M143.1,202.2l36,1v-21.3l6.5-7.3v-11
			l11.9-12.5h52.1l12.9,10.2l0.8,50.9l2,4.7h22.4v-31.8l7-15.4H319v-11.2l3.7-0.7l0.6-3.5c0,0,0.1-3.7,11.4-3.7
			c10.6,0,12.9,3.5,12.9,3.5l0.3,4.6l3.3,0.7v5.6l0.1,4.2h25.1l6.6,18.8l0.9,144h23l2.2-37.4l8.3-15.8l1.5-19h33l5,11.3l-0.5,85.2
			H472v-134l1.7-9.1h32.9l3.4,5.2v88.1l9.9,10.7v51.6l9.7,2l2-163.9l5.2-13.3h66l3.4,15.3v74.5h7.6l4.2,6.9l12.8,26.5l0.3-145.2
			l7.3-10.1l9.1,0l0.6,223.6l-16.5-39.3l-69.1-0.5l-2.3,34.6v33.8l-10.6,0.6l-3.4-8.9l-8.5,0.7l-4.1,4.5l-0.1,8.6l-17.4-0.2
			l-0.2-18.4L505.5,377h-41l-8.2,9.8h-40.9v-34.5h-32.5l-8.2,11.5l-0.4-19.3l-6.8-0.1l-0.6-51.4l-10.5-4.5l-0.6-91.3l-6.1-6.3h-27.1
			l-2.2,10.7h-15.6l-4.1,10.3l0.5,21.5h-11.6l-1.2,14.5l1.3,53.7l-6.2,13.6l-1.3,21l-5.4,3.7l-8.3,14"/>
	</g>
</g>
</svg>
