<?xml version="1.0" encoding="utf-8"?>
<!-- Generator: Adobe Illustrator 27.0.0, SVG Export Plug-In . SVG Version: 6.00 Build 0)  -->
<svg version="1.1" id="unisphere" xmlns="http://www.w3.org/2000/svg" xmlns:xlink="http://www.w3.org/1999/xlink" x="0px" y="0px"
	 viewBox="0 0 677.6 355.1" style="enable-background:new 0 0 677.6 355.1;" xml:space="preserve">
<style type="text/css">
	.st0{clip-path:url(#SVGID_00000005228739679332914730000000390246570052316572_);}
	.st1{fill:none;stroke:#1A1818;}
	.st2{fill:none;stroke:#1A1818;stroke-linecap:round;stroke-linejoin:round;}
</style>
<g>
	<defs>
		<rect id="SVGID_1_" x="193" y="38" width="300.6" height="272.1"/>
	</defs>
	<clipPath id="SVGID_00000161633936885536375970000010245289121009214380_">
		<use xlink:href="#SVGID_1_"  style="overflow:visible;"/>
	</clipPath>
	<g id="Group_92" style="clip-path:url(#SVGID_00000161633936885536375970000010245289121009214380_);">
		<path id="Path_165" class="st1" d="M459.6,155.2c0,64.4-55.1,116.6-119.5,116.6s-113.7-52.2-113.7-116.6
			c0-64.4,52.2-116.6,116.6-116.6S459.6,90.8,459.6,155.2L459.6,155.2z"/>
		<path id="Path_166" class="st1" d="M347.2,46.8c2.8-0.5,4.8-0.9,7.7-1.2"/>
		<path id="Path_167" class="st1" d="M318.6,55.8c2.1-1,4.2-1.9,6.3-2.7"/>
		<path id="Path_168" class="st1" d="M263.3,102.5c3.5-5.2,7.4-10,11.6-14.6"/>
		<path id="Path_169" class="st1" d="M274.3,241.4c-17.9-20.2-28.7-46.7-28.7-78.1c0-3.6,0.1-7.6,0.4-11.1"/>
		<path id="Path_170" class="st1" d="M294.8,125.9c18.1-37.3,50.9-61.5,82.1-67.3c4.3-0.8,14.4-1.3,23.3-0.2"/>
		<path id="Path_171" class="st1" d="M295.5,251.5c-8.1-19.2-16-37.6-14.9-65.1"/>
		<path id="Path_172" class="st1" d="M318.6,255.3c13-6.7,25.4-14.5,37.2-23.3"/>
		<path id="Path_173" class="st1" d="M427.2,110.7c-0.9,9.1-2.6,18-5.2,26.7"/>
		<path id="Path_174" class="st1" d="M425.6,84.5c0.7,2.9,1.2,5.8,1.5,8.8"/>
		<path id="Path_175" class="st1" d="M398.4,234.8c-20.1,19.8-40.7,29.4-64.5,31.2"/>
		<path id="Path_176" class="st1" d="M430.5,189.9c-2,3.9-4.3,7.8-6.7,11.6c-2.2,3.5-5.9,9.7-8.2,12.9"/>
		<path id="Path_177" class="st1" d="M232,119.3c-11.4-15-15.5-28.4-11.4-35.2c12.2-20.3,71-0.6,140.2,38.2
			c67.8,38,114.2,86.9,102.2,107.1c-5.1,8.6-20.6,11.2-39.4,8.5"/>
		<path id="Path_178" class="st1" d="M455.4,124.1c10.3,5.7,21.1,16.5,21.5,25.6c1.3,29.1-52.1,48.6-124.8,54.7
			c-72.3,6.1-141.1-14.9-141.2-40.7c-0.1-13.1,5.7-18.1,17-26.6"/>
		<line id="Line_5" class="st1" x1="357.5" y1="116.3" x2="379" y2="63"/>
		<line id="Line_6" class="st1" x1="302.6" y1="252.5" x2="346.2" y2="144.5"/>
		<path id="Path_179" class="st1" d="M364.8,57.5c6.5,2.6,12.6,5.2,19.8,8"/>
		<path id="Path_180" class="st1" d="M330.2,70.9l54.8,20.5"/>
		<path id="Path_181" class="st1" d="M429.6,190.1l21.3,8.3"/>
		<path id="Path_182" class="st1" d="M299,139.1c23.1,9,49.3,19.3,73.4,28.7"/>
		<path id="Path_183" class="st1" d="M234,113.8c0.1,0,4.5,1.7,11.9,4.5"/>
		<path id="Path_184" class="st1" d="M417.5,229.2c6.4,2.5,10.7,4.2,10.7,4.2"/>
		<path id="Path_185" class="st1" d="M289.3,179.4c21.6,8.4,45.9,17.8,68.1,26.4"/>
		<path id="Path_186" class="st1" d="M226.4,155.2c0.2,0,9.9,3.4,25.9,9.6"/>
		<path id="Path_187" class="st1" d="M270.1,208.1c48.5,18.8,126.7,49.3,126.7,49.3"/>
		<path id="Path_188" class="st1" d="M232.6,193.6c0.2,0,8.9,3.3,23.2,8.9"/>
		<path id="Path_189" class="st1" d="M319.3,252.5c23.6,9.1,44,17,44,17"/>
		<path id="Path_190" class="st1" d="M284.9,239.2c7.5,2.9,15.9,6.1,23.8,9.2"/>
		<path id="Path_191" class="st1" d="M248.9,225.3c0.2,0,13.5,5.1,31.7,12.1"/>
		<path id="Path_192" class="st1" d="M257.5,110.9c-1.1,1.2-2.4,2.2-3.9,2.9c-0.7,0.2-1.4,0.3-2.2,0.3c-0.6,0.1-1.7,0.6-2.2,0.7
			c-0.5,0.1-1.3,0.2-1.7,0.7c-1.9,2.6-1.9,7.3-3,9.7c-1.1,2.5-0.9,3.2-2.9,5.4c-2,2.2-2.3,2.3-2.3,6.7c0.1,1.5,0.6,3,1.4,4.2
			c1.5,2.1,2.7,4.4,3.5,6.8c0.7,2.9,0.8,2.7,5.4,7.7c1.5,1.6,2.3,3.6,2.5,5.8c0,1.6,0.2,3.7,0.3,4.4c0.1,2,0.1,4-0.1,6
			c-0.1,2,0.1,4,0.4,6c0.3,2.8-0.2,4.4-0.3,7.8c-0.1,2.7,0.1,5.4,0.7,8c1.7,5.7,3.1,9.5,3.7,12.2c0.3,0.8,0.6,1.7,1,2.5
			c1.3,3.6,0.9,0.2,2.9,3.8c2,3.6,0.5,1.7,3.1,5.9c0.3,0.5,2.1,2.7,3.2,3.2c0.9,0.4,1.9,0.4,2.7,1c1.4,1.1,2.9,2.2,3.5,2.6
			c1.2,0.6,2.5,1,3.8,1.4c1.3,0.4,2.4,1.7,3.5,0.6c2-1.8,2.2-3,0-4.4c-0.7-0.5-1.8-1.8-3.1-2.1c-1.3-0.4-2.4-1.2-3.2-2.3
			c-0.5-0.7-0.9-1.3-1.3-1.8c-1-1.2-1.2-0.6-2.4-2.6c-1.1-1.8-1-2.9-0.7-3.6c0.4-1.1,0.2-2.1-0.1-5c-0.4-4.9,0.1-2.7,0.3-4.2
			c0.2-1.2-0.3-3.2,0.1-3.8c0.3-0.5-0.2-0.8,0.9-2.1c1.5-1.7,1.5-1.1,2.1-2.2c0.8-1.1,1.4-2.4,1.9-3.7c0.3-2.2,1.4-3.1,2.6-3.2
			c0.4,0,0.3,1,0.8,0.8c2-0.7,3.9-1.8,5.6-3.1c1.3-1.1,4.4-2.1,5.7-4.6c1.2-2.4-0.8-3.1,0.6-5.1c1-1.5,3.5-4.2,5.8-4.6
			c0.8-0.1,3.2-0.1,4.1-0.2c1-0.1,1.9-0.3,2.8-0.6c1.2-0.2,1.4-2.2,1.8-3.1c0.7-1.6,1.9-1.7,3.8-1.8c2.1-0.1,4.5-1.7,6.1-3.4
			c1.6-1.7,1.3-1.8,1.1-4.6c-0.2-2.7-1.3-2.8-2.9-5.5c-1.6-2.7-3.6-2.2-6.8-2.9c-3.2-0.7-2.8-1.6-5-3.1s-1.8-6.7-2-8
			c-0.2-1.3,0-5-1.3-6.1c-0.9-0.9-1.6-1.9-2.1-3.1c-1.1-1.7-2.9-2.8-5-3c-1.4-0.2-2.7-0.7-3.9-1.3c-0.8-0.5-0.3-1.2-1.3-2.8
			s0.6-2.4-2.1-4c-1.8-1.1-3.6-0.8-5.5-1.2c-0.9-0.2-1.2-1.1-2.5-1.3c-1.6-0.2-2.8-2.4-4.7-3.2c-1.4-0.7-2.9-1-4.4-0.9
			c-1.1,0.2-2.8,0.5-3.4,0.6c-0.6,0-0.5-0.8-0.4-1.2c0-0.7,0.1-1.3,0.3-2c0.2-0.5,0.5-0.8,0.7-1.4c0.1-0.9,0.1-1.7,0.1-2.6
			c0-0.9-0.2-1.8-0.4-2.7c-0.2-0.7-1-0.5-1.1-1.3c-0.1-1-0.1-2,0-3c0-0.8,0.3-1.5,0.9-2.1c1.1-0.8,1.4-0.5,2.1-2.1s-0.1-1.7,0.3-3.1
			c0.3-1.3,0-2.2,0.9-3c2.5-2.2,3.8-1.6,3.8-1.6c1.4,0.8,2,0.1,2.2,0.9c0.2,0.6,0.2,1.1,0.2,1.7c0,0.3,0.3,0.5,0.3,0.8
			c0,0.5,1,0.4,2.4-0.2c1.1-0.4,1.3,0.2,2,0c0.7-0.2,0.8-0.6,2.3,0.2c1.1,0.5,2.2,0.9,2.1,2.4c-0.1,1-0.1,2.1-0.1,2.9
			c0,1,0.4,2.1,0.7,2.3c1.1,0.5,1.2-0.2,1.9-1.3c0.3-0.9,0.5-1.7,0.6-2.6c0.4-0.8,0.6-1.6,0.8-2.5c0-1.2-0.3-3.7,1.7-5.8
			c2.1-1.9,4.6-3.4,7.3-4.4c1.5-0.2,5.3-2.9,6.4-4c2.7-2.9,2.3-3.5,4.1-4.3s3.1-1.8,5.9-1.9c2.8-0.1,4.3-0.4,6.5,0
			c1.2,0.2,6.5,1.6,4.8,3.3c-1.7,1.7-0.7,0.7-1.4,1.9c-1.5,2.8-0.1,2.6,2.1,2.9s2.7-1.5,3.4-2.5s2.7-1.2,3.2-1.9
			c0.4-0.7-0.1-1.3,0.1-3.5c0.2-2.1,1.3-2.3,1.9-2.3c0.6,0,2.9,1.3,3.5-0.1c0.6-1.4,1-1.4,0.6-3.3c-0.4-1.9,0.6-2.9,0.7-3.4
			c0.1-0.6-0.6-1.8-2.4-1.8c-1,0-1.9,0-2.4,0c-0.3,0-0.6-0.1-0.7-0.3c-0.2-0.3-0.3-0.6-0.3-1c-0.1-0.7,0.1-1.3,0.6-3.2
			c0.6-2.5,5.9-4.2,5.8-2.7c-0.1,1.6-1.1,2.9,1.2,3.5s1.7,0,2.6-0.7c0.9-0.7,1.2-2.7,3.5-2.2c2.3,0.5,4.6,2.4,3.8,3.4
			c-0.8,1-3.2,0-4,2.5s-2.2,3-0.9,3.6c1.3,0.6,3.3-0.3,6.1,0c2.8,0.3,3-0.7,5.7-1.6c2.7-0.9,4.3,1.4,6.6,0.7c2.5-1,4.5-2.9,5.7-5.2
			c1-2.2-0.1-3.5,1.9-5c2-1.6,1.4-0.6,2.5-1.1c1.1-0.5,2.3-1,2.5,0.1s0.9,4.8,0.7,5.7c-0.2,0.9-1.3,3,0.3,2.6
			c1.7-0.4,2.9-0.5,4.1-1.6c1.2-1.1,6.2-1.6,6.2-1.6c1.1,0.5,2.3,0.8,3.6,1c2.7,0.6,2.7,1.6,5.2,1c2.6-0.6,4.8,0,5.3,0.8
			c0.6,0.8,0.2,2.9,0.7,5.7c0.4,2.8,0.4,6.2,1.9,6.2c1.5,0,2.5,2,2.1-1.2c-0.3-3.2-2.8-3.5,0.1-4.1c2.8-0.7,7.1-0.5,8.4-0.8
			c0.8-0.2-12.8-10.7-32-17.3c-13.5-4.6-37.5-6.2-37.5-6.2c-33.1,0-61.5,11.9-82.7,34c-3.3,3.5-3.4,5-2.7,7.5
			c0.2,0.6,0.4,2.4,0.5,2.9c0.1,0.9,0,1.8-0.2,2.7c-0.3,0.9-0.5,1.8-0.7,2.7c-0.4,3.2,0.3,3.6,0.5,5.7c0.4,2.8,1.8,6.5,1.2,12.3
			C258.7,108.1,258.2,109.6,257.5,110.9z"/>
		<path id="Path_193" class="st1" d="M264.1,242.5c0.9-0.1,1.8-0.4,2.7-0.8c1-0.4,2.1-0.7,3.2-0.8c0.9-0.1,1.7-0.1,2.6,0
			c1.7,0.2,2.1,0.5,2.6,0.4c1.6-0.5,1.8,1.1,2.5,1.5c1.4,0.8,1.4,0.8,2.3,0c0.9-0.7,0.8-0.4,0.7-1.2c-0.1-0.5,0.4-0.5,0-2.4
			c-0.8-3.7-0.7-3.4-0.3-4.2c0.2-0.3-0.3-1.3,0.3-2c0,0-0.4-0.5,2-1.3c0.7-0.3,0.9,0.8,1.4,2.7c0.2,0.6,0.7,0.6,0.8,1.7
			c0.5,4.2-0.1,3.2,0.8,5.6s0.8,1,0.5,2.8c-0.1,0.6,1.4,0.6,1.8,0.9c1,1,2,0.9,2.7,1.3c2.3,1.6,1.6,2.8,3.3,3.7
			c2.3,1.1,2.7,1.9,4.3,2.1s4,1.7,4.7,0c0.7-1.7,0.4,0,2.5-1.6s2-1.3,3.7-2.6s1.2-0.4,2.8-1.8s1.5-1.8,2.4-2.3c0,0,0.3-0.3,1.5-0.1
			c0.4,0.1,1.3-0.2,1.9,0.3c1.1,0.7,0.5,2.7,0.7,3.3c0.2,0.7,1.2,1,1.3,1.9c0.2,0.9,0.2,1.9-0.1,2.8c-0.1,0-0.1,2.7-0.3,2.8
			c-0.4,0.8-0.2,1.7,0.4,2.2c1,0.6,0.1,0.5,2.1,1c2,0.5,0.4,0.3,2,0.5c1.3,0.3,2.5,0.8,3.6,1.6c0.4,0.6,0.8,1.3,1.1,2
			c0.2,0.7,1.1,1,1.1,1c1,0.4,1.9,0.9,2.7,1.6c0.5,0.5,1.3,0.8,2,0.9c3.6-0.3,7.2-0.8,10.8-1.5c2.7-0.8,0.5,2.6,2.3,3
			c1.6,0.4,2.4,0.5,3.2,0c0.6-0.4,1.3-0.6,2-0.8c1.2,0,2.6-0.5,3.7,0c2.5,1,5.9,2.5,5.9,2.5v0.7l-3.3,0.6c-6.1,1-12.3,1.4-18.4,1.4
			c-14.5-0.3-25.8-2-37.8-6.4c-9.3-3.3-18.1-7.8-26.2-13.3c-2.8-2-9.6-7.4-9.6-7.4L264.1,242.5z"/>
		<path id="Path_194" class="st1" d="M412.5,62.1c0.9,0.9,1.5,2.1,1.7,3.4c0.1,2-1.3,2.9-2.7,3.9c-1.3,1,0.3,1.5-6.9,2.2
			c-7.2,0.7-6.9-4-6.9-4.8s-4.5-4.2-6-3.7c-1.5,0.5-5.8,2.2-7.2,2.5c-1.4,0.3-1,2.4-2.2,3.9c-1.2,1.5-0.8,4.8-3.4,8.2
			s-2.1,3.9-1.8,5.7c0.3,1.8,2-0.2,5.2-3.5c3.2-3.3,1.5-1.2,5.9-2.2c4.3-1,2-2.8,3.8-4.6c1.8-1.8,3.7,1.7,8,1.7s3,1.7,3.7,4.7
			c0.7,3,2.8,1.8,4.5,1c1.7-0.8,4.2-2,4.8-2.7c0.7-0.7,4.2,2.9,5.1,4.4c0.9,1.5-0.4,2.5-0.9,4.2c-0.5,1.7-6.2-0.3-9-0.8
			c-2.8-0.4-3.2,0.6-5.3,0s-6-4.1-6.1-4.1s-0.6,2.2-1.7,2.8c-1.2,0.7,0-1.2-3.8-2c-3.8-0.8-6,1.5-5.7,4.5c0.3,3-1.3,5.3-2.1,6.7
			c-0.9,1.2-2.2,2-3.7,2.2c-3.2,0.6-1.3-0.8-3.3-2.3c-1.5-0.4-3,0.2-3.9,1.4c-1.4,2,1,2.4-1.9,5.9s-0.6,5.4,0.9,6.6s0,0.6,3.3,2.3
			c2.6,1.4,3.1,0.6,5.6-0.4s2.3-0.3,3.3-0.2s2.1-1.2,2.3-3.3s-0.8-5.8,0.3-6.6c1.2-0.8,1.8-3.1,3.4-2.3c2.9,1.1,5.8,2,8.8,2.8
			c1.2,0.3,1.5,2,1.8,3.8c0.3,1.8,1.7,9,1.5,9.7c-0.6,1.9-1,3.9-1.2,5.9c0,2,1.8,1.2,2.5,3c0.8,3,0.8,6.1,0,9
			c-0.8,3.2-0.8,0.8-2.7,1c-1.8,0.2-0.5-1.8-0.7-3.7s-1.5-2.5-3.3-4c-1.8-1.5-2.9-1.4-3.7-2.9s-0.4-2.9-1.6-4.4
			c-1.2-1.4-2.9-2.2-4.7-2.1c-1.5,0.1-1.3,2.1-4.8,1.4c-3.5-0.7-3.3-1.8-7-3.3c-3-1.3-6.6-0.9-9.2,1.1c-1.3,0.9-2.6,1.7-4.1,2.4
			c-1.9,0.1-3.8,0.5-5.6,1.2c-3.3,1.2-4.2,4.9-5.3,6.4c-0.9,1.4-2.1,2.6-3.5,3.6c-2.6,2.2-4.3,6.2-2.5,9.4c0.6,1,0.3,5,0.7,6
			c0.4,1,3.1,2.2,4.1,4.2c1,2,1.4,4.6,2.8,5.7c1.1,0.8,3.5,0.5,6.2,0.5c1.8,0.1,3.5,0.8,4.9,1.9c2.5,1,3,0,5.3,0
			c1.3,0,2.5,0.5,3.1,3.9c0.4,2.2,1,3.7,0.4,4.9c-0.5,1.1-0.6,3.5-0.8,5.9s-0.8,1.7-2,3.2c-1.2,1.5-0.7,3-0.8,3.5s-0.3,1.9,1.6,4
			c0.9,1.1,0.9,3.7-0.3,5.6c-1.2,1.8-1.9,2.5-3.5,4.6c-0.9,1.1-0.6,2.7-2.5,6.7c-0.5,1-2.3,1.5-3.8,3s-3,6.7-3,7.7
			c0.1,1.9-0.2,3.7-0.8,5.5c-1,3.3-2.2,3.7-2.8,6.4c-0.6,2.5-0.9,5.1-0.7,7.7c0.2,2.5,2.9,4.3,2.9,4.3s4.9,3.1,6.1,2.8
			c1.6-0.5,2.9-1.6,3.6-3.1c0.7-1.5,1.6-2.1,4.5-3.2c1.7-0.4,3.4-0.7,5.1-0.8c1.5-0.1,2.9-0.6,4.1-1.6c0.6-0.7,2.2-2,3.6-3.3
			c1-1.1,2.2-2,3.5-2.7c1-0.5,2-1.3,3.3,0c1.3,1.3-0.3,3.1,4.7,3.4l3.3,0.2c0,0-1.3-0.1,1,0.1c0.8,0,1.4,0.6,1.5,1.4
			c0,0.1,0,0.2,0,0.3c0,0.8-1.1,1.5-1.9,1.8c-1,0.4-1.8,1-2.6,1.8c-0.8,0.9-0.9,2.9-0.8,3.4c0.5,1,1.3,1.8,2.4,2.2
			c2.3,1.1,4.7,1.3,8-0.1c1.8-0.8,3.2-0.2,4.3-0.8c1.2-0.6,2.5-1,3.8-1.2c1.3-0.4,2.5-1.1,3.5-2.1c1-0.9,0.7-2.6,1.7-4.7
			c1-2,2.2-2.3,4.3-4.2c1.5-1.3,1.9-3.4,3.4-4.9s4.2-3.7,4.7-4.5c1.2-1.8,1.9-3.9,2-6.1c0-0.7,0.1-1.7-0.4-2.1
			c-1-0.6-2.4-0.4-3.2,0.5c-1.3,2-2.1,4.4-3.9,6.1c-1.4,1.6-3.5,2.5-5.7,2.3c-2.7,0-4.8,2-6.8,3.3c-1.5,0.8-2.9,1.8-4.2,2.8
			l-2.7,2.2c-1.8,0.8-3.8-0.2-6.1-1c-2.1-0.8-4.7,0.2-4.3-1.5c0.6-2.7,1.6-4,3.4-5c3.3-1.6,6.2-3.8,8.6-6.5c1.4-1.5,4.5-3.2,5.3-6
			c0.7-2,1.7-3.8,2.9-5.5c2.2-2.1,1.9-3.2,4.9-4.7c1-0.5,4.1-1.9,6.6-1.4c2.8,0.5,5.7-0.8,7.2-3.2c1.8-2.7,3.4-4,4.4-4.5
			s2.7-2.5,5.2-5.3c2.5-2.8,2.8-5.3,3.8-7.7c1-2.3,1.5-4.7,0.7-6.3c-0.8-1.7-2.9-1.2-3.8,0.5c-0.3,0.6-2.7,5.1-3,5.4
			c-1.5,1.4-1.9,0.6-2.3-0.5c-0.3-0.8,0.2-3.3,0.7-5.1c0.2-1.3,0.9-2.4,1.9-3.1c0.7-0.4,2.5-0.7,3.7-1.8c1.4-1.3,2.4-1.5,3.7-2.1
			s3.2-1,3.9,0c0.7,1,1,1.3,1,2.1s-2,1.6-2.2,3.2c-0.2,1.3-0.1,2.7,0.2,4c0.7,2.4,1.1,4.8,1.4,7.2c0.1,1.4,1.2,5.3,1.1,7.1
			c-0.1,2.3-1.3,4.7-1.5,6.4c-0.1,1,0.5,2,1.4,2.5c25.9-16.1,38.5-35,38.5-52.9c0-39.4-76.7-54.3-158.9-41
			c-21.6,3.4-42.9,8.7-63.5,15.8c-49.7,17.6-81.4,44-76.5,72c2.8,15.9,22.6,33.5,49.9,41.7c0,0,3,1,5.2,1.6"/>
		<path id="Path_195" class="st1" d="M347.2,45.1c0.1-0.6,0.2-2.6,2.2-2.3c2,0.3,1.6-0.6,3.7,1.1c2.1,1.7,2.9,2.5,2.3,4.4
			c-0.2,0.6,0.3,2.1-1,2.6c-2.1,0.8-3.6,1.7-5.3,0.1c-0.7-0.6-1.2-1.3-1.7-2C346.7,47.8,346.7,46.4,347.2,45.1z"/>
		<path id="Path_196" class="st1" d="M328.1,45.1c0,0-8.7,3.4-9,4c-0.3,0.7-2.2,6-0.4,6.6s1.5,1.7,4.3,1.3s2.6,0.8,2.6-1.7
			s-3.2-3.3,0-5c3.2-1.7,4.3-1.2,4.5-2.9C330.3,45.6,328.1,45.1,328.1,45.1z"/>
		<path id="Path_197" class="st1" d="M430.1,96.3c0.5,0.7,2.6,1.6,3.9,0.7c1.3-0.9,2.7-1,3.4-2.5c0.7-1.5-0.4-2.7-0.7-5.1
			c-0.3-1.8-2-3.1-4.4-4.1c-2.5-1-2.5-1.5-3.8-1.5s-5.4,2-5.6,4.1c-0.2,2.1-0.5,5.3,1.9,5.3c2.4,0,3.2-0.4,3.9,0.6
			S429.6,95.7,430.1,96.3z"/>
		<path id="Path_198" class="st1" d="M407.3,101.5c1.8,0,1.8,0,3.2,2.8c1.4,2.8,0.3,5.3,2.6,6.4c2.2,1.1,2.7,3,3.7,4.4s1,4,2.4,5.8
			c0.2,0.2,1.4,0.6,0.9,2.7c-0.4,2.1,0.2,4.5,1.2,5c1,0.4,1.3,1.1,1.5-1.6c0.2-2.7-1.4-3.8,0-5.8c1-1.7,1.7-3.6,2.2-5.5
			c0.4-1.1-0.7-1.8-0.3-3.8c0.4-2,1.9-1.2,2.4-1.2c2.1,0.3,1.5-0.6,3.9,0.2s3.2,0.9,3.2,2.3s0.3,2.1-1.1,3.7s-2.8,2.6-4,2.5
			c-1.2-0.1-1.5-0.3-2,0.8s-2.2,3.7-1.9,4.9c0.2,1.4,0.8,2.8,1.7,4c0.4,0.5,1,0.7,1.6,0.7c1.4,0.1,2.8,0.2,3.6-0.4
			c1.2-1,1.9-0.7,2.1-0.7c0.6,0.3,1.1,0.7,1.5,1.1c0.2,0.2,0.4,0.2,0.9,2.7c0.1,0.7,0.7,0.9-0.1,3.2c-0.8,2.3-1.9,2.7-2.9,3.5
			c-1,0.8-2.6,0.7-3.3,0.9s-1.7-1.2-2.4-1.4c-0.7-0.1-1.4,0.1-2,0.5c-0.8,0.4-2.3,0.6-3.1-0.3s-2.5-3.1-2.9-3.6
			c-0.4-0.6-2.6-4.8-4-5.2c-1.1-0.4-2.3-0.7-3.4-0.7c-0.7,0.1-2.4,0.6-2,1.9c0.3,1.3,0.8,2.8-0.4,3c-1.2,0.2-2.5,0.7-2.8-0.2
			c-0.3-0.9-0.9-0.9-0.8-3.2c0.1-2.3,0.7-5.9,0.8-7.9c0-2,0-4.6-0.8-5.4c-1-0.9-0.5-1.4,1.9-0.7s2.2,0.7,3,0.7s1.2-1.2,1.1-2.4
			c0-1.1-2.4-2.6-3-3s-4.1-2-3.5-4s-1.4-3.7-0.1-5.1L407.3,101.5z"/>
		<path id="Path_199" class="st1" d="M431.4,147.9c-0.1-0.9-0.6-1.6-1.9-0.8c-1.3,0.8-1.7,1.1-1.6,4c0.1,2.8-0.5,3.7,1.3,4.9
			s2.4,1.5,2.8,2.7c0.3,0.7,0.8,2.8,0,3.6c-0.6,0.6-1,1.5-1.1,2.4c-0.1,1-0.1,1.9,0.2,2.8c0.1,0.8,0.7,1.4,1.4,1.6
			c0.9,0.4,1.9,0,2.3-0.9c0-0.1,0.1-0.2,0.1-0.3c0.3-0.9,0.4-1.8,0.4-2.8c0-1.1,0.1-2.1,0.3-3.1c0.3-1.5,0.1-3-0.4-4.5
			c-0.5-1.2-1.2-2.3-2.1-3.4c-0.7-0.7-1.1-1.6-1.2-2.6c-0.1-0.4-0.1-1-0.2-2.1C431.5,148.8,431.4,147.9,431.4,147.9z"/>
		<path id="Path_200" class="st1" d="M449.3,173.9c-1.2,0.9-2.1,2-2.7,3.3c-0.5,1.1-0.7,2.3-0.5,3.4c0.2,0.9,1,1.5,1.9,1.5
			c0.9,0.2,1.8,0,2.6-0.4c1.3-0.7,2.3-1.1,2.3-1.9c-0.1-1.1-0.5-2.2-1-3.2C451,174.2,450.5,173.5,449.3,173.9z"/>
		<path id="Path_201" class="st1" d="M303.1,63c-1.9,0.2-2.3,1-2.3,1.9s-1.3,1.6,0.5,1.7c1,0,1.9-0.1,2.8-0.3c1,0,2,0,2.9-0.3
			c0.7-0.3,2.7,0.1,1.7-1.2c-0.4-0.5,0.2-1-0.8-1.3C306.4,63.1,304.7,63,303.1,63z"/>
		<path id="Path_202" class="st1" d="M293.2,62.1c-0.8,0-1.6-0.3-2.2-0.8c-0.5-0.6-0.3-1.7-1.3-0.7c-1,1-1.2,0.1-1.1,1.5
			c0.1,1.4-0.3,1.4,0,2.7s0.9,1.8,1.9,1.8c0.6,0,1.3,0,1.9,0c0.6,0.1,0.6,0.1,1.3-1.1c0.7-1.1,1.8-1.6,0.7-2.5L293.2,62.1z"/>
		<path id="Path_203" class="st2" d="M295.4,268.4l27.5,41h40l25.2-41.7l-8.4,2.3c0,0-12.5,26.1-37.9,26.7
			c-22.6,0.6-35.7-25-35.7-25L295.4,268.4z"/>
	</g>
</g>
</svg>
