<svg id="unisphere" xmlns="http://www.w3.org/2000/svg" xmlns:xlink="http://www.w3.org/1999/xlink" width="300.632" height="272.085" viewBox="0 0 300.632 272.085">
  <defs>
    <clipPath id="clip-path">
      <rect id="Rectangle_175" data-name="Rectangle 175" width="300.632" height="272.085" fill="none" stroke="#707070" stroke-width="1"/>
    </clipPath>
  </defs>
  <g id="Group_92" data-name="Group 92" clip-path="url(#clip-path)">
    <path id="Path_165" data-name="Path 165" d="M267.955,117.221c0,64.386-55.116,116.583-119.5,116.583S34.791,181.607,34.791,117.221a116.582,116.582,0,1,1,233.164,0Z" transform="translate(-1.373 -0.025)" fill="none" stroke="#1a1818" stroke-width="1"/>
    <path id="Path_166" data-name="Path 166" d="M160.488,9.124c2.84-.518,4.847-.92,7.695-1.2" transform="translate(-6.332 -0.312)" fill="none" stroke="#1a1818" stroke-width="1"/>
    <path id="Path_167" data-name="Path 167" d="M130.788,18.383q3.127-1.435,6.311-2.689" transform="translate(-5.16 -0.619)" fill="none" stroke="#1a1818" stroke-width="1"/>
    <path id="Path_168" data-name="Path 168" d="M73.178,66.523A124.747,124.747,0,0,1,84.761,51.916" transform="translate(-2.887 -2.048)" fill="none" stroke="#1a1818" stroke-width="1"/>
    <path id="Path_169" data-name="Path 169" d="M83.471,208.066c-17.854-20.218-28.738-46.657-28.738-78.14,0-3.608.076-7.638.406-11.141" transform="translate(-2.159 -4.686)" fill="none" stroke="#1a1818" stroke-width="1"/>
    <path id="Path_170" data-name="Path 170" d="M105.988,88.7c18.12-37.32,50.882-61.494,82.108-67.345,4.347-.815,14.406-1.267,23.332-.222" transform="translate(-4.182 -0.81)" fill="none" stroke="#1a1818" stroke-width="1"/>
    <path id="Path_171" data-name="Path 171" d="M106.136,219.642c-8.119-19.154-15.978-37.621-14.9-65.069" transform="translate(-3.596 -6.098)" fill="none" stroke="#1a1818" stroke-width="1"/>
    <path id="Path_172" data-name="Path 172" d="M130.76,225.251a269.918,269.918,0,0,0,37.156-23.3" transform="translate(-5.159 -7.968)" fill="none" stroke="#1a1818" stroke-width="1"/>
    <path id="Path_173" data-name="Path 173" d="M243.56,75.692a138.809,138.809,0,0,1-5.245,26.707" transform="translate(-9.402 -2.986)" fill="none" stroke="#1a1818" stroke-width="1"/>
    <path id="Path_174" data-name="Path 174" d="M242.194,48.364a65.392,65.392,0,0,1,1.5,8.791" transform="translate(-9.555 -1.908)" fill="none" stroke="#1a1818" stroke-width="1"/>
    <path id="Path_175" data-name="Path 175" d="M211.173,204.866c-20.079,19.774-40.691,29.409-64.527,31.169" transform="translate(-5.786 -8.083)" fill="none" stroke="#1a1818" stroke-width="1"/>
    <path id="Path_176" data-name="Path 176" d="M246.691,158.087q-3.023,5.838-6.713,11.648c-2.221,3.487-5.9,9.686-8.179,12.857" transform="translate(-9.145 -6.237)" fill="none" stroke="#1a1818" stroke-width="1"/>
    <path id="Path_177" data-name="Path 177" d="M40.109,82.9C28.662,67.945,24.565,54.541,28.671,47.7,40.848,27.425,99.682,47.08,168.9,85.885c67.779,38,114.2,86.865,102.214,107.137-5.111,8.647-20.6,11.2-39.437,8.524" transform="translate(-1.07 -1.562)" fill="none" stroke="#1a1818" stroke-width="1"/>
    <path id="Path_178" data-name="Path 178" d="M263.111,89.594c10.264,5.719,21.1,16.533,21.493,25.632,1.254,29.116-52.118,48.564-124.846,54.723-72.3,6.123-141.065-14.911-141.195-40.7-.065-13.149,5.655-18.08,16.978-26.561" transform="translate(-0.732 -3.535)" fill="none" stroke="#1a1818" stroke-width="1"/>
    <line id="Line_5" data-name="Line 5" y1="53.289" x2="21.485" transform="translate(164.547 24.988)" fill="none" stroke="#1a1818" stroke-width="1"/>
    <line id="Line_6" data-name="Line 6" y1="107.966" x2="43.529" transform="translate(109.632 106.519)" fill="none" stroke="#1a1818" stroke-width="1"/>
    <path id="Path_179" data-name="Path 179" d="M178.874,20.263c6.546,2.634,12.559,5.189,19.786,8.014" transform="translate(-7.057 -0.799)" fill="none" stroke="#1a1818" stroke-width="1"/>
    <path id="Path_180" data-name="Path 180" d="M142.791,34.254l54.78,20.485" transform="translate(-5.634 -1.351)" fill="none" stroke="#1a1818" stroke-width="1"/>
    <path id="Path_181" data-name="Path 181" d="M246.338,158.371l21.262,8.322" transform="translate(-9.719 -6.248)" fill="none" stroke="#1a1818" stroke-width="1"/>
    <path id="Path_182" data-name="Path 182" d="M110.4,105.225c23.077,9.009,49.291,19.255,73.367,28.67" transform="translate(-4.356 -4.151)" fill="none" stroke="#1a1818" stroke-width="1"/>
    <path id="Path_183" data-name="Path 183" d="M42.667,78.919c.1,0,4.453,1.67,11.863,4.542" transform="translate(-1.683 -3.114)" fill="none" stroke="#1a1818" stroke-width="1"/>
    <path id="Path_184" data-name="Path 184" d="M233.72,199.022c6.378,2.477,10.691,4.182,10.691,4.182" transform="translate(-9.221 -7.852)" fill="none" stroke="#1a1818" stroke-width="1"/>
    <path id="Path_185" data-name="Path 185" d="M100.255,147.231c21.6,8.369,45.917,17.8,68.063,26.4" transform="translate(-3.955 -5.809)" fill="none" stroke="#1a1818" stroke-width="1"/>
    <path id="Path_186" data-name="Path 186" d="M34.791,122.009c.161,0,9.869,3.4,25.871,9.577" transform="translate(-1.373 -4.814)" fill="none" stroke="#1a1818" stroke-width="1"/>
    <path id="Path_187" data-name="Path 187" d="M80.291,177.053c48.54,18.839,126.748,49.345,126.748,49.345" transform="translate(-3.168 -6.985)" fill="none" stroke="#1a1818" stroke-width="1"/>
    <path id="Path_188" data-name="Path 188" d="M41.2,162.008c.17,0,8.857,3.34,23.154,8.876" transform="translate(-1.625 -6.392)" fill="none" stroke="#1a1818" stroke-width="1"/>
    <path id="Path_189" data-name="Path 189" d="M131.532,223.273c23.586,9.116,43.995,17.017,43.995,17.017" transform="translate(-5.189 -8.809)" fill="none" stroke="#1a1818" stroke-width="1"/>
    <path id="Path_190" data-name="Path 190" d="M95.684,209.433c7.462,2.877,15.907,6.137,23.833,9.2" transform="translate(-3.775 -8.263)" fill="none" stroke="#1a1818" stroke-width="1"/>
    <path id="Path_191" data-name="Path 191" d="M58.18,195.045c.194,0,13.508,5.143,31.651,12.135" transform="translate(-2.295 -7.695)" fill="none" stroke="#1a1818" stroke-width="1"/>
    <path id="Path_192" data-name="Path 192" d="M66.442,72.972A11.494,11.494,0,0,1,62.5,75.831a7.931,7.931,0,0,1-2.173.316c-.63.144-1.659.56-2.187.7-.473.122-1.282.223-1.658.724-1.915,2.553-1.9,7.264-3.009,9.715s-.891,3.185-2.9,5.415S48.29,94.981,48.29,99.44a7.712,7.712,0,0,0,1.449,4.235,23.6,23.6,0,0,1,3.454,6.8c.669,2.9.755,2.666,5.4,7.678a9.2,9.2,0,0,1,2.452,5.807c.036,1.6.2,3.692.279,4.4a33.275,33.275,0,0,1-.111,5.963,29.881,29.881,0,0,0,.39,5.962c.3,2.838-.195,4.442-.283,7.839a30.705,30.705,0,0,0,.729,8.039c1.713,5.692,3.114,9.52,3.678,12.208a20.02,20.02,0,0,0,1,2.451c1.309,3.567.892.224,2.9,3.789s.463,1.726,3.128,5.95c.322.509,2.1,2.739,3.245,3.229.893.382,1.936.392,2.71,1.019,1.417,1.146,2.941,2.209,3.511,2.577a17.2,17.2,0,0,0,3.751,1.352c1.334.443,2.386,1.668,3.549.633,2.006-1.788,2.179-2.965,0-4.4-.726-.476-1.839-1.839-3.065-2.118a5.488,5.488,0,0,1-3.169-2.332c-.487-.657-.886-1.316-1.289-1.791-1.017-1.2-1.226-.613-2.4-2.618-1.058-1.814-.982-2.863-.724-3.622.388-1.144.157-2.056-.111-4.983-.446-4.873.085-2.74.334-4.211.208-1.223-.256-3.243.111-3.789.317-.473-.244-.823.892-2.062,1.532-1.671,1.473-1.131,2.124-2.171a14.37,14.37,0,0,0,1.887-3.736c.335-2.174,1.434-3.105,2.552-3.178.373-.025.29,1,.791.838a19.1,19.1,0,0,0,5.573-3.12c1.337-1.115,4.449-2.149,5.676-4.574s-.772-3.116.565-5.123c1-1.5,3.457-4.224,5.795-4.569.78-.114,3.166-.111,4.068-.223a23.115,23.115,0,0,0,2.842-.557c1.189-.247,1.4-2.215,1.784-3.121.669-1.56,1.924-1.669,3.788-1.783,2.118-.129,4.458-1.672,6.072-3.4s1.284-1.839,1.061-4.583-1.337-2.83-2.9-5.5-3.566-2.229-6.805-2.9-2.779-1.56-4.952-3.121-1.839-6.686-2.017-8.024,0-5.015-1.271-6.074a9.035,9.035,0,0,1-2.118-3.065,6.457,6.457,0,0,0-4.959-3.009,12.107,12.107,0,0,1-3.907-1.333c-.8-.519-.27-1.188-1.328-2.8s.61-2.437-2.065-4c-1.837-1.071-3.606-.807-5.489-1.226-.858-.191-1.154-1.081-2.535-1.263-1.617-.213-2.842-2.387-4.661-3.242a7.968,7.968,0,0,0-4.395-.87c-1.069.214-2.827.548-3.432.58s-.452-.768-.421-1.169a11.3,11.3,0,0,1,.264-1.993c.165-.494.494-.807.675-1.366a13.475,13.475,0,0,0,.1-2.567,11.857,11.857,0,0,0-.411-2.666c-.194-.664-1.012-.546-1.085-1.316a21.735,21.735,0,0,1-.016-2.994,3.21,3.21,0,0,1,.855-2.106c1.112-.84,1.437-.5,2.106-2.057s-.055-1.714.28-3.051.02-2.211.891-3.009c2.452-2.245,3.789-1.56,3.789-1.56,1.449.78,2.047.067,2.229.9a6.043,6.043,0,0,1,.217,1.7c-.015.262.27.523.3.844.047.53.975.378,2.412-.184,1.052-.413,1.274.184,2,0,.657-.167.815-.56,2.311.184,1.059.526,2.219.852,2.137,2.386-.053.992-.145,2.141-.149,2.883-.006.984.364,2.118.745,2.286,1.115.491,1.22-.228,1.888-1.342a22,22,0,0,0,.648-2.6,10.684,10.684,0,0,0,.8-2.513c0-1.226-.349-3.7,1.739-5.776a22.6,22.6,0,0,1,7.316-4.426c1.546-.242,5.347-2.939,6.394-4.044,2.739-2.9,2.295-3.47,4.123-4.346s3.128-1.8,5.906-1.9,4.253-.441,6.476,0c1.247.247,6.511,1.622,4.839,3.294s-.728.719-1.4,1.945c-1.528,2.8-.053,2.648,2.118,2.871s2.66-1.533,3.392-2.537,2.738-1.226,3.184-1.894-.112-1.337.11-3.455,1.338-2.34,1.9-2.34,2.9,1.337,3.455-.111,1-1.408.557-3.268.557-2.862.669-3.42-.623-1.8-2.429-1.849c-1.04-.026-1.89-.022-2.422-.014a.785.785,0,0,1-.719-.306,2.325,2.325,0,0,1-.342-.972c-.112-.675.108-1.318.563-3.21.607-2.524,5.906-4.236,5.795-2.675s-1.114,2.9,1.226,3.455,1.749-.016,2.61-.685,1.152-2.743,3.521-2.189c2.333.547,4.563,2.428,3.786,3.431s-3.244,0-4.016,2.451-2.176,3.007-.863,3.566,3.32-.336,6.106,0,3.009-.668,5.685-1.559,4.346,1.449,6.575.669a10.861,10.861,0,0,0,5.685-5.238c1-2.229-.112-3.455,1.894-5.015s1.393-.558,2.507-1.115c1.074-.537,2.285-1,2.509.111s.89,4.793.668,5.685-1.323,2.974.338,2.582,2.9-.465,4.065-1.579,6.184-1.56,6.184-1.56a17.009,17.009,0,0,0,3.566,1c2.675.557,2.675,1.56,5.239,1s4.792,0,5.349.78.223,2.9.669,5.685.446,6.241,1.9,6.241,2.451,2.007,2.117-1.226-2.768-3.469.064-4.131,7.054-.47,8.392-.8c.786-.2-12.76-10.667-31.954-17.3C176,2.167,151.905.639,151.905.639,118.769.639,90.422,12.491,69.2,34.686c-3.346,3.5-3.369,5.018-2.727,7.5.154.6.432,2.38.526,2.945a9.494,9.494,0,0,1-.247,2.731,24.562,24.562,0,0,0-.72,2.682c-.386,3.172.254,3.55.543,5.685.38,2.8,1.766,6.526,1.165,12.33A12.883,12.883,0,0,1,66.442,72.972Z" transform="translate(-1.905 -0.025)" fill="none" stroke="#1a1818" stroke-width="1"/>
    <path id="Path_193" data-name="Path 193" d="M74.056,212.485a10.7,10.7,0,0,0,2.7-.785,11,11,0,0,1,3.2-.774,9.86,9.86,0,0,1,2.582,0c1.678.151,2.095.533,2.6.371,1.639-.524,1.842,1.126,2.462,1.488,1.364.8,1.351.767,2.27,0,.863-.719.846-.4.673-1.239-.1-.462.415-.512,0-2.369-.836-3.738-.674-3.443-.26-4.189.166-.3-.3-1.253.26-1.951,0,0-.355-.492,1.951-1.325.7-.253.912.806,1.351,2.656.151.634.66.572.774,1.652.451,4.235-.116,3.176.775,5.628s.793.98.465,2.788c-.1.568,1.45.563,1.761.872,1,1,2,.878,2.679,1.349,2.324,1.6,1.581,2.847,3.305,3.665,2.306,1.1,2.709,1.9,4.269,2.119s4.012,1.659,4.681,0,.447,0,2.452-1.56,1.965-1.324,3.658-2.557,1.194-.434,2.754-1.771,1.534-1.839,2.375-2.324c0,0,.3-.3,1.5-.1.449.072,1.3-.168,1.91.257,1.058.741.5,2.715.671,3.305.192.653,1.159,1.046,1.277,1.866a5.9,5.9,0,0,1-.1,2.781c-.084-.032-.128,2.7-.315,2.794a1.759,1.759,0,0,0,.436,2.237c.994.645.1.5,2.108,1.016s.446.3,2.006.522a11.679,11.679,0,0,1,3.63,1.56,12.516,12.516,0,0,1,1.066,2.006c.208.669,1.1.966,1.1.966a8.776,8.776,0,0,1,2.685,1.59,3.111,3.111,0,0,0,2.022.881,91.09,91.09,0,0,0,10.806-1.531c2.682-.772.539,2.552,2.322,3,1.618.4,2.354.451,3.18.037a8.846,8.846,0,0,1,2.013-.826c1.22,0,2.571-.473,3.725-.026,2.465.954,5.92,2.481,5.92,2.481v.686l-3.315.566A118.074,118.074,0,0,1,150,241.735c-14.488-.347-25.783-1.993-37.774-6.368a115,115,0,0,1-26.2-13.346c-2.809-2-9.62-7.447-9.62-7.447Z" transform="translate(-2.922 -7.957)" fill="none" stroke="#1a1818" stroke-width="1"/>
    <path id="Path_194" data-name="Path 194" d="M219.532,25.089a5.464,5.464,0,0,1,1.686,3.379c.139,2.019-1.337,2.893-2.675,3.9s.334,1.5-6.853,2.173-6.854-4.012-6.854-4.848-4.514-4.179-6.018-3.713-5.8,2.208-7.189,2.491-1,2.392-2.174,3.9-.836,4.848-3.4,8.157-2.119,3.88-1.785,5.718,2.007-.167,5.182-3.511,1.505-1.17,5.852-2.207,2.006-2.808,3.845-4.647,3.678,1.672,8.024,1.672,3.008,1.671,3.677,4.681,2.842,1.838,4.514,1,4.179-2.006,4.849-2.709,4.179,2.876,5.095,4.381-.414,2.507-.915,4.179-6.186-.334-9.028-.769-3.176.6-5.349,0S204,44.234,203.9,44.234s-.566,2.174-1.737,2.842,0-1.17-3.845-2.006-6.018,1.5-5.684,4.514-1.254,5.315-2.089,6.653a5.54,5.54,0,0,1-3.656,2.207c-3.225.574-1.277-.836-3.282-2.341a3.71,3.71,0,0,0-3.888,1.381c-1.381,2.05.962,2.38-1.879,5.891s-.586,5.433.919,6.6.027.575,3.344,2.34c2.587,1.376,3.147.585,5.6-.418s2.34-.334,3.344-.167,2.089-1.17,2.256-3.344-.836-5.767.334-6.6,1.756-3.093,3.427-2.257a85.929,85.929,0,0,0,8.777,2.759c1.17.334,1.505,2.006,1.839,3.845s1.671,9.027,1.5,9.7a27.216,27.216,0,0,0-1.17,5.851c0,2.007,1.838,1.171,2.507,3.009a18.113,18.113,0,0,1,0,9.027c-.836,3.177-.836.836-2.674,1s-.5-1.838-.669-3.677-1.505-2.508-3.279-4.012-2.94-1.422-3.659-2.926-.418-2.926-1.588-4.43a5.909,5.909,0,0,0-4.682-2.114c-1.5.06-1.337,2.114-4.848,1.446s-3.344-1.839-7.021-3.344a9.3,9.3,0,0,0-9.2,1.132,25.972,25.972,0,0,1-4.052,2.378,17.843,17.843,0,0,0-5.644,1.249c-3.344,1.25-4.179,4.936-5.349,6.441a13.8,13.8,0,0,1-3.484,3.606c-2.626,2.173-4.32,6.237-2.506,9.42.564.99.305,5.028.724,6.031s3.092,2.174,4.1,4.179,1.4,4.6,2.841,5.684c1.131.847,3.511.5,6.186.5a8.762,8.762,0,0,1,4.872,1.9c2.473.979,2.985,0,5.325,0,1.279,0,2.512.506,3.093,3.868.381,2.21.974,3.737.429,4.887s-.645,3.539-.847,5.9-.836,1.671-2.007,3.176-.669,3.009-.836,3.511-.251,1.854,1.595,4.034c.919,1.087.913,3.739-.257,5.578s-1.922,2.508-3.51,4.6c-.854,1.124-.553,2.731-2.508,6.687-.5,1.015-2.341,1.5-3.845,3.009s-3.009,6.686-3.009,7.69a14.563,14.563,0,0,1-.836,5.516c-1,3.344-2.173,3.678-2.842,6.352a24.421,24.421,0,0,0-.669,7.69c.167,2.508,2.917,4.3,2.917,4.3s4.86,3.129,6.071,2.8a6.036,6.036,0,0,0,3.584-3.064c.669-1.547,1.582-2.1,4.48-3.2a23.3,23.3,0,0,1,5.074-.771,6.983,6.983,0,0,0,4.067-1.569c.556-.669,2.227-2.007,3.565-3.344a13.939,13.939,0,0,1,3.511-2.675c1-.5,2.007-1.337,3.344,0s-.334,3.112,4.681,3.4l3.29.185s-1.291-.073.965.087a1.426,1.426,0,0,1,1.428,1.681c-.041.753-1.074,1.461-1.894,1.839a7.784,7.784,0,0,0-2.564,1.816c-.808.859-.883,2.931-.836,3.366a4.26,4.26,0,0,0,2.35,2.248c2.275,1.084,4.741,1.275,7.957-.132,1.783-.781,3.178-.193,4.349-.778a10.158,10.158,0,0,1,3.845-1.171,8.409,8.409,0,0,0,3.52-2.128c.956-.937.715-2.635,1.717-4.67s2.181-2.311,4.271-4.179c1.463-1.307,1.859-3.4,3.364-4.9s4.164-3.715,4.651-4.472a11.223,11.223,0,0,0,1.952-6.06c.035-.726.064-1.711-.358-2.068a2.519,2.519,0,0,0-3.194.48c-1.337,1.974-2.15,4.355-3.887,6.1a6.953,6.953,0,0,1-5.684,2.341c-2.675.011-4.81,2.006-6.835,3.344a25.633,25.633,0,0,0-4.2,2.841l-2.674,2.174c-1.839.836-3.776-.209-6.06-1.045-2.107-.771-4.711.163-4.346-1.5.585-2.675,1.611-4.048,3.385-4.974a27.544,27.544,0,0,0,8.62-6.52c1.411-1.5,4.452-3.25,5.255-6.018a18.894,18.894,0,0,1,2.926-5.475c2.188-2.128,1.939-3.185,4.931-4.722,1.023-.525,4.128-1.9,6.635-1.394a7.052,7.052,0,0,0,7.185-3.176c1.838-2.675,3.4-3.956,4.4-4.459s2.674-2.507,5.182-5.349,2.842-5.349,3.845-7.69,1.517-4.656.681-6.327-2.909-1.186-3.825.5c-.328.6-2.693,5.075-3.042,5.413-1.462,1.417-1.9.611-2.263-.492-.27-.826.25-3.31.709-5.076a4.8,4.8,0,0,1,1.917-3.115c.739-.449,2.479-.651,3.7-1.821,1.388-1.325,2.354-1.474,3.74-2.131s3.225-1.016,3.894,0,1,1.342,1,2.1-2.006,1.575-2.173,3.172a12.036,12.036,0,0,0,.167,3.977,44.533,44.533,0,0,1,1.379,7.192c.081,1.425,1.159,5.311,1.1,7.08-.081,2.273-1.347,4.7-1.514,6.377a2.646,2.646,0,0,0,1.406,2.472c25.916-16.058,38.509-35.01,38.509-52.918,0-39.36-76.7-54.324-158.873-40.972A370.535,370.535,0,0,0,77.63,73.449C27.882,91.035-3.787,117.409,1.142,145.454c2.8,15.943,22.622,33.508,49.863,41.726,0,0,2.968,1,5.157,1.6" transform="translate(-0.025 -0.99)" fill="none" stroke="#1a1818" stroke-width="1"/>
    <path id="Path_195" data-name="Path 195" d="M160.475,7.3c.11-.644.167-2.644,2.174-2.31s1.619-.554,3.677,1.14,2.9,2.5,2.341,4.376c-.175.592.312,2.128-.993,2.647-2.073.824-3.557,1.692-5.34.069a8.9,8.9,0,0,1-1.692-2.048A4.98,4.98,0,0,1,160.475,7.3Z" transform="translate(-6.319 -0.195)" fill="none" stroke="#1a1818" stroke-width="1"/>
    <path id="Path_196" data-name="Path 196" d="M140.187,7.4s-8.653,3.373-8.987,4.042-2.224,6.045-.443,6.616,1.546,1.683,4.338,1.295,2.626.787,2.625-1.725-3.177-3.344,0-5.015,4.346-1.189,4.514-2.935S140.187,7.4,140.187,7.4Z" transform="translate(-5.129 -0.292)" fill="none" stroke="#1a1818" stroke-width="1"/>
    <path id="Path_197" data-name="Path 197" d="M246.567,60.229c.532.652,2.564,1.56,3.9.669s2.664-.958,3.386-2.465-.37-2.743-.734-5.129c-.278-1.817-1.984-3.083-4.435-4.1s-2.452-1.46-3.789-1.46-5.35,2.007-5.573,4.124-.463,5.26,1.9,5.26,3.232-.356,3.9.646S246.035,59.577,246.567,60.229Z" transform="translate(-9.437 -1.884)" fill="none" stroke="#1a1818" stroke-width="1"/>
    <path id="Path_198" data-name="Path 198" d="M222.994,66.079c1.8,0,1.8,0,3.25,2.787s.334,5.317,2.564,6.447,2.674,3.026,3.678,4.363,1.028,4,2.392,5.8c.152.2,1.374.611.928,2.729s.191,4.513,1.166,4.958,1.263,1.115,1.509-1.56-1.361-3.789,0-5.8a21.471,21.471,0,0,0,2.237-5.49c.409-1.092-.719-1.831-.273-3.821s1.931-1.247,2.442-1.182c2.074.264,1.526-.609,3.866.188s3.23.942,3.23,2.28.334,2.117-1.114,3.678-2.787,2.563-4.012,2.451-1.525-.334-1.988.78-2.152,3.675-1.851,4.876a8.7,8.7,0,0,0,1.719,3.957,2.009,2.009,0,0,0,1.639.659c1.389.1,2.792.184,3.562-.45,1.212-1,1.857-.743,2.08-.683a6.593,6.593,0,0,1,1.526,1.138c.223.2.4.206.909,2.747.136.682.714.88-.11,3.22s-1.913,2.677-2.916,3.525-2.56.716-3.332.868-1.683-1.245-2.352-1.356a3.276,3.276,0,0,0-2.006.488c-.772.382-2.312.595-3.092-.3s-2.48-3.088-2.927-3.645-2.563-4.792-4.011-5.238a9.919,9.919,0,0,0-3.437-.669c-.687.111-2.359.557-2.025,1.894s.78,2.787-.446,3.009-2.487.669-2.8-.223-.874-.892-.763-3.232.748-5.879.763-7.885.008-4.613-.778-5.354c-.97-.914-.542-1.361,1.911-.692s2.229.715,3.008.692,1.152-1.25,1.133-2.364-2.359-2.563-3.028-3.008-4.051-2.007-3.474-4.012-1.358-3.678-.065-5.127Z" transform="translate(-8.729 -2.607)" fill="none" stroke="#1a1818" stroke-width="1"/>
    <path id="Path_199" data-name="Path 199" d="M248,114.415c-.091-.855-.555-1.581-1.892-.8s-1.72,1.132-1.583,4.012c.134,2.811-.532,3.7,1.3,4.925s2.371,1.486,2.839,2.706c.277.719.78,2.755,0,3.646a3.8,3.8,0,0,0-1.114,2.395,6.128,6.128,0,0,0,.245,2.838,1.875,1.875,0,0,0,1.392,1.555,1.75,1.75,0,0,0,2.374-1.2,9.976,9.976,0,0,0,.382-2.784,18.171,18.171,0,0,1,.287-3.138,8.219,8.219,0,0,0-.424-4.47,15.613,15.613,0,0,0-2.075-3.362,4.482,4.482,0,0,1-1.245-2.592c-.052-.395-.061-1.044-.229-2.128C248.157,115.307,248,114.415,248,114.415Z" transform="translate(-9.646 -4.469)" fill="none" stroke="#1a1818" stroke-width="1"/>
    <path id="Path_200" data-name="Path 200" d="M266.723,141.494a8.777,8.777,0,0,0-2.7,3.274,5.178,5.178,0,0,0-.464,3.439,1.841,1.841,0,0,0,1.856,1.5,4.385,4.385,0,0,0,2.621-.35c1.308-.742,2.349-1.1,2.291-1.887a9.239,9.239,0,0,0-.983-3.248C268.392,141.765,267.9,141.03,266.723,141.494Z" transform="translate(-10.394 -5.577)" fill="none" stroke="#1a1818" stroke-width="1"/>
    <path id="Path_201" data-name="Path 201" d="M114.517,26.013c-1.922.2-2.257,1.038-2.257,1.874s-1.337,1.588.5,1.671a9.064,9.064,0,0,0,2.841-.334,10.92,10.92,0,0,0,2.926-.251c.669-.334,2.675.062,1.671-1.181-.407-.505.225-1.044-.836-1.327A27.717,27.717,0,0,0,114.517,26.013Z" transform="translate(-4.41 -1.026)" fill="none" stroke="#1a1818" stroke-width="1"/>
    <path id="Path_202" data-name="Path 202" d="M104.166,25.009a2.858,2.858,0,0,1-2.174-.831c-.5-.586-.334-1.729-1.337-.7s-1.17.132-1.086,1.542-.288,1.39-.019,2.654.855,1.793,1.858,1.78a14.374,14.374,0,0,1,1.923,0c.585.07.585.05,1.253-1.068s1.756-1.6.669-2.491Z" transform="translate(-3.924 -0.91)" fill="none" stroke="#1a1818" stroke-width="1"/>
    <path id="Path_203" data-name="Path 203" d="M106.651,239.86l27.534,41.046h40.044l25.225-41.743-8.406,2.3s-12.465,26.088-37.851,26.746c-22.618.586-35.719-24.982-35.719-24.982Z" transform="translate(-4.208 -9.436)" fill="none" stroke="#1a1818" stroke-linecap="round" stroke-linejoin="round" stroke-width="1"/>
  </g>
</svg>
